<svg width="24" height="24" viewBox="0 0 24 24" fill="none" xmlns="http://www.w3.org/2000/svg">
<path d="M12 0C18.6274 0 24 5.37258 24 12C24 18.6274 18.6274 24 12 24C5.37258 24 0 18.6274 0 12C0 5.37258 5.37258 0 12 0ZM11.7754 5.75977C10.6499 5.76233 10.3416 5.77026 10.2646 5.7959C10.1138 5.85226 10.0163 5.94184 9.93945 6.10547C9.89074 6.2029 9.8877 6.28558 9.8877 8.04688V9.8877H6.20801L6.08008 9.94922C5.92894 10.0184 5.88266 10.068 5.81348 10.2217C5.76237 10.3317 5.75977 10.3872 5.75977 11.7441C5.75977 12.7232 5.76771 13.1777 5.78809 13.249C5.82908 13.3823 5.94454 13.514 6.0752 13.5781C6.18523 13.6318 6.21312 13.6318 8.03711 13.6318H9.8877V15.4541C9.8877 16.8217 9.89593 17.3054 9.91895 17.3857C9.96016 17.5215 10.127 17.6874 10.2627 17.7285C10.3428 17.7515 10.7383 17.7598 11.7754 17.7598H13.1826L13.3135 17.6982C13.4519 17.6342 13.5548 17.5214 13.6035 17.3779C13.624 17.3157 13.6318 16.7584 13.6318 15.4619V13.6318H15.4619C16.7584 13.6318 17.3157 13.624 17.3779 13.6035C17.5214 13.5548 17.6342 13.4519 17.6982 13.3135L17.7598 13.1826V11.7754C17.7598 10.7383 17.7515 10.3428 17.7285 10.2627C17.6874 10.127 17.5215 9.96016 17.3857 9.91895C17.3054 9.89593 16.8221 9.8877 15.457 9.8877H13.6338L13.626 8.00586L13.6191 6.12402L13.542 6.01074C13.4907 5.93909 13.4158 5.87774 13.3262 5.8291L13.1855 5.75977H11.7754Z" fill="#96A3B0"/>
</svg>
