<svg width="20" height="20" viewBox="0 0 20 20" fill="none" xmlns="http://www.w3.org/2000/svg">
<path d="M1.05406 16.5593C1.29418 16.5593 1.48899 16.3645 1.48899 16.1244V14.143H18.4993V16.1244C18.4993 16.3645 18.6941 16.5593 18.9342 16.5593C19.1743 16.5593 19.3691 16.3645 19.3691 16.1244V6.94266C19.3691 6.70254 19.1743 6.50773 18.9342 6.50773C18.6941 6.50773 18.4993 6.70254 18.4993 6.94266V8.92397H1.48899V3.55992C1.48899 3.31981 1.29418 3.125 1.05406 3.125C0.81395 3.125 0.619141 3.31981 0.619141 3.55992V16.1244C0.619141 16.3645 0.81395 16.5593 1.05406 16.5593ZM1.48899 13.2732V12.6933H18.4993V13.2732H1.48899ZM18.4993 9.79382V11.8235H1.48899V9.79382H18.4993Z" fill="black"/>
<path d="M2.29625 8.49377H6.79015C7.03026 8.49377 7.22507 8.29896 7.22507 8.05885C7.22356 6.80165 6.20482 5.78276 4.94762 5.78125H2.29625C2.05614 5.78125 1.86133 5.97606 1.86133 6.21617V8.05885C1.86133 8.29896 2.05614 8.49377 2.29625 8.49377ZM2.73117 6.65109H4.94762C5.55727 6.65185 6.09745 7.04433 6.28652 7.62393H2.73117V6.65109Z" fill="black"/>
</svg>
