<svg width="36" height="36" viewBox="0 0 36 36" fill="none" xmlns="http://www.w3.org/2000/svg">
<path d="M13.5 32C14.8807 32 16 30.8807 16 29.5C16 28.1193 14.8807 27 13.5 27C12.1193 27 11 28.1193 11 29.5C11 30.8807 12.1193 32 13.5 32Z" fill="white"/>
<path d="M26.5 32C27.8807 32 29 30.8807 29 29.5C29 28.1193 27.8807 27 26.5 27C25.1193 27 24 28.1193 24 29.5C24 30.8807 25.1193 32 26.5 32Z" fill="white"/>
<path d="M33.1005 6.39003C33.0073 6.26901 32.8877 6.17094 32.7507 6.10334C32.6138 6.03573 32.4632 6.00039 32.3105 6.00003H9.21048L8.76048 4.57003C8.71105 4.41648 8.6252 4.27718 8.51028 4.164C8.39535 4.05081 8.25476 3.96711 8.10048 3.92003L4.00048 2.66003C3.87441 2.62129 3.74194 2.60776 3.61065 2.62021C3.47935 2.63266 3.35179 2.67086 3.23525 2.73261C2.99989 2.85732 2.82372 3.07042 2.74548 3.32503C2.66724 3.57963 2.69335 3.85489 2.81806 4.09025C2.94277 4.32561 3.15587 4.50179 3.41048 4.58003L7.00048 5.68003L11.5805 20.15L9.95048 21.49L9.82048 21.62C9.41738 22.0868 9.18899 22.6791 9.1744 23.2957C9.15981 23.9122 9.35991 24.5147 9.74048 25C10.013 25.3315 10.3594 25.5946 10.7518 25.7682C11.1442 25.9418 11.5719 26.0212 12.0005 26H28.6905C28.9557 26 29.21 25.8947 29.3976 25.7071C29.5851 25.5196 29.6905 25.2652 29.6905 25C29.6905 24.7348 29.5851 24.4805 29.3976 24.2929C29.21 24.1054 28.9557 24 28.6905 24H11.8405C11.7253 23.9961 11.6131 23.9625 11.5147 23.9026C11.4163 23.8426 11.3351 23.7583 11.2788 23.6578C11.2225 23.5573 11.1931 23.4439 11.1934 23.3287C11.1937 23.2135 11.2237 23.1003 11.2805 23L13.6905 21H29.1205C29.3489 21.0067 29.5727 20.9349 29.7547 20.7966C29.9366 20.6583 30.0657 20.4619 30.1205 20.24L33.3205 7.24003C33.3509 7.09094 33.3469 6.93689 33.3088 6.78959C33.2706 6.64229 33.1994 6.50563 33.1005 6.39003V6.39003Z" fill="white"/>
</svg>
