<svg width="20" height="20" viewBox="0 0 20 20" fill="none" xmlns="http://www.w3.org/2000/svg">
<path d="M5.02842 2.08753C4.90654 2.15004 4.83466 2.21567 4.76591 2.32819L4.67215 2.4782L4.66277 3.2408L4.65027 4.00026H4.22525C3.70022 4.00026 3.44708 4.05027 3.09705 4.22529C2.57827 4.48157 2.16262 5.01601 2.04699 5.57858C2.00636 5.76611 2.00011 6.5662 2.00011 11.0011C2.00011 16.8112 1.98761 16.433 2.22513 16.9081C2.45327 17.3613 2.85954 17.7113 3.38145 17.902L3.60959 17.9863L9.89747 17.9957C16.9291 18.0051 16.4229 18.0207 16.9041 17.7769C17.3698 17.5425 17.7542 17.0862 17.9167 16.5799L17.9855 16.3612V11.0011V5.64109L17.9167 5.42231C17.7542 4.91288 17.3698 4.45657 16.9073 4.22529C16.5604 4.0534 16.3072 4.00026 15.7759 4.00026H15.3509L15.3384 3.2408L15.329 2.4782L15.2353 2.32819C15.1665 2.21567 15.0947 2.15004 14.9728 2.08753C14.8134 2.00315 14.7884 2.00002 14.3415 2.00002C13.8321 2.00002 13.7164 2.02815 13.5539 2.18129C13.3539 2.36882 13.3446 2.42195 13.3446 3.25017V4.00026H10.0006H6.65665V3.2658C6.65665 2.4657 6.64414 2.38757 6.47538 2.2063C6.31287 2.03127 6.19099 2.00002 5.66909 2.00002C5.20968 2.00002 5.19093 2.00315 5.02842 2.08753ZM16.651 12.4638L16.6416 16.2424L16.5572 16.3643C16.5104 16.4299 16.4197 16.5205 16.3541 16.5643L16.2385 16.6424H10.0006H3.75959L3.63771 16.558C3.57208 16.5112 3.48145 16.4205 3.4377 16.3549L3.35957 16.2393L3.3502 12.4638L3.34394 8.68834H10.0006H16.6573L16.651 12.4638Z" fill="#004BDD"/>
</svg>
