<svg width="20" height="20" viewBox="0 0 20 20" fill="none" xmlns="http://www.w3.org/2000/svg">
<g clip-path="url(#clip0_1215_3026)">
<path d="M5.33984 0.0546875C5.08984 0.148438 4.89062 0.300781 4.77734 0.496094C4.67969 0.664062 4.66406 0.730469 4.64844 1.11328L4.62891 1.54297L3.33984 1.5625C2.08203 1.58203 2.04688 1.58594 1.87891 1.67188C1.62891 1.80859 1.38281 2.07812 1.29297 2.32812C1.21094 2.53906 1.21094 2.60156 1.21094 6.38672V10.2305L1.3125 10.3086C1.44922 10.418 1.61328 10.4102 1.74609 10.2969L1.85547 10.2031L1.86719 8.22656L1.87891 6.25H10H18.125V11.0508V15.8477L18.0352 15.9766C17.8594 16.2383 17.8008 16.25 16.6133 16.25C15.5508 16.25 15.5508 16.25 15.4453 16.3438C15.293 16.4727 15.293 16.6914 15.4453 16.8242L15.5586 16.918L16.7148 16.9062L17.8711 16.8945L18.0938 16.7852C18.3555 16.6562 18.5664 16.4336 18.6953 16.1523L18.7891 15.9492L18.7812 9.17578L18.7695 2.40234L18.6797 2.23438C18.5664 2.01953 18.332 1.78516 18.1172 1.67188C17.9531 1.58594 17.9102 1.58203 16.6602 1.5625L15.3711 1.54297L15.3516 1.13281C15.3281 0.675781 15.2617 0.503906 15.0312 0.289062C14.793 0.0625 14.6719 0.0234375 14.1719 0.0078125C13.6484 -0.0117188 13.4531 0.0351562 13.2031 0.234375C12.9609 0.425781 12.8477 0.703125 12.8242 1.17188L12.8008 1.5625L9.98438 1.55469L7.16797 1.54297L7.14844 1.13281C7.125 0.675781 7.05859 0.503906 6.82812 0.289062C6.58984 0.0585938 6.46875 0.0234375 5.95703 0.0117188C5.625 0.00390625 5.44531 0.015625 5.33984 0.0546875ZM6.37109 0.777344L6.48438 0.890625V1.875V2.85938L6.37109 2.97266C6.26172 3.08203 6.23828 3.08594 5.91797 3.08594C5.58203 3.08594 5.45312 3.05078 5.36328 2.93359C5.29297 2.84375 5.29297 0.90625 5.36328 0.816406C5.45312 0.699219 5.57031 0.667969 5.91016 0.664062C6.24219 0.664062 6.26172 0.667969 6.37109 0.777344ZM14.5742 0.777344L14.6875 0.890625V1.875V2.85938L14.5742 2.97266C14.4648 3.08203 14.4414 3.08594 14.1211 3.08594C13.7734 3.08594 13.5859 3.03125 13.5391 2.91016C13.5273 2.875 13.5156 2.40234 13.5156 1.85938C13.5156 0.640625 13.5039 0.667969 14.1133 0.664062C14.4453 0.664062 14.4648 0.667969 14.5742 0.777344ZM4.64844 2.59766C4.64844 3.14062 4.78125 3.40625 5.16406 3.61719C5.36328 3.72656 5.39062 3.73047 5.89844 3.73047C6.48828 3.73047 6.61328 3.69141 6.86328 3.42969C7.07422 3.21094 7.14844 2.99609 7.14844 2.58594V2.22656H9.97656H12.8008L12.8242 2.60156C12.8516 3.07812 12.9688 3.33984 13.2383 3.53516C13.4922 3.72266 13.6719 3.76172 14.1875 3.74219C14.6797 3.72656 14.8398 3.66797 15.0664 3.42969C15.2773 3.21094 15.3516 2.99609 15.3516 2.58594V2.22656H16.5547C17.8789 2.22656 17.8789 2.22656 18.0508 2.48438C18.1211 2.58984 18.125 2.69531 18.125 4.08984V5.58594H10H1.87109L1.88281 4.07031C1.89453 2.62891 1.89844 2.55469 1.97266 2.45312C2.14453 2.23047 2.14062 2.23047 3.44922 2.22656H4.64844V2.59766Z" fill="black"/>
<path d="M9.15625 9.82422C7.27344 10.1562 5.74219 11.4766 5.13672 13.293C4.99609 13.7188 4.88281 14.3711 4.88281 14.7617C4.88281 15.0586 4.98828 15.1953 5.21484 15.1953C5.43359 15.1953 5.54688 15.0586 5.54688 14.7891C5.54688 14.4727 5.61719 14.0156 5.72656 13.6367C6.27734 11.7422 8.02344 10.4297 10.0039 10.4297C11.332 10.4297 12.6406 11.0508 13.4492 12.0703L13.6836 12.3633L12.9062 12.375C12.1758 12.3828 12.1289 12.3906 12.043 12.4688C11.9844 12.5234 11.9531 12.5977 11.9531 12.6797C11.9531 13.0312 12.0039 13.0469 13.2812 13.0469C14.3594 13.0469 14.4492 13.0352 14.5586 12.8945C14.5938 12.8477 14.6055 12.5273 14.6094 11.6953C14.6094 10.418 14.6094 10.4102 14.332 10.3672C14.2188 10.3477 14.1719 10.3633 14.0781 10.4414L13.9648 10.5391L13.9531 11.0664L13.9375 11.5977L13.6797 11.3242C13.0234 10.625 12.0469 10.0859 11.0352 9.85938C10.6484 9.77344 9.56641 9.75391 9.15625 9.82422Z" fill="black"/>
<path d="M1.29688 11.3008C1.21875 11.3829 1.21094 11.4337 1.21094 11.8126C1.21094 12.043 1.22656 12.2657 1.25 12.3047C1.3125 12.4219 1.50781 12.4688 1.66016 12.4063C1.83203 12.3321 1.88672 12.1485 1.87109 11.7266C1.85547 11.461 1.83984 11.3985 1.76172 11.3126C1.63672 11.1797 1.41797 11.1719 1.29688 11.3008Z" fill="black"/>
<path d="M1.30469 13.3398L1.20703 13.4375L1.21875 14.7383C1.23047 16.0039 1.23438 16.0391 1.32031 16.2031C1.45703 16.4609 1.66406 16.668 1.90625 16.7852L2.12891 16.8945L3.28516 16.9063L4.44141 16.918L4.55469 16.8242C4.69531 16.7031 4.70703 16.4844 4.57813 16.3555C4.49219 16.2734 4.46484 16.2695 3.36719 16.25C2.27344 16.2305 2.24219 16.2266 2.11719 16.1406C1.89844 15.9805 1.89453 15.9766 1.875 14.6563L1.85547 13.4297L1.74609 13.3359C1.60156 13.2109 1.42969 13.2148 1.30469 13.3398Z" fill="black"/>
<path d="M14.5508 14.668C14.4727 14.7422 14.4531 14.8008 14.4531 14.9688C14.4531 15.3086 14.3437 15.918 14.2187 16.2891C13.707 17.8281 12.457 18.9297 10.8594 19.2578C10.2852 19.3789 9.41406 19.3516 8.87109 19.2031C7.91797 18.9375 7.08984 18.3945 6.51172 17.6602L6.32812 17.4297L7.09375 17.4141L7.85937 17.4023L7.95312 17.293C8.07422 17.1523 8.07422 16.9883 7.95312 16.8477L7.85937 16.7383H6.72266H5.58594L5.48047 16.8477L5.37109 16.9531V18.0898V19.2266L5.48047 19.3203C5.62109 19.4414 5.78516 19.4414 5.92578 19.3203C6.03516 19.2266 6.03516 19.2188 6.05078 18.7109L6.0625 18.1992L6.44141 18.5625C7.42187 19.5156 8.61719 20 9.98437 20C11.3984 20 12.6211 19.4922 13.6133 18.5C14.4961 17.6133 15 16.5156 15.1016 15.2656C15.1172 15.082 15.1172 14.8828 15.1016 14.8281C15.0391 14.5742 14.7305 14.4844 14.5508 14.668Z" fill="black"/>
</g>
<defs>
<clipPath id="clip0_1215_3026">
<rect width="20" height="20" fill="white"/>
</clipPath>
</defs>
</svg>
