<svg width="32" height="32" viewBox="0 0 32 32" fill="none" xmlns="http://www.w3.org/2000/svg">
<path d="M27.4565 4.54286C24.5252 1.61219 20.6252 0 16.4815 0C14.4315 0 12.4315 0.399922 10.544 1.18102C8.65645 1.96212 6.9627 3.09315 5.5127 4.54286C2.5752 7.47354 0.962702 11.3728 0.962702 15.5157C0.962702 17.9902 1.55645 20.446 2.6877 22.6331L0.081452 30.0816C-0.0997981 30.6065 0.0252019 31.1814 0.418952 31.5751C0.693952 31.85 1.05645 32 1.43145 32C1.59395 32 1.7502 31.975 1.9127 31.9188L9.3627 29.3068C11.5502 30.4378 14.0065 31.0314 16.4815 31.0314C20.6252 31.0314 24.5252 29.4193 27.4565 26.4886C30.3877 23.5579 32.0002 19.6587 32.0002 15.5157C32.0002 11.3728 30.3877 7.47354 27.4565 4.54286ZM26.1252 25.1576C23.5502 27.7321 20.1252 29.1506 16.4815 29.1506C14.2502 29.1506 12.0377 28.6007 10.0752 27.5571C9.71895 27.3697 9.3002 27.3384 8.9252 27.4696L2.15645 29.8379L4.5252 23.0705C4.65645 22.6956 4.6252 22.2707 4.4377 21.9207C3.39395 19.9586 2.8377 17.7465 2.8377 15.5157C2.8377 11.8727 4.25645 8.44835 6.83145 5.87385C9.40645 3.29936 12.8315 1.88088 16.4752 1.88088C20.1252 1.87463 23.5502 3.29311 26.1252 5.87385C28.7002 8.44835 30.119 11.8727 30.119 15.5157C30.119 19.1588 28.7065 22.5831 26.1252 25.1576Z" fill="white"/>
</svg>
