<svg width="15" height="15" viewBox="0 0 15 15" fill="none" xmlns="http://www.w3.org/2000/svg">
<path d="M12.8701 2.12947C11.4961 0.755712 9.668 0 7.72563 0C6.7647 0 5.82721 0.187463 4.94245 0.553603C4.05769 0.919742 3.26375 1.44991 2.58406 2.12947C1.20712 3.50322 0.451264 5.33099 0.451264 7.27299C0.451264 8.43292 0.729582 9.58407 1.25985 10.6093L0.0381804 14.1008C-0.04678 14.3468 0.0118133 14.6163 0.196382 14.8008C0.325288 14.9297 0.495209 15 0.670989 15C0.74716 15 0.820402 14.9883 0.896573 14.9619L4.38874 13.7376C5.41412 14.2677 6.56548 14.546 7.72563 14.546C9.668 14.546 11.4961 13.7903 12.8701 12.4165C14.2441 11.0428 15 9.215 15 7.27299C15 5.33099 14.2441 3.50322 12.8701 2.12947Z" fill="#797979"/>
</svg>
