<svg width="18" height="18" viewBox="0 0 18 18" fill="none" xmlns="http://www.w3.org/2000/svg">
<g clip-path="url(#clip0_339_1136)">
<path d="M4.07114 0.773445C3.26606 0.871883 2.48911 1.24454 1.89145 1.8211C1.26919 2.42227 0.875438 3.23438 0.773485 4.11329C0.724266 4.53165 0.727781 10.452 0.777 10.8879C0.875438 11.7844 1.31138 12.6598 1.94419 13.2399C2.38364 13.6441 3.00591 13.9887 3.53677 14.1188L3.75825 14.175L3.7688 15.4688L3.77934 16.7625L3.88481 16.9172C4.09575 17.216 4.51411 17.332 4.81294 17.1738C4.87973 17.1387 5.9063 16.4672 7.08755 15.6762L9.24263 14.2418L11.6965 14.2313L14.1504 14.2172L14.4668 14.1258C15.9961 13.6793 17.0508 12.4418 17.2231 10.8879C17.2723 10.452 17.2758 4.53165 17.2266 4.11329C17.086 2.89688 16.4075 1.86329 15.3457 1.24102C15.0821 1.08634 14.6567 0.917587 14.3157 0.833212C14.0098 0.759384 13.9852 0.759383 9.15825 0.752352C6.48989 0.748836 4.20122 0.759383 4.07114 0.773445ZM13.9747 2.30274C14.734 2.46095 15.4125 3.08673 15.6551 3.84962L15.7325 4.09571V7.48829V10.8809L15.6516 11.1445C15.4653 11.7387 15.061 12.2203 14.5161 12.4981C14.0274 12.7477 14.1469 12.7371 11.2993 12.7582L8.72934 12.7793L6.99966 13.9324C6.05044 14.5652 5.26645 15.082 5.25591 15.082C5.24888 15.082 5.23833 14.6637 5.2313 14.1574L5.22075 13.2293L5.12583 13.0922C4.96059 12.8566 4.83403 12.7969 4.38755 12.7441C3.90591 12.6844 3.77583 12.6492 3.48052 12.4945C3.03755 12.2625 2.69302 11.9145 2.48208 11.4785C2.24653 10.9934 2.25005 11.0813 2.25005 7.49884C2.25005 3.88829 2.24653 3.99727 2.49614 3.49454C2.802 2.88985 3.37153 2.44337 4.01489 2.30274C4.35591 2.22891 13.6196 2.22891 13.9747 2.30274Z" fill="black"/>
<path d="M4.32422 5.26992C3.95859 5.38242 3.76172 5.64258 3.76172 6.01172C3.76172 6.30703 3.94805 6.57773 4.22578 6.69375C4.3418 6.74297 4.8832 6.75 9 6.75C14.0871 6.75 13.7742 6.76406 14.0062 6.54609C14.291 6.27891 14.3156 5.77266 14.052 5.49141C14.0098 5.4457 13.9113 5.37187 13.834 5.3332L13.6934 5.25586L9.05273 5.24883C6.50039 5.24531 4.37344 5.25586 4.32422 5.26992Z" fill="black"/>
<path d="M5.69498 8.31798C5.08678 8.58165 5.12897 9.52032 5.75826 9.70313C5.84967 9.73126 6.87623 9.73829 9.07701 9.73126L12.2622 9.72071L12.4169 9.61524C12.902 9.27423 12.8317 8.53946 12.2973 8.31446C12.1813 8.26876 11.7805 8.26173 8.99264 8.26173C6.23639 8.26524 5.80045 8.27227 5.69498 8.31798Z" fill="black"/>
</g>
<defs>
<clipPath id="clip0_339_1136">
<rect width="18" height="18" fill="white"/>
</clipPath>
</defs>
</svg>
