<svg width="18" height="17" viewBox="0 0 18 17" fill="none" xmlns="http://www.w3.org/2000/svg">
<g clip-path="url(#clip0_339_1134)">
<path d="M11.4545 0H4.09091C3.41182 0 2.83091 0.409091 2.58545 0.998182L0.114545 6.76636C0.0409091 6.95455 0 7.15091 0 7.36364V9C0 9.9 0.736364 10.6364 1.63636 10.6364H6.79909L6.02182 14.3755L5.99727 14.6373C5.99727 14.9727 6.13636 15.2836 6.35727 15.5045L7.22455 16.3636L12.6164 10.9718C12.9109 10.6773 13.0909 10.2682 13.0909 9.81818V1.63636C13.0909 0.736364 12.3545 0 11.4545 0ZM11.4545 9.81818L7.90364 13.3691L9 9H1.63636V7.36364L4.09091 1.63636H11.4545V9.81818ZM14.7273 0H18V9.81818H14.7273V0Z" fill="black"/>
</g>
<defs>
<clipPath id="clip0_339_1134">
<rect width="18" height="16.3636" fill="white"/>
</clipPath>
</defs>
</svg>
