<svg width="31" height="30" viewBox="0 0 31 30" fill="none" xmlns="http://www.w3.org/2000/svg">
<g clip-path="url(#clip0_233_1841)">
<path d="M3.0166 3.63867C2.00879 3.83789 1.15332 4.70508 0.959961 5.73633C0.87793 6.16992 0.87793 23.8301 0.959961 24.2637C1.15918 25.3184 2.00879 26.168 3.06348 26.3672C3.49707 26.4492 28.3057 26.4492 28.7393 26.3672C29.7939 26.168 30.6436 25.3184 30.8428 24.2637C30.9248 23.8301 30.9248 6.16992 30.8428 5.73633C30.6436 4.68164 29.7939 3.83203 28.7393 3.63281C28.3467 3.5625 3.39746 3.5625 3.0166 3.63867ZM21.9248 11.291L15.9658 17.25L15.1279 16.4473C14.665 16.002 11.958 13.3242 9.10449 10.4883L3.91895 5.33789L15.9014 5.33203H27.8838L21.9248 11.291ZM7.13574 11.0039L11.1084 14.959L6.88379 19.1836L2.65918 23.4082V15.0059V6.60938L2.91113 6.83203C3.0459 6.94922 4.94434 8.83008 7.13574 11.0039ZM29.1436 15.0117V23.4082L24.9424 19.207L20.7353 15L24.9248 10.8105C27.2275 8.50781 29.1201 6.6211 29.126 6.6211C29.1377 6.6211 29.1436 10.4004 29.1436 15.0117ZM13.8799 17.7012C14.6885 18.5098 15.4443 19.2188 15.5615 19.2832C15.8252 19.418 16.083 19.4238 16.3291 19.3008C16.4346 19.248 17.1846 18.5449 17.999 17.7363L19.4756 16.2598L23.6826 20.4668L27.8838 24.668H15.9014H3.91895L8.13769 20.4492C10.458 18.1289 12.3682 16.2305 12.3857 16.2305C12.4033 16.2305 13.0771 16.8926 13.8799 17.7012Z" fill="#A8A8A8"/>
</g>
<defs>
<clipPath id="clip0_233_1841">
<rect width="30" height="30" fill="white" transform="translate(0.902344)"/>
</clipPath>
</defs>
</svg>
