<svg width="20" height="20" viewBox="0 0 20 20" fill="none" xmlns="http://www.w3.org/2000/svg">
<path fill-rule="evenodd" clip-rule="evenodd" d="M5.91703 6.83147C4.67347 7.79763 3.6756 8.96639 3.08059 9.74314L3.07647 9.74851L3.07645 9.7485C3.02057 9.82043 2.99023 9.90893 2.99023 10C2.99023 10.0911 3.02057 10.1796 3.07645 10.2515L3.0806 10.2569L3.08059 10.2569C3.6756 11.0337 4.67347 12.2024 5.91703 13.1686C7.17186 14.1435 8.57495 14.8334 10.0009 14.8334C11.4269 14.8334 12.8299 14.1435 14.0848 13.1686C15.3283 12.2024 16.3262 11.0337 16.9212 10.2569C17.0411 10.1002 17.0417 9.90098 16.9208 9.74263C16.3258 8.96588 15.3281 7.79742 14.0848 6.83147C12.8299 5.85655 11.4269 5.16669 10.0009 5.16669C8.57495 5.16669 7.17186 5.85655 5.91703 6.83147ZM17.7151 9.13502L18.5089 8.52691C17.8598 7.67949 16.7431 6.36408 15.3118 5.25211C13.8919 4.1489 12.06 3.16669 10.0009 3.16669C7.94186 3.16669 6.10995 4.1489 4.68999 5.25211C3.26009 6.36304 2.14412 7.67703 1.49471 8.52453C1.16771 8.94684 0.990234 9.46584 0.990234 10C0.990234 10.5342 1.16771 11.0532 1.49471 11.4755C2.14412 12.323 3.26009 13.637 4.68999 14.7479C6.10995 15.8511 7.94186 16.8334 10.0009 16.8334C12.06 16.8334 13.8919 15.8511 15.3118 14.7479C16.7431 13.636 17.8598 12.3206 18.5089 11.4731L18.509 11.473C19.179 10.5981 19.1784 9.40256 18.5095 8.52767L17.7151 9.13502Z" fill="#004BDD"/>
<path fill-rule="evenodd" clip-rule="evenodd" d="M10 8.5C9.17157 8.5 8.5 9.17157 8.5 10C8.5 10.8284 9.17157 11.5 10 11.5C10.8284 11.5 11.5 10.8284 11.5 10C11.5 9.17157 10.8284 8.5 10 8.5ZM6.5 10C6.5 8.067 8.067 6.5 10 6.5C11.933 6.5 13.5 8.067 13.5 10C13.5 11.933 11.933 13.5 10 13.5C8.067 13.5 6.5 11.933 6.5 10Z" fill="#004BDD"/>
</svg>
