<svg width="20" height="21" viewBox="0 0 20 21" fill="none" xmlns="http://www.w3.org/2000/svg">
<path d="M11.3477 0.0273418C11.082 0.0624981 10.4648 0.234373 10.1719 0.347654C8.66797 0.949217 7.6875 2.15234 7.29688 3.8789C7.23047 4.1875 7.21484 4.42187 7.19141 5.48828L7.16797 6.73828L6.07422 6.75781C5.15234 6.77344 4.96094 6.78906 4.85938 6.84375C4.67969 6.9414 4.42578 7.23828 4.37891 7.40625C4.35156 7.5039 4.33594 8.18359 4.33594 9.30078V11.0391L4.4375 11.2422C4.49219 11.3555 4.60156 11.5 4.67969 11.5625C4.93359 11.7695 5.10156 11.7969 6.19922 11.7969H7.1875V15.5273C7.1875 19.6445 7.17188 19.4102 7.43359 19.6797C7.50391 19.7539 7.62891 19.8477 7.71484 19.8945C7.86719 19.9805 7.89844 19.9805 9.74609 19.9805C11.6016 19.9805 11.6211 19.9805 11.7812 19.8945C11.9688 19.7969 12.1758 19.5703 12.25 19.3906C12.2969 19.2812 12.3047 18.6055 12.3047 15.5312V11.8008L13.5859 11.7891C14.8047 11.7773 14.8711 11.7734 15.0195 11.6953C15.2188 11.5859 15.375 11.4297 15.4844 11.2305C15.5625 11.0781 15.5664 11.0273 15.5781 9.39453C15.5859 8.25 15.5781 7.65234 15.5469 7.51172C15.4922 7.2539 15.3242 7.02734 15.0898 6.88672L14.9023 6.77734L13.6133 6.75781L12.3242 6.73828V5.99609C12.3281 5.58594 12.3398 5.1875 12.3555 5.10547C12.4102 4.83203 12.4414 4.82812 13.7695 4.80469C14.7734 4.78515 14.9648 4.77344 15.0977 4.71484C15.293 4.6289 15.4883 4.4414 15.5977 4.23828C15.6836 4.08594 15.6836 4.05078 15.6836 2.38281C15.6836 0.703123 15.6836 0.679686 15.5977 0.523436C15.4883 0.320311 15.3203 0.148436 15.1445 0.0624981C15.0234 0.00781059 14.8086 -1.90781e-06 13.2344 0.00390434C12.2617 0.00781059 11.4141 0.0195293 11.3477 0.0273418ZM14.5234 2.37109L14.5117 3.61328L13.457 3.63672C12.625 3.65234 12.3594 3.67187 12.1992 3.72265C11.7695 3.86328 11.4023 4.21875 11.2734 4.625C11.168 4.94531 11.125 5.5625 11.1406 6.53515C11.1523 7.49609 11.168 7.57422 11.3594 7.74609C11.543 7.91406 11.6758 7.92578 13.0781 7.92969H14.4141V9.27734V10.625H13.0234C11.6914 10.625 11.625 10.6289 11.4883 10.707C11.4102 10.75 11.3008 10.8477 11.25 10.9258L11.1523 11.0703L11.1406 14.9492L11.1328 18.8281H9.74609H8.35938L8.35156 14.9492L8.33984 11.0703L8.24219 10.9258C8.19141 10.8477 8.08203 10.75 8.00391 10.707C7.86719 10.6289 7.79688 10.625 6.68359 10.625H5.50781V9.27734V7.92969H6.63281C7.80469 7.92578 7.95312 7.90625 8.13281 7.74609C8.33594 7.5625 8.33594 7.55078 8.36328 5.8789C8.38672 4.35937 8.39062 4.30469 8.48828 3.94531C8.65234 3.33594 8.83984 2.94531 9.16797 2.50781C9.65625 1.86328 10.4297 1.40625 11.3125 1.23437C11.7617 1.14844 11.7734 1.14453 13.2148 1.14062L14.5312 1.13281L14.5234 2.37109Z" fill="#606060"/>
</svg>
