<svg width="25" height="25" viewBox="0 0 25 25" fill="none" xmlns="http://www.w3.org/2000/svg">
<path d="M7.90918 2.17773C7.68457 2.27539 7.5332 2.42187 7.40625 2.66113L7.29883 2.85644L7.28418 11.8506L7.27441 20.8496H6.62012C6.03418 20.8496 5.95117 20.8594 5.75586 20.9619C5.63867 21.0254 5.47754 21.1719 5.39453 21.2842C5.2627 21.4746 5.24805 21.5283 5.24805 21.8701C5.24805 22.1924 5.26758 22.2754 5.37012 22.4268C5.43848 22.5293 5.58008 22.6709 5.68262 22.7441L5.87305 22.876H8.3291H10.7803L10.9951 22.7295C11.6689 22.2559 11.5713 21.2354 10.8291 20.9229C10.6973 20.8691 10.4727 20.8496 10.0088 20.8496H9.37402V17.1875V13.5254L15.8096 13.5156L22.25 13.501L22.4404 13.3691C22.8115 13.1104 22.9678 12.7051 22.8799 12.2314C22.8555 12.1045 22.46 11.5381 21.4541 10.2002C20.5996 9.05762 20.0771 8.32031 20.1016 8.28613C20.1211 8.25195 20.7266 7.43652 21.4492 6.46973C22.1768 5.50781 22.7969 4.64355 22.8311 4.55566C22.9238 4.33594 22.9141 3.96973 22.8066 3.73535C22.6943 3.48633 22.4209 3.24219 22.1816 3.17871C22.0547 3.14453 19.9404 3.125 15.6875 3.125H9.37402V3.02734C9.37402 2.74414 9.10059 2.3584 8.77832 2.19238C8.55859 2.08008 8.15332 2.07031 7.90918 2.17773ZM18.8174 6.50391C18.29 7.20703 17.8262 7.85644 17.792 7.94434C17.709 8.13965 17.7041 8.47656 17.7822 8.69141C17.8115 8.78418 18.2559 9.41894 18.7734 10.1025C19.2861 10.791 19.7207 11.3818 19.7451 11.4111C19.7744 11.46 18.7246 11.4746 14.5791 11.4746H9.37402V8.34961V5.22461H14.5742H19.7744L18.8174 6.50391Z" fill="#606060"/>
</svg>
