<svg width="24" height="24" viewBox="0 0 24 24" fill="none" xmlns="http://www.w3.org/2000/svg">
<path d="M9.16406 0.731226C7.33124 0.923413 5.73749 1.53748 4.35468 2.5781C3.84843 2.95779 2.9578 3.84841 2.57812 4.35466C0.487492 7.12966 0.126554 10.8422 1.64062 13.9453C2.8453 16.4109 5.04374 18.1922 7.72968 18.8672C9.22499 19.2469 11.0344 19.2 12.5484 18.75C13.1062 18.5859 13.8984 18.2578 14.3484 18C14.5781 17.8687 14.6766 17.8359 14.7094 17.8734C14.7328 17.9062 14.8734 18.1406 15.0281 18.3984C15.7125 19.5609 17.1187 21.539 17.7375 22.2047C18.5437 23.0719 19.6312 23.4469 20.7187 23.2312C23.1609 22.7484 24.1219 19.814 22.4437 17.9765C21.9 17.3812 20.1094 16.0687 18.5859 15.1453C18.2766 14.9578 17.9766 14.775 17.9203 14.7375L17.8172 14.6719L17.9766 14.3906C19.2281 12.1734 19.4672 9.40779 18.6281 6.89529C18.4594 6.39373 17.9156 5.29685 17.6016 4.8281C15.9047 2.29685 13.1672 0.792165 10.1484 0.72654C9.71249 0.717165 9.26718 0.721851 9.16406 0.731226ZM11.0719 4.27029C12.1875 4.4906 13.1672 5.01091 13.9687 5.81248C16.2234 8.04841 16.2797 11.6109 14.0906 13.9125C11.9016 16.214 8.19843 16.289 5.92031 14.0765C4.75781 12.9469 4.15781 11.5172 4.15781 9.8906C4.16249 8.48904 4.65468 7.17654 5.55468 6.15466C6.97031 4.54685 8.98593 3.85779 11.0719 4.27029Z" fill="#96A3B0"/>
</svg>
