<svg width="24" height="24" viewBox="0 0 24 24" fill="none" xmlns="http://www.w3.org/2000/svg">
<path d="M6.60957 3.35155C4.65019 3.66561 2.958 5.18905 2.30175 7.22811C1.908 8.46092 1.91738 9.97498 2.3205 11.3906C2.75175 12.8859 3.558 14.1562 4.98769 15.5906C5.883 16.4812 6.333 16.8656 8.06269 18.2156C10.5846 20.175 11.1189 20.4844 12.0002 20.4844C12.5814 20.4844 13.233 20.2265 13.9924 19.6969C14.4658 19.3687 16.8846 17.489 17.6393 16.8656C18.4268 16.2187 19.7299 14.8969 20.1846 14.2875C21.4174 12.6328 21.9846 11.025 21.9846 9.17811C21.9846 8.41873 21.8908 7.82342 21.6752 7.17655C20.8314 4.6453 18.5158 3.04686 16.083 3.31873C15.3752 3.39842 14.8502 3.5578 14.133 3.91405C13.4674 4.24686 12.9002 4.64061 12.3564 5.16092L12.0002 5.49842L11.6439 5.16092C10.1486 3.73592 8.32519 3.08436 6.60957 3.35155Z" fill="#96A3B0"/>
</svg>
