<svg width="30" height="30" viewBox="0 0 30 30" fill="none" xmlns="http://www.w3.org/2000/svg">
<path d="M7.53493 1.11334C4.68727 1.47076 2.29079 3.19928 0.97829 5.83014C-0.638898 9.07037 -0.199445 12.9493 2.09157 15.7618C2.58376 16.3653 14.367 28.7579 14.5076 28.8223C14.5896 28.8575 14.7595 28.9044 14.8826 28.9219C15.4216 29.0098 15.1287 29.2911 21.6326 22.4239C24.9431 18.9376 27.7615 15.9376 27.908 15.7618C30.4861 12.6036 30.6853 8.15631 28.4002 4.77545C27.1111 2.87115 25.1834 1.59967 22.9627 1.19537C22.1424 1.04303 20.7771 1.0606 19.9802 1.22467C18.1638 1.60553 16.8631 2.33209 15.4861 3.73834L15.0056 4.23053L14.3728 3.59185C13.0779 2.30865 11.7127 1.56451 10.031 1.22467C9.38649 1.09576 8.12673 1.03717 7.53493 1.11334Z" fill="#A8A8A8"/>
</svg>
