<svg width="30" height="30" viewBox="0 0 30 30" fill="none" xmlns="http://www.w3.org/2000/svg">
<path d="M7.53493 1.11334C4.68727 1.47076 2.29079 3.19928 0.97829 5.83014C-0.638898 9.07037 -0.199445 12.9493 2.09157 15.7618C2.58376 16.3653 14.367 28.7579 14.5076 28.8223C14.5896 28.8575 14.7595 28.9044 14.8826 28.9219C15.4216 29.0098 15.1287 29.2911 21.6326 22.4239C24.9431 18.9376 27.7615 15.9376 27.908 15.7618C30.4861 12.6036 30.6853 8.15631 28.4002 4.77545C27.1111 2.87115 25.1834 1.59967 22.9627 1.19537C22.1424 1.04303 20.7771 1.0606 19.9802 1.22467C18.1638 1.60553 16.8631 2.33209 15.4861 3.73834L15.0056 4.23053L14.3728 3.59185C13.0779 2.30865 11.7127 1.56451 10.031 1.22467C9.38649 1.09576 8.12673 1.03717 7.53493 1.11334ZM9.96071 3.39849C10.5408 3.55084 11.3728 3.92584 11.9002 4.2774C12.1111 4.41803 12.7439 5.00396 13.3299 5.60162C14.408 6.69732 14.6189 6.85553 15.0115 6.85553C15.3982 6.84967 15.6502 6.66217 16.5525 5.71295C17.7771 4.42974 18.4334 3.95514 19.5584 3.55084C20.9705 3.04693 22.74 3.13482 24.1228 3.78521C25.3181 4.35357 26.4841 5.51373 27.1287 6.79693C28.4353 9.38092 28.0134 12.4981 26.0681 14.6192C25.8631 14.8419 23.2849 17.5665 20.3494 20.6661L14.9998 26.3087L9.68532 20.6954C3.33962 14.004 3.69704 14.3907 3.29274 13.7754C1.05446 10.3712 2.23806 5.62506 5.77126 3.85553C6.28102 3.59771 6.63259 3.47467 7.2654 3.33404C7.95095 3.1817 9.24001 3.21099 9.96071 3.39849Z" fill="#A8A8A8"/>
</svg>
