<svg width="20" height="20" viewBox="0 0 20 20" fill="none" xmlns="http://www.w3.org/2000/svg">
<path d="M9.66723 1.48682C9.60473 1.51807 8.99926 1.99072 8.32739 2.5415C7.65551 3.09229 7.09692 3.5415 7.08911 3.5415C7.07739 3.5415 7.06958 3.27979 7.06958 2.95947C7.06958 2.39307 7.06567 2.37744 6.97192 2.28369C6.91723 2.229 6.81958 2.17432 6.75317 2.15869C6.68286 2.14697 6.12036 2.13525 5.49926 2.13525C4.59692 2.13525 4.34301 2.14697 4.23364 2.19385C3.98364 2.29541 3.98364 2.31104 3.98364 4.31104L3.97973 6.1001L2.0188 7.70166C-0.121829 9.45166 -0.0827665 9.4126 0.0539523 9.69775C0.124265 9.854 0.311765 9.95166 0.475827 9.92041C0.534421 9.90869 1.03051 9.52979 1.60864 9.06104L2.63598 8.21729L2.65551 13.2876L2.67505 18.354L2.78442 18.4478L2.8938 18.5415H9.99926H17.1047L17.2141 18.4478L17.3235 18.354L17.343 13.2876L17.3625 8.21729L18.3899 9.06104C18.968 9.52979 19.4641 9.90869 19.5227 9.92041C19.7844 9.97119 20.0305 9.71729 19.9797 9.45166C19.9602 9.34229 19.8821 9.26025 19.5383 8.9751C16.7883 6.70557 10.4211 1.52588 10.3235 1.48682C10.1633 1.4165 9.81958 1.42041 9.66723 1.48682ZM10.304 2.46338C10.3821 2.51807 11.8196 3.68213 13.4954 5.05322L16.5422 7.54932L16.554 12.6548L16.5618 17.7603H9.99926H3.43676L3.44458 12.6548L3.4563 7.54932L6.50317 5.05322C8.17895 3.68213 9.61254 2.51807 9.68676 2.46729C9.87426 2.33838 10.1125 2.33838 10.304 2.46338ZM6.28442 3.58838V4.2251L6.0813 4.38525C5.96801 4.4751 5.63598 4.74072 5.34301 4.98291L4.80395 5.42041V4.18604V2.95557H5.54614H6.28833L6.28442 3.58838Z" fill="#4BADDB"/>
<path d="M6.59539 10.3125H7.41682L8.62631 13.7541L9.83581 10.3125H10.6572L8.95618 15H8.29645L6.59539 10.3125ZM6.15234 10.3125H6.97053L7.11929 13.6672V15H6.15234V10.3125ZM10.2821 10.3125H11.1035V15H10.1333V13.6672L10.2821 10.3125Z" fill="#4BADDB"/>
<path d="M13.8281 10.9572V11.4258H11.75V11.0259L12.7327 9.97413C12.8315 9.86444 12.9094 9.76794 12.9664 9.68463C13.0234 9.59993 13.0645 9.52426 13.0895 9.45761C13.1159 9.38958 13.1291 9.32501 13.1291 9.26392C13.1291 9.17228 13.1138 9.09383 13.0832 9.02857C13.0526 8.96193 13.0074 8.91055 12.9476 8.87445C12.8892 8.83835 12.8169 8.8203 12.7306 8.8203C12.6388 8.8203 12.5595 8.84252 12.4928 8.88695C12.4274 8.93138 12.3773 8.99317 12.3425 9.07231C12.3091 9.15146 12.2925 9.24101 12.2925 9.34098H11.6895C11.6895 9.16048 11.7326 8.99525 11.8188 8.8453C11.9051 8.69395 12.0268 8.57385 12.184 8.48499C12.3411 8.39473 12.5275 8.34961 12.7431 8.34961C12.956 8.34961 13.1354 8.38432 13.2815 8.45375C13.4289 8.52178 13.5402 8.62036 13.6153 8.74949C13.6918 8.87723 13.7301 9.02996 13.7301 9.20769C13.7301 9.30766 13.7141 9.40555 13.6821 9.50135C13.6501 9.59577 13.6042 9.69018 13.5444 9.7846C13.4859 9.87763 13.415 9.97205 13.3315 10.0679C13.2481 10.1637 13.1556 10.2629 13.054 10.3657L12.5261 10.9572H13.8281Z" fill="#4BADDB"/>
</svg>
