<svg width="13" height="10" viewBox="0 0 13 10" fill="none" xmlns="http://www.w3.org/2000/svg">
<path d="M0 9.99414V0H2.11914V9.99414H0Z" fill="#2EBDEE"/>
<path d="M12.9268 4.90137C12.9268 6.02702 12.7103 6.9681 12.2773 7.72461C11.849 8.47656 11.2269 9.04395 10.4111 9.42676C9.59538 9.80501 8.61328 9.99414 7.46484 9.99414H4.63477V0H7.77246C8.82064 0 9.72982 0.186849 10.5 0.560547C11.2702 0.929688 11.8672 1.47884 12.291 2.20801C12.7148 2.93262 12.9268 3.8304 12.9268 4.90137ZM10.7256 4.95605C10.7256 4.21777 10.6162 3.61165 10.3975 3.1377C10.1833 2.65918 9.86426 2.30599 9.44043 2.07812C9.02116 1.85026 8.50163 1.73633 7.88184 1.73633H6.75391V8.24414H7.66309C8.69759 8.24414 9.46549 7.96842 9.9668 7.41699C10.4727 6.86556 10.7256 6.04525 10.7256 4.95605Z" fill="#2EBDEE"/>
</svg>
