<svg width="20" height="20" viewBox="0 0 20 20" fill="none" xmlns="http://www.w3.org/2000/svg">
<path d="M9.21955 0.0429667C7.45783 0.242185 5.77033 1.14843 4.63752 2.49609C2.71174 4.78906 2.43049 8.02344 3.93049 10.5742C4.23908 11.0977 8.17267 16.3359 8.44221 16.582C9.01252 17.1016 9.81721 17.3008 10.5633 17.1094C10.9461 17.0117 11.282 16.832 11.5594 16.582C11.8289 16.3359 15.7625 11.0977 16.0711 10.5742C17.0828 8.85156 17.3016 6.76562 16.6766 4.82422C16.5281 4.36719 16.1258 3.55078 15.825 3.10547C14.3875 0.957028 11.7899 -0.246096 9.21955 0.0429667ZM11.1024 1.67968C11.8172 1.82812 12.4461 2.09765 13.0985 2.52734C13.4656 2.76953 14.2664 3.57031 14.5125 3.94531C14.9344 4.58203 15.2274 5.29297 15.3758 6.03515C15.4813 6.5664 15.4735 7.58594 15.3602 8.11328C15.2469 8.64453 15.075 9.11719 14.8328 9.58594C14.5672 10.0937 10.5945 15.4062 10.3875 15.5273C10.2039 15.6328 9.79767 15.6328 9.61408 15.5273C9.40705 15.4062 5.43439 10.0937 5.16877 9.58594C4.92658 9.11719 4.75861 8.64453 4.64142 8.11328C4.52033 7.54687 4.52033 6.52344 4.64142 5.94922C4.80158 5.20703 5.0672 4.57812 5.49689 3.9375C5.73517 3.58203 6.33283 2.95312 6.69611 2.67968C7.45783 2.10937 8.3758 1.73047 9.30549 1.60547C9.73517 1.54687 10.657 1.58593 11.1024 1.67968Z" fill="#606060"/>
<path d="M9.42217 4.76558C8.99639 4.87886 8.6917 5.05464 8.35967 5.39058C8.01982 5.72652 7.84795 6.0273 7.73467 6.4687C7.59404 7.01948 7.66435 7.61714 7.93779 8.13667C8.10185 8.45308 8.57842 8.92964 8.89482 9.0937C9.41435 9.36714 10.012 9.43745 10.5628 9.29683C11.0042 9.18355 11.305 9.01167 11.6409 8.67183C11.9808 8.33589 12.1526 8.03511 12.2659 7.5937C12.4065 7.04292 12.3362 6.44526 12.0628 5.92573C11.8987 5.60933 11.4222 5.13276 11.1058 4.9687C10.5901 4.69917 9.96904 4.62495 9.42217 4.76558ZM10.43 6.38276C10.6604 6.53511 10.762 6.73042 10.762 7.0312C10.762 7.33589 10.6604 7.5273 10.4183 7.68745C10.1995 7.83198 9.8206 7.8398 9.59795 7.69917C9.30107 7.51558 9.16435 7.1523 9.2542 6.80464C9.30889 6.60542 9.54717 6.34761 9.73467 6.29292C9.9417 6.23042 10.262 6.26948 10.43 6.38276Z" fill="#606060"/>
<path d="M6.60929 18.4805C6.4257 18.5352 6.18351 18.7891 6.12882 18.9922C6.03898 19.3398 6.1757 19.7031 6.47257 19.8867L6.62101 19.9805H10.0038H13.3827L13.5429 19.875C13.7851 19.7148 13.8866 19.5234 13.8866 19.2188C13.8866 18.9141 13.7851 18.7227 13.5429 18.5625L13.3827 18.457L10.0624 18.4492C8.03507 18.4453 6.68742 18.457 6.60929 18.4805Z" fill="#606060"/>
</svg>
