<svg width="24" height="24" viewBox="0 0 24 24" fill="none" xmlns="http://www.w3.org/2000/svg">
<path d="M11.4533 0.0555458C10.8435 0.22442 11.0124 0.0696182 5.60844 5.4642C2.80326 8.26938 0.443712 10.6571 0.368657 10.7697C-0.213019 11.6375 -0.0957459 12.8008 0.645423 13.5467C1.07699 13.9736 1.62583 14.1987 2.25441 14.1987H2.5734V17.9515C2.5734 20.4893 2.59216 21.7793 2.625 21.9482C2.80325 22.8019 3.49282 23.5759 4.34657 23.8714C4.65618 23.9793 4.67963 23.9793 6.94535 23.9793C9.17824 23.9793 9.22984 23.9793 9.3565 23.8808C9.42686 23.8292 9.53006 23.726 9.58166 23.6557C9.68017 23.529 9.68017 23.468 9.70363 20.3955L9.72708 17.2619L9.86781 17.0321C10.0461 16.7459 10.4073 16.5161 10.7544 16.4738C10.8857 16.4551 11.5425 16.4504 12.2133 16.4598L13.4329 16.4738L13.6815 16.6099C13.9161 16.7412 14.0662 16.896 14.2116 17.154C14.2632 17.2525 14.282 17.8295 14.3007 20.4002C14.3242 23.468 14.3242 23.529 14.4227 23.6557C14.4743 23.726 14.5775 23.8292 14.6479 23.8808C14.7745 23.9793 14.8261 23.9793 17.059 23.9793C19.3247 23.9793 19.3482 23.9793 19.6578 23.8714C20.5116 23.5759 21.2011 22.8019 21.3794 21.9482C21.4122 21.7793 21.431 20.4893 21.431 17.9515V14.1987H21.75C22.8758 14.1987 23.7858 13.4341 23.9735 12.3317C24.0438 11.9002 23.9735 11.4405 23.7718 11.0089C23.6357 10.7274 23.2276 10.3052 18.5273 5.60024C15.7268 2.79505 13.3344 0.435512 13.2124 0.355766C13.0905 0.27602 12.8794 0.168128 12.7434 0.116528C12.415 -0.0101278 11.7864 -0.038273 11.4533 0.0555458Z" fill="#96A3B0"/>
</svg>
