<svg width="20" height="20" viewBox="0 0 20 20" fill="none" xmlns="http://www.w3.org/2000/svg">
<path d="M3.52344 14.9971V5.00293H5.7793L9.23828 12.1123H9.36133C9.33854 11.8844 9.31348 11.611 9.28613 11.292C9.26335 10.9684 9.24284 10.6357 9.22461 10.2939C9.20638 9.95215 9.19727 9.63997 9.19727 9.35742V5.00293H11.0156V14.9971H8.77344L5.28711 7.83984H5.19141C5.21419 8.09505 5.23698 8.39811 5.25977 8.74902C5.28711 9.09538 5.3099 9.44173 5.32812 9.78809C5.34635 10.1344 5.35547 10.4375 5.35547 10.6973V14.9971H3.52344ZM11.9658 14.9971V13.7119H16.334V14.9971H11.9658ZM14.1396 13.124C13.693 13.124 13.2943 13.026 12.9434 12.8301C12.597 12.6341 12.3236 12.3493 12.123 11.9756C11.9271 11.6019 11.8291 11.153 11.8291 10.6289C11.8291 9.84049 12.0387 9.2321 12.458 8.80371C12.8773 8.37077 13.4469 8.1543 14.167 8.1543C14.6045 8.1543 14.9964 8.25228 15.3428 8.44824C15.6937 8.63965 15.9694 8.91992 16.1699 9.28906C16.375 9.65365 16.4775 10.1003 16.4775 10.6289C16.4775 11.4173 16.2656 12.0303 15.8418 12.4678C15.418 12.9053 14.8506 13.124 14.1396 13.124ZM14.1533 12.0029C14.4769 12.0029 14.7116 11.889 14.8574 11.6611C15.0033 11.4287 15.0762 11.0846 15.0762 10.6289C15.0762 10.1732 15.0033 9.83366 14.8574 9.61035C14.7116 9.38249 14.4769 9.26855 14.1533 9.26855C13.8206 9.26855 13.5791 9.38249 13.4287 9.61035C13.2829 9.83366 13.21 10.1732 13.21 10.6289C13.21 11.0846 13.2829 11.4287 13.4287 11.6611C13.5791 11.889 13.8206 12.0029 14.1533 12.0029Z" fill="#004BDD"/>
</svg>
