<svg width="31" height="30" viewBox="0 0 31 30" fill="none" xmlns="http://www.w3.org/2000/svg">
<path d="M15.2977 0.410872C14.9998 0.543556 14.7158 0.899705 14.6673 1.21396L14.6257 1.47234L13.829 1.62598C9.83154 2.40113 6.48532 5.44588 5.3907 9.30769C5.05123 10.5158 4.99581 11.0256 4.94731 13.6513L4.89881 16.1304L4.67019 16.7939C4.39307 17.6179 3.97739 18.3023 3.29845 19.0425C2.57794 19.8316 2.30082 20.4182 2.25232 21.2493C2.23847 21.5984 2.25925 22.0244 2.30082 22.2409C2.57101 23.4979 3.62406 24.5594 4.85725 24.8178C5.08587 24.8666 6.18742 24.8946 7.77393 24.8946H10.3234L10.4412 25.3275C10.8292 26.7452 11.9723 28.093 13.3579 28.7704C14.2724 29.2173 14.7227 29.322 15.748 29.322C16.7665 29.329 17.39 29.1754 18.2421 28.7285C19.5723 28.0371 20.6808 26.6963 21.0549 25.3275L21.1727 24.8946H23.7222C25.3087 24.8946 26.4102 24.8666 26.6388 24.8178C27.872 24.5594 28.9251 23.4979 29.1953 22.2409C29.2368 22.0244 29.2576 21.5984 29.2438 21.2493C29.1953 20.4462 28.9043 19.8107 28.2739 19.1263C27.5326 18.3232 27.2069 17.8344 26.916 17.0732C26.6042 16.2701 26.5557 15.879 26.5557 14.0005C26.5557 10.7253 26.2924 9.31467 25.3364 7.43614C24.7891 6.35372 24.221 5.57158 23.2996 4.63581C21.7061 3.02963 19.7316 1.97515 17.577 1.59804L16.8704 1.47932L16.8288 1.21396C16.7249 0.543553 15.9351 0.131537 15.2977 0.410872ZM16.9951 3.76289C20.2374 4.25871 23.0432 6.73781 23.9508 9.90127C24.2418 10.9208 24.2764 11.284 24.311 13.6164C24.3388 16.0047 24.4011 16.5774 24.7267 17.5481C25.0662 18.5886 25.6343 19.5313 26.4587 20.4322C27.013 21.0467 27.0753 21.1794 27.0199 21.6613C26.9852 22.0174 26.819 22.2758 26.4864 22.4993L26.2578 22.6599H15.748H5.23829L5.00273 22.4993C4.63555 22.2479 4.45542 21.9266 4.45542 21.5146C4.45542 21.1026 4.51085 20.9979 5.11358 20.3554C5.84795 19.5593 6.42297 18.5816 6.76937 17.5271C7.09499 16.5494 7.16427 15.9489 7.17119 13.9027C7.17812 11.7379 7.23355 11.0605 7.4691 10.1108C7.69079 9.23087 8.32124 7.93895 8.91705 7.14982C10.8222 4.61486 13.9537 3.30199 16.9951 3.76289ZM18.8656 24.9435C18.8656 25.1111 18.3738 25.8234 18.0274 26.1586C16.7595 27.4156 14.8197 27.4365 13.5103 26.2075C13.1708 25.8862 12.6305 25.118 12.6305 24.9504C12.6305 24.9225 14.0368 24.8946 15.748 24.8946C17.4662 24.8946 18.8656 24.9155 18.8656 24.9435Z" fill="#A8A8A8"/>
</svg>
