<svg width="25" height="25" viewBox="0 0 25 25" fill="none" xmlns="http://www.w3.org/2000/svg">
<g clip-path="url(#clip0_339_1145)">
<path d="M2.20703 0.0976524C1.6748 0.239254 1.29395 0.458981 0.878906 0.878902C0.454102 1.29882 0.239258 1.6748 0.0976563 2.22656C0 2.59765 0 2.80273 0 12.5C0 22.1973 0 22.4023 0.0976563 22.7734C0.239258 23.3252 0.454102 23.7012 0.878906 24.126C1.30371 24.5508 1.74805 24.7998 2.30957 24.9268C2.60254 24.9902 2.90039 25.0049 3.94043 24.9902L5.20996 24.9756L5.40527 24.8437C5.70801 24.6436 5.83496 24.4043 5.83496 24.0234C5.83496 23.6426 5.70801 23.4033 5.40527 23.2031L5.20996 23.0713L3.90625 23.0469L2.60254 23.0225L2.40723 22.8906C2.2998 22.8174 2.1582 22.6758 2.09473 22.5732L1.97754 22.3877V12.5V2.6123L2.09473 2.42675C2.1582 2.32421 2.2998 2.18261 2.40723 2.10937L2.60742 1.97754L7.16309 1.96289L11.7188 1.95312V3.5791C11.7188 5.40039 11.7529 5.65918 12.0703 6.26464C12.2754 6.66015 12.8711 7.25586 13.2666 7.46093C13.8721 7.77832 14.1309 7.8125 15.9473 7.8125H17.5732L17.5879 11.3916L17.6025 14.9707L17.7344 15.1709C17.9346 15.4785 18.1738 15.6006 18.5596 15.6006C18.8232 15.6006 18.9111 15.5762 19.0772 15.4687C19.1846 15.3955 19.3262 15.2539 19.3897 15.1514L19.5068 14.9658L19.5215 10.8496C19.5313 7.97851 19.5166 6.66992 19.4775 6.52832C19.4336 6.34765 19.0674 5.96679 16.3184 3.21777C13.6328 0.537106 13.1787 0.107418 13.0078 0.0585899C12.8613 0.0146446 11.4209 -3.8147e-06 7.68555 0.004879C2.80273 0.004879 2.54883 0.00976181 2.20703 0.0976524ZM15.3564 5.84961C14.8828 5.85449 14.4629 5.83984 14.3506 5.81054C14.1016 5.74218 13.7939 5.43457 13.7256 5.19043C13.6963 5.08789 13.6719 4.63379 13.6719 4.1748V3.34472L14.917 4.58984L16.1621 5.83496L15.3564 5.84961Z" fill="#606060"/>
<path d="M9.43297 7.86624C9.21325 7.92972 8.90563 8.25687 8.84215 8.48148C8.80797 8.59866 8.78844 9.35062 8.78844 10.4639V12.2657L8.53942 12.041C8.25622 11.7871 7.99254 11.6944 7.67028 11.7383C7.08434 11.8164 6.72301 12.3877 6.88415 12.9883C6.93297 13.1787 7.07946 13.3448 8.02672 14.2969C8.61754 14.8975 9.18395 15.4346 9.27672 15.4932C9.40856 15.5762 9.52086 15.6006 9.76501 15.6006C10.0091 15.6006 10.1215 15.5762 10.2533 15.4932C10.3461 15.4346 10.9125 14.8975 11.5033 14.2969C12.4506 13.3448 12.597 13.1787 12.6459 12.9883C12.807 12.3877 12.4457 11.8164 11.8597 11.7383C11.5423 11.6944 11.2738 11.7871 10.9906 12.041L10.7465 12.2608L10.7318 10.3662L10.7172 8.47171L10.6 8.28616C10.3705 7.91507 9.86266 7.73441 9.43297 7.86624Z" fill="#606060"/>
<path d="M8.06742 17.2412C7.84281 17.3096 7.5352 17.627 7.47172 17.8662C7.43754 17.9981 7.42289 19.0674 7.43266 21.2061L7.44731 24.3457L7.57914 24.5459C7.77934 24.8487 8.01859 24.9756 8.39945 24.9756C8.78031 24.9756 9.01957 24.8487 9.21977 24.5459L9.3516 24.3506L9.36625 23.208L9.3809 22.0703H9.98637C10.3184 22.0703 10.709 22.0459 10.8506 22.0166C11.9541 21.7871 12.794 20.752 12.794 19.6289C12.794 18.5059 11.9541 17.4707 10.8506 17.2412C10.5332 17.1778 8.29692 17.1778 8.06742 17.2412ZM10.5723 19.1992C10.7139 19.2627 10.8409 19.4678 10.8409 19.6289C10.8409 19.7901 10.7139 19.9951 10.5723 20.0586C10.4991 20.0928 10.2207 20.1172 9.91313 20.1172H9.37602V19.6289V19.1407H9.91313C10.2207 19.1407 10.4991 19.1651 10.5723 19.1992Z" fill="#606060"/>
<path d="M14.4151 17.2412C14.1905 17.3095 13.8829 17.6269 13.8194 17.8662C13.7852 17.998 13.7705 19.0673 13.7803 21.206L13.795 24.3456L13.9268 24.5458C14 24.6533 14.1416 24.7949 14.2442 24.8583C14.42 24.9706 14.4737 24.9755 15.4502 24.9902C16.627 25.0097 16.9639 24.956 17.545 24.6728C17.9893 24.4482 18.5606 23.8915 18.7901 23.4521C19.0928 22.871 19.1416 22.5537 19.1416 21.0937C19.1416 19.6337 19.0928 19.3163 18.7901 18.7353C18.585 18.3398 17.9893 17.7441 17.5938 17.539C17.0469 17.2509 16.6661 17.1874 15.5577 17.1923C15.0157 17.1923 14.503 17.2167 14.4151 17.2412ZM16.7198 19.2822C16.8223 19.3456 16.959 19.4872 17.0323 19.5947L17.1641 19.7949V21.0937V22.3925L17.0323 22.5927C16.8272 22.9052 16.6075 23.0126 16.1289 23.0371L15.7237 23.0615V21.0937V19.1259L16.1289 19.1503C16.4463 19.165 16.5782 19.1943 16.7198 19.2822Z" fill="#606060"/>
<path d="M20.7627 17.2412C20.5381 17.3096 20.2305 17.6319 20.167 17.8662C20.1329 17.9981 20.1182 19.0674 20.128 21.2061L20.1426 24.3457L20.2745 24.5459C20.4746 24.8487 20.7139 24.9756 21.0948 24.9756C21.4756 24.9756 21.7149 24.8487 21.9151 24.5459L22.0469 24.3506L22.0616 23.2129L22.0762 22.0801L22.7256 22.0606C23.3311 22.0459 23.3848 22.0362 23.5704 21.9141C23.8731 21.7139 24 21.4746 24 21.0938C24 20.7129 23.8731 20.4737 23.5704 20.2735C23.3848 20.1514 23.3311 20.1416 22.7207 20.127L22.0713 20.1075V19.6289V19.1455L23.209 19.1309L24.3516 19.1162L24.5469 18.9844C24.8496 18.7842 24.9766 18.545 24.9766 18.1641C24.9766 17.7832 24.8496 17.544 24.5469 17.3438L24.3516 17.2119L22.6377 17.2022C21.6416 17.1973 20.8555 17.2119 20.7627 17.2412Z" fill="#606060"/>
</g>
<defs>
<clipPath id="clip0_339_1145">
<rect width="25" height="25" fill="white"/>
</clipPath>
</defs>
</svg>
