<svg width="32" height="32" viewBox="0 0 32 32" fill="none" xmlns="http://www.w3.org/2000/svg">
<path d="M5.52152 0.0857315C4.74557 0.254689 4.60164 0.367329 2.58041 2.39482C0.815736 4.15324 0.678066 4.30968 0.471562 4.74772C0.127389 5.47361 0.0460387 5.86159 0.00849252 6.88785C-0.0290537 7.92037 0.0522964 8.60246 0.365181 9.79142C2.24875 16.944 10.6716 26.3556 18.7315 30.3104C21.122 31.4806 22.9304 31.9937 24.7076 32C25.7965 32 26.3471 31.8874 27.1043 31.5182C27.5924 31.2804 27.7176 31.1615 29.476 29.4093C31.4409 27.4444 31.5536 27.3005 31.8039 26.4682C31.9353 26.0302 31.9353 25.2041 31.8039 24.7661C31.5786 24.0152 31.4847 23.9025 29.0004 21.4057C27.6926 20.0853 26.4473 18.8839 26.2408 18.7337C25.0017 17.8513 23.406 17.9765 22.3673 19.034C22.0544 19.3532 21.9292 19.5409 21.7164 20.0478C21.5663 20.3857 21.3723 20.7674 21.2784 20.8926C20.6777 21.7061 19.5263 22.2192 18.5438 22.1191C17.0795 21.9627 14.8956 20.636 13.0433 18.7837C10.803 16.5435 9.48265 13.9653 9.80179 12.4635C9.95198 11.7626 10.4463 11.0304 11.0283 10.6425C11.166 10.5423 11.4663 10.3859 11.6916 10.292C12.3424 10.0167 12.4989 9.92284 12.8055 9.66001C13.8443 8.75265 14.0695 7.05055 13.3124 5.84282C13.0933 5.48613 8.77553 1.12451 8.24988 0.71776C7.83062 0.398617 7.27994 0.148309 6.78558 0.0607014C6.31625 -0.0269064 6.00337 -0.0206494 5.52152 0.0857315Z" fill="white"/>
</svg>
