<svg width="20" height="9" viewBox="0 0 20 9" fill="none" xmlns="http://www.w3.org/2000/svg">
<path d="M17.9199 3.10201V6.45701C17.9199 6.68434 17.9713 6.84934 18.0739 6.95201C18.1839 7.04734 18.3673 7.09501 18.6239 7.09501H19.3939V8.14001H18.4039C17.8393 8.14001 17.4066 8.00801 17.1059 7.74401C16.8053 7.48001 16.6549 7.05101 16.6549 6.45701V3.10201H15.9399V2.07901H16.6549V0.572006H17.9199V2.07901H19.3939V3.10201H17.9199Z" fill="black"/>
<path d="M12.0712 8.239C11.4992 8.239 10.9822 8.11066 10.5202 7.854C10.0582 7.59 9.69516 7.22333 9.43116 6.754C9.16716 6.27733 9.03516 5.72733 9.03516 5.104C9.03516 4.488 9.17082 3.94166 9.44216 3.465C9.71349 2.98833 10.0838 2.62166 10.5532 2.365C11.0225 2.10833 11.5468 1.98 12.1262 1.98C12.7055 1.98 13.2298 2.10833 13.6992 2.365C14.1685 2.62166 14.5388 2.98833 14.8102 3.465C15.0815 3.94166 15.2172 4.488 15.2172 5.104C15.2172 5.72 15.0778 6.26633 14.7992 6.743C14.5205 7.21966 14.1392 7.59 13.6552 7.854C13.1785 8.11066 12.6505 8.239 12.0712 8.239ZM12.0712 7.15C12.3938 7.15 12.6945 7.073 12.9732 6.919C13.2592 6.765 13.4902 6.534 13.6662 6.226C13.8422 5.918 13.9302 5.544 13.9302 5.104C13.9302 4.664 13.8458 4.29366 13.6772 3.993C13.5085 3.685 13.2848 3.454 13.0062 3.3C12.7275 3.146 12.4268 3.069 12.1042 3.069C11.7815 3.069 11.4808 3.146 11.2022 3.3C10.9308 3.454 10.7145 3.685 10.5532 3.993C10.3918 4.29366 10.3112 4.664 10.3112 5.104C10.3112 5.75666 10.4762 6.26266 10.8062 6.622C11.1435 6.974 11.5652 7.15 12.0712 7.15Z" fill="black"/>
<path d="M7.79599 0V8.14H6.54199V0H7.79599Z" fill="black"/>
<path d="M5.346 2.772C5.346 3.16066 5.25433 3.52733 5.071 3.872C4.88767 4.21666 4.59433 4.499 4.191 4.719C3.78767 4.93166 3.27067 5.038 2.64 5.038H1.254V8.14H0V0.494995H2.64C3.22667 0.494995 3.72167 0.597661 4.125 0.802995C4.53567 1.00099 4.84 1.27233 5.038 1.61699C5.24333 1.96166 5.346 2.34666 5.346 2.772ZM2.64 4.015C3.11667 4.015 3.47233 3.90866 3.707 3.696C3.94167 3.476 4.059 3.168 4.059 2.772C4.059 1.936 3.586 1.51799 2.64 1.51799H1.254V4.015H2.64Z" fill="black"/>
</svg>
