<svg width="12" height="12" viewBox="0 0 12 12" fill="none" xmlns="http://www.w3.org/2000/svg">
<path d="M11.0003 6.83334H6.83366V11C6.83366 11.4583 6.45866 11.8333 6.00033 11.8333C5.54199 11.8333 5.16699 11.4583 5.16699 11V6.83334H1.00033C0.541992 6.83334 0.166992 6.45834 0.166992 6.00001C0.166992 5.54167 0.541992 5.16667 1.00033 5.16667H5.16699V1.00001C5.16699 0.541672 5.54199 0.166672 6.00033 0.166672C6.45866 0.166672 6.83366 0.541672 6.83366 1.00001V5.16667H11.0003C11.4587 5.16667 11.8337 5.54167 11.8337 6.00001C11.8337 6.45834 11.4587 6.83334 11.0003 6.83334Z" fill="#1D1D1D"/>
</svg>
