<svg width="25" height="25" viewBox="0 0 25 25" fill="none" xmlns="http://www.w3.org/2000/svg">
<g clip-path="url(#clip0_339_1152)">
<path d="M7.25098 0.0830059C5.83496 0.38574 4.7168 1.51855 4.42383 2.93945C4.36035 3.23242 4.3457 3.63769 4.3457 4.80957V6.29883H3.83301C2.70508 6.29883 1.85059 6.63086 1.10352 7.36328C0.566406 7.89062 0.229492 8.50586 0.078125 9.23828C-0.0390625 9.80469 -0.0390625 15.9814 0.078125 16.543C0.224609 17.2461 0.532227 17.8223 1.04004 18.3545C1.78223 19.1162 2.68066 19.4824 3.83301 19.4824H4.3457V21.2402C4.3457 22.3633 4.36523 23.0859 4.39941 23.252C4.58008 24.0918 5.25391 24.7656 6.09375 24.9463C6.45508 25.0244 18.5352 25.0244 18.9062 24.9463C19.7363 24.7705 20.4248 24.0771 20.6006 23.252C20.6348 23.0908 20.6543 22.334 20.6543 21.2402V19.4824H21.167C21.7188 19.4824 22.2705 19.3896 22.6758 19.2334C23.5156 18.9014 24.3018 18.1445 24.6875 17.29C24.9805 16.6406 24.9707 16.7773 24.9854 13.0615C25 10.0635 24.9951 9.59961 24.9268 9.25781C24.7266 8.28613 24.1553 7.4414 23.3252 6.89941C22.6807 6.47949 22.0361 6.29883 21.167 6.29883H20.6543V4.80957C20.6543 3.63281 20.6396 3.2373 20.5762 2.93945C20.2783 1.49902 19.1553 0.375975 17.7148 0.0781231C17.168 -0.0341816 7.7832 -0.0341816 7.25098 0.0830059ZM17.4414 1.51855C18.2764 1.69433 18.9551 2.37304 19.1357 3.21289C19.1699 3.37402 19.1895 4.01367 19.1895 4.88281V6.29883H12.5H5.81055V4.88281C5.81055 4.0332 5.83008 3.36914 5.86426 3.21289C5.95215 2.78808 6.14746 2.4414 6.46484 2.12402C6.77734 1.81152 7.08496 1.63574 7.49512 1.5332C7.82715 1.45019 17.0508 1.43554 17.4414 1.51855ZM21.7871 7.81738C22.6221 7.99316 23.3008 8.67187 23.4814 9.51172C23.5547 9.86816 23.5547 15.9082 23.4814 16.2695C23.4033 16.6455 23.1201 17.1484 22.8516 17.4023C22.3926 17.832 21.8604 18.0176 21.0938 18.0176H20.6543V16.7969V15.5762H20.9473C21.4648 15.5762 21.8262 15.2783 21.8262 14.8437C21.8262 14.5996 21.6553 14.3213 21.4355 14.209C21.2451 14.1113 21.167 14.1113 12.5 14.1113C3.83301 14.1113 3.75488 14.1113 3.56445 14.209C3.34473 14.3213 3.17383 14.5996 3.17383 14.8437C3.17383 15.2783 3.53516 15.5762 4.05273 15.5762H4.3457V16.7969V18.0176H3.90625C3.0957 18.0176 2.59766 17.8369 2.12402 17.3584C1.80664 17.041 1.61133 16.6895 1.51855 16.2695C1.44531 15.9131 1.44531 9.87304 1.51855 9.51172C1.60645 9.08691 1.80176 8.74023 2.11914 8.42285C2.43164 8.11035 2.73926 7.93457 3.14941 7.83203C3.48145 7.74902 21.3916 7.73437 21.7871 7.81738ZM19.1895 19.2627C19.1895 22.8662 19.1895 22.959 19.0918 23.1445C19.0283 23.2715 18.9258 23.374 18.7988 23.4375C18.6084 23.5352 18.5254 23.5352 12.4951 23.5352H6.38672L6.19141 23.4277C6.07422 23.3594 5.95703 23.2422 5.90332 23.1348C5.81543 22.959 5.81055 22.7881 5.81055 19.2627V15.5762H12.5H19.1895V19.2627Z" fill="#606060"/>
<path d="M3.55469 9.52637C3.34473 9.63379 3.17383 9.92188 3.17383 10.1562C3.17383 10.4004 3.34473 10.6787 3.56445 10.791C3.74023 10.8838 3.84766 10.8887 5.07812 10.8887C6.30859 10.8887 6.41602 10.8838 6.5918 10.791C6.81152 10.6787 6.98242 10.4004 6.98242 10.1562C6.98242 9.91211 6.81152 9.63379 6.5918 9.52148C6.41113 9.42871 6.30859 9.42383 5.06836 9.42383C3.83789 9.42871 3.7207 9.43359 3.55469 9.52637Z" fill="#606060"/>
<path d="M10.1953 17.3389C9.98535 17.4463 9.81445 17.7344 9.81445 17.9688C9.81445 18.2129 9.98535 18.4912 10.2051 18.6035C10.3857 18.6963 10.4883 18.7012 12.5 18.7012C14.5117 18.7012 14.6143 18.6963 14.7949 18.6035C15.0146 18.4912 15.1855 18.2129 15.1855 17.9688C15.1855 17.7246 15.0146 17.4463 14.7949 17.334C14.6094 17.2412 14.5117 17.2363 12.4902 17.2363C10.4834 17.2412 10.3662 17.2461 10.1953 17.3389Z" fill="#606060"/>
<path d="M10.1953 20.4639C9.98535 20.5713 9.81445 20.8594 9.81445 21.0938C9.81445 21.3379 9.98535 21.6162 10.2051 21.7285C10.3857 21.8213 10.4883 21.8262 12.5 21.8262C14.5117 21.8262 14.6143 21.8213 14.7949 21.7285C15.0146 21.6162 15.1855 21.3379 15.1855 21.0938C15.1855 20.8496 15.0146 20.5713 14.7949 20.459C14.6094 20.3662 14.5117 20.3613 12.4902 20.3613C10.4834 20.3662 10.3662 20.3711 10.1953 20.4639Z" fill="#606060"/>
</g>
<defs>
<clipPath id="clip0_339_1152">
<rect width="25" height="25" fill="white"/>
</clipPath>
</defs>
</svg>
