<svg width="18" height="18" viewBox="0 0 18 18" fill="none" xmlns="http://www.w3.org/2000/svg">
<path d="M8.99935 0.666672C4.39935 0.666672 0.666016 4.40001 0.666016 9.00001C0.666016 13.6 4.39935 17.3333 8.99935 17.3333C13.5993 17.3333 17.3327 13.6 17.3327 9.00001C17.3327 4.40001 13.5993 0.666672 8.99935 0.666672ZM8.99935 15.6667C5.32435 15.6667 2.33268 12.675 2.33268 9.00001C2.33268 5.32501 5.32435 2.33334 8.99935 2.33334C12.6743 2.33334 15.666 5.32501 15.666 9.00001C15.666 12.675 12.6743 15.6667 8.99935 15.6667ZM8.16602 12.3333H9.83268V14H8.16602V12.3333ZM9.50768 4.03334C7.79102 3.78334 6.27435 4.84167 5.81602 6.35834C5.66602 6.84167 6.03268 7.33334 6.54102 7.33334H6.70768C7.04935 7.33334 7.32435 7.09167 7.44102 6.77501C7.70768 6.03334 8.49935 5.52501 9.35768 5.70834C10.1493 5.87501 10.7327 6.65 10.666 7.45834C10.5827 8.57501 9.31602 8.81667 8.62435 9.85834C8.62435 9.86667 8.61602 9.86667 8.61602 9.87501C8.60768 9.89167 8.59935 9.90001 8.59102 9.91667C8.51602 10.0417 8.44102 10.1833 8.38268 10.3333C8.37435 10.3583 8.35768 10.375 8.34935 10.4C8.34102 10.4167 8.34102 10.4333 8.33268 10.4583C8.23268 10.7417 8.16602 11.0833 8.16602 11.5H9.83268C9.83268 11.15 9.92435 10.8583 10.066 10.6083C10.0827 10.5833 10.091 10.5583 10.1077 10.5333C10.1743 10.4167 10.2577 10.3083 10.341 10.2083C10.3493 10.2 10.3577 10.1833 10.366 10.175C10.4493 10.075 10.541 9.98334 10.641 9.89167C11.441 9.13334 12.5243 8.51667 12.2993 6.92501C12.0993 5.47501 10.9577 4.25001 9.50768 4.03334Z" fill="#A5A6A9"/>
</svg>
