<svg width="25" height="25" viewBox="0 0 25 25" fill="none" xmlns="http://www.w3.org/2000/svg">
<path d="M11.5234 3.56935C9.97068 3.74513 8.5156 4.30665 7.20212 5.23439C6.96287 5.40528 6.48435 5.81544 6.14255 6.14747L5.51755 6.75294V6.00587C5.51755 5.10743 5.45408 4.917 5.08787 4.68263C4.56541 4.3506 3.93552 4.51173 3.64744 5.04396C3.54002 5.24415 3.54002 5.28321 3.52537 7.34376C3.51072 9.68751 3.52537 9.83888 3.78904 10.1465C4.09666 10.5078 4.08201 10.5029 6.62595 10.4883L8.87693 10.4736L9.08689 10.3272C9.68259 9.90724 9.66794 9.04298 9.05759 8.667L8.82322 8.52052L7.7783 8.4961L6.73337 8.47169L6.99705 8.15431C8.10545 6.8213 9.53123 5.96681 11.2158 5.62989C11.8213 5.51271 13.1885 5.51271 13.789 5.62989C15 5.87403 16.0644 6.3672 16.9775 7.09962C18.2324 8.11524 19.165 9.65333 19.458 11.1963C19.5752 11.8213 19.624 11.9531 19.79 12.1436C20.1123 12.5098 20.5615 12.5928 21.001 12.3633C21.2109 12.2559 21.289 12.1777 21.4013 11.9629C21.5283 11.7188 21.5381 11.665 21.5136 11.3623C21.4941 11.1768 21.4306 10.8057 21.3672 10.5322C20.5615 7.13868 17.8857 4.49708 14.497 3.74024C13.54 3.53028 12.4463 3.46681 11.5234 3.56935Z" fill="#606060"/>
<path d="M4.17555 12.5684C4.06813 12.6074 3.89723 12.7295 3.79957 12.8418C3.55055 13.1201 3.50172 13.3789 3.59449 13.916C3.92164 15.8203 4.79078 17.4853 6.16285 18.833C7.10524 19.7607 7.99879 20.3516 9.15602 20.8154C10.9187 21.5137 12.7205 21.665 14.5466 21.2598C16.2996 20.8691 18.0427 19.873 19.2146 18.5889L19.532 18.2422V18.9209C19.532 19.7021 19.5759 19.9023 19.7859 20.1465C20.1619 20.5713 20.7576 20.6152 21.1775 20.249C21.5339 19.9316 21.5339 19.9658 21.5339 17.5V15.293L21.3972 15.0342C21.2898 14.8242 21.2117 14.7461 21.0017 14.6387L20.7429 14.502H18.5359C16.0701 14.502 16.1043 14.502 15.7869 14.8584C15.4548 15.2393 15.4548 15.7666 15.7869 16.1475C16.0701 16.4697 16.2068 16.5039 17.325 16.5039C17.867 16.5039 18.3113 16.5186 18.3113 16.5332C18.3113 16.5967 17.7107 17.2852 17.4275 17.5537C16.4119 18.4912 15.2351 19.0869 13.8386 19.3701C13.1843 19.502 11.8172 19.4873 11.1482 19.3457C8.25758 18.7207 6.15309 16.5625 5.57203 13.6279C5.45484 13.0566 5.34742 12.8418 5.07887 12.666C4.84449 12.5098 4.44899 12.4707 4.17555 12.5684Z" fill="#606060"/>
</svg>
