<svg width="16" height="16" viewBox="0 0 16 16" fill="none" xmlns="http://www.w3.org/2000/svg">
<path d="M14.5305 13.4653L11.9805 10.9228C12.8033 9.87466 13.2497 8.58031 13.248 7.24782C13.248 6.06113 12.8962 4.90109 12.2369 3.9144C11.5776 2.9277 10.6405 2.15867 9.54415 1.70454C8.44779 1.25042 7.24139 1.1316 6.07751 1.36311C4.91362 1.59462 3.84452 2.16607 3.00541 3.00518C2.16629 3.8443 1.59485 4.91339 1.36334 6.07728C1.13183 7.24117 1.25065 8.44756 1.70477 9.54392C2.1589 10.6403 2.92793 11.5773 3.91463 12.2366C4.90132 12.8959 6.06136 13.2478 7.24805 13.2478C8.58054 13.2495 9.87489 12.8031 10.923 11.9803L13.4656 14.5303C13.5353 14.6006 13.6182 14.6564 13.7096 14.6945C13.801 14.7326 13.899 14.7522 13.998 14.7522C14.0971 14.7522 14.1951 14.7326 14.2865 14.6945C14.3779 14.6564 14.4608 14.6006 14.5305 14.5303C14.6008 14.4606 14.6566 14.3776 14.6947 14.2863C14.7328 14.1949 14.7524 14.0968 14.7524 13.9978C14.7524 13.8988 14.7328 13.8008 14.6947 13.7094C14.6566 13.618 14.6008 13.535 14.5305 13.4653V13.4653ZM2.74805 7.24782C2.74805 6.3578 3.01197 5.48778 3.50644 4.74776C4.0009 4.00773 4.70371 3.43096 5.52597 3.09036C6.34824 2.74977 7.25304 2.66065 8.12596 2.83429C8.99887 3.00792 9.80069 3.4365 10.43 4.06584C11.0594 4.69518 11.488 5.497 11.6616 6.36991C11.8352 7.24283 11.7461 8.14763 11.4055 8.9699C11.0649 9.79216 10.4881 10.495 9.74812 10.9894C9.00809 11.4839 8.13807 11.7478 7.24805 11.7478C6.05458 11.7478 4.90998 11.2737 4.06607 10.4298C3.22216 9.58589 2.74805 8.4413 2.74805 7.24782Z" fill="black"/>
</svg>
