<svg width="15" height="15" viewBox="0 0 15 15" fill="none" xmlns="http://www.w3.org/2000/svg">
<path fill-rule="evenodd" clip-rule="evenodd" d="M1.03117 6.45739C5.05768 4.34055 7.74266 2.945 9.08607 2.27073C12.9219 0.34558 13.7189 0.0111605 14.2384 0.00011774C14.3526 -0.00231099 14.6081 0.031858 14.7736 0.193889C14.9134 0.330707 14.9518 0.515526 14.9702 0.645243C14.9886 0.77496 15.0116 1.07046 14.9933 1.30135C14.7855 3.93675 13.8861 10.3321 13.4285 13.2838C13.2348 14.5328 12.8536 14.9516 12.4846 14.9926C11.6824 15.0816 11.0733 14.3529 10.2965 13.7384C9.08082 12.7769 8.39407 12.1783 7.21408 11.24C5.85039 10.1556 6.73441 9.55965 7.51157 8.58556C7.71496 8.33073 11.249 4.45188 11.3174 4.10001C11.326 4.056 11.3339 3.89196 11.2531 3.80534C11.1724 3.71872 11.0532 3.74835 10.9671 3.7719C10.8452 3.80529 8.90324 5.35417 5.14114 8.41856C4.58991 8.87531 4.09062 9.09781 3.64327 9.08615C3.1501 9.07331 2.20145 8.74965 1.49623 8.47307C0.631244 8.13378 -0.0562297 7.95441 0.00363389 7.3782C0.0348145 7.07808 0.377327 6.77114 1.03117 6.45739Z" fill="#EA9B44"/>
</svg>
