<svg width="25" height="25" viewBox="0 0 25 25" fill="none" xmlns="http://www.w3.org/2000/svg">
<path d="M17.7236 0.0697708C16.9033 0.221138 16.2197 0.592232 15.5947 1.21235C15.1113 1.69575 14.7793 2.21821 14.5986 2.7895C14.3105 3.70258 14.3105 4.27387 14.6084 5.49457C14.6279 5.57758 14.1982 5.86078 11.3223 7.64301C9.50586 8.76606 7.99707 9.69379 7.97754 9.70356C7.95801 9.71332 7.76758 9.57661 7.55762 9.40082C7.1084 9.01997 6.4541 8.67817 5.90723 8.53168C5.38477 8.39496 4.45215 8.3852 3.9541 8.51215C2.71875 8.83442 1.6543 9.70844 1.16602 10.8168C0.912109 11.3979 0.833984 11.7885 0.833984 12.4965C0.833984 13.2045 0.912109 13.5952 1.16602 14.1762C1.64941 15.2602 2.69434 16.1391 3.88574 16.4565C4.44727 16.6079 5.34082 16.6079 5.90723 16.4614C6.4541 16.3149 7.1084 15.9731 7.55762 15.5922C7.76758 15.4164 7.95801 15.2797 7.97754 15.2895C7.99707 15.2993 9.50586 16.227 11.3223 17.35C14.1982 19.1323 14.6279 19.4155 14.6084 19.4985C14.3105 20.7241 14.3105 21.3247 14.6035 22.2133C14.8037 22.809 15.0869 23.2631 15.5752 23.7563C16.2344 24.4252 16.9521 24.8012 17.8555 24.9477C19.9014 25.2797 21.9082 23.9418 22.4404 21.8959C22.665 21.0366 22.5478 19.933 22.1426 19.1127C21.4395 17.687 20.0283 16.8227 18.4316 16.8325C17.377 16.8373 16.4834 17.1889 15.6924 17.9067L15.4287 18.1459L13.6221 17.0229C12.6309 16.4077 11.1221 15.475 10.2773 14.9526C9.43262 14.4252 8.73437 13.9956 8.72949 13.9907C8.72461 13.9858 8.75879 13.8442 8.8125 13.6733C9.03223 12.936 9.03223 12.0571 8.8125 11.3198C8.75879 11.1489 8.72461 11.0073 8.72949 11.0024C8.73437 10.9975 9.43262 10.5678 10.2773 10.0405C11.1221 9.51801 12.6309 8.58539 13.6221 7.97016L15.4287 6.84711L15.7314 7.12055C16.9766 8.23383 18.7734 8.48774 20.2627 7.7602C21.3369 7.23285 22.1621 6.20746 22.4404 5.05024C22.5869 4.45942 22.5869 3.64887 22.4404 3.09711C21.8936 0.997505 19.833 -0.325737 17.7236 0.0697708ZM19.1689 1.58833C20.5068 1.98383 21.3125 3.33637 20.9951 4.67426C20.8828 5.14301 20.6533 5.54828 20.292 5.90961C19.7402 6.46137 19.0615 6.72016 18.3096 6.67133C17.6309 6.6225 17.0937 6.37836 16.625 5.89985C15.5996 4.85981 15.6533 3.14106 16.7373 2.1645C17.0156 1.91547 17.3428 1.73481 17.748 1.60297C18.0996 1.49067 18.8076 1.4809 19.1689 1.58833ZM5.75098 10.0454C6.49805 10.3139 7.09375 10.9145 7.35254 11.6664C7.51367 12.1157 7.51367 12.8774 7.35254 13.3266C7.08887 14.0737 6.49316 14.684 5.76074 14.9428C5.35059 15.0893 4.68652 15.1186 4.27148 15.0112C3.10449 14.7084 2.31836 13.6977 2.31836 12.5014C2.31836 11.3198 3.05566 10.3383 4.19824 9.99653C4.59863 9.87934 5.35059 9.90375 5.75098 10.0454ZM19.0566 18.3803C19.999 18.6049 20.7705 19.3715 20.9951 20.3139C21.3125 21.6567 20.5117 23.0092 19.1689 23.4047C18.8223 23.5073 18.1387 23.5073 17.792 23.4047C16.8887 23.1362 16.2393 22.4868 15.9707 21.5834C15.873 21.2465 15.8682 20.6118 15.9658 20.2358C16.2148 19.2836 17.0693 18.5024 18.041 18.3413C18.3145 18.2973 18.7686 18.312 19.0566 18.3803Z" fill="#606060"/>
</svg>
