<svg width="55" height="53" viewBox="0 0 55 53" fill="none" xmlns="http://www.w3.org/2000/svg">
<path fill-rule="evenodd" clip-rule="evenodd" d="M29.2953 1.3044C28.7303 -0.434795 26.2698 -0.4348 25.7047 1.30439L20.5069 17.3014C20.2542 18.0792 19.5294 18.6058 18.7116 18.6058L1.89136 18.6058C0.0626646 18.6058 -0.697675 20.9458 0.781769 22.0207L14.3896 31.9074C15.0512 32.3881 15.3281 33.2402 15.0754 34.0179L9.87766 50.0149C9.31256 51.7541 11.3031 53.2004 12.7826 52.1255L26.3904 42.2388C27.0521 41.7581 27.948 41.7581 28.6096 42.2388L42.2174 52.1255C43.6969 53.2004 45.6875 51.7541 45.1224 50.0149L39.9246 34.0179C39.6719 33.2402 39.9488 32.3881 40.6104 31.9074L54.2182 22.0207C55.6977 20.9458 54.9373 18.6058 53.1086 18.6058L36.2884 18.6058C35.4706 18.6058 34.7458 18.0792 34.4931 17.3014L29.2953 1.3044Z" fill="#2EBDEE"/>
</svg>
