<svg width="31" height="28" viewBox="0 0 31 28" fill="none" xmlns="http://www.w3.org/2000/svg">
<path fill-rule="evenodd" clip-rule="evenodd" d="M15.4701 4.3319L13.6677 9.87901C13.2661 11.1151 12.1142 11.952 10.8145 11.952L4.98195 11.952L9.70061 15.3803C10.7521 16.1442 11.192 17.4983 10.7904 18.7344L8.98805 24.2815L13.7067 20.8532C14.7582 20.0893 16.182 20.0892 17.2334 20.8532L21.9521 24.2815L20.1497 18.7344C19.7481 17.4983 20.1881 16.1442 21.2395 15.3803L25.9582 11.952L20.1256 11.952C18.8259 11.952 17.6741 11.1151 17.2724 9.87901L15.4701 4.3319ZM16.4211 0.78681C16.1218 -0.134501 14.8184 -0.134504 14.519 0.786807L11.7656 9.26098C11.6317 9.673 11.2478 9.95196 10.8145 9.95196L1.90426 9.95196C0.935539 9.95196 0.532761 11.1916 1.31647 11.761L8.52504 16.9983C8.87552 17.2529 9.02218 17.7043 8.88831 18.1163L6.13488 26.5905C5.83553 27.5118 6.89001 28.2779 7.67372 27.7085L14.8823 22.4712C15.2328 22.2166 15.7074 22.2166 16.0579 22.4712L23.2664 27.7085C24.0501 28.2779 25.1046 27.5118 24.8053 26.5905L22.0518 18.1163C21.918 17.7043 22.0646 17.2529 22.4151 16.9983L29.6237 11.761C30.4074 11.1916 30.0046 9.95196 29.0359 9.95196L20.1256 9.95196C19.6924 9.95196 19.3084 9.673 19.1745 9.26098L16.4211 0.78681Z" fill="#A8A8A8"/>
</svg>
