<svg width="32" height="33" viewBox="0 0 32 33" fill="none" xmlns="http://www.w3.org/2000/svg">
<path d="M5.53841 0.0860176C4.76009 0.255492 4.61572 0.368474 2.5883 2.40217C0.818231 4.16596 0.68014 4.32288 0.473005 4.76226C0.127778 5.49038 0.0461795 5.87954 0.0085185 6.90894C-0.0291425 7.94462 0.0524564 8.6288 0.366298 9.8214C2.25563 16.9958 10.7043 26.4362 18.7888 30.4032C21.1866 31.5769 23.0006 32.0916 24.7832 32.0979C25.8754 32.0979 26.4277 31.9849 27.1872 31.6146C27.6768 31.3761 27.8024 31.2568 29.5662 29.4993C31.5371 27.5284 31.6501 27.384 31.9011 26.5492C32.033 26.1098 32.033 25.2813 31.9011 24.8419C31.6752 24.0887 31.581 23.9757 29.0891 21.4712C27.7773 20.1468 26.5282 18.9416 26.321 18.791C25.0782 17.906 23.4776 18.0315 22.4357 19.0923C22.1218 19.4124 21.9963 19.6007 21.7829 20.1091C21.6322 20.4481 21.4377 20.831 21.3435 20.9565C20.7409 21.7725 19.586 22.2872 18.6005 22.1868C17.1317 22.0298 14.9411 20.6992 13.0832 18.8412C10.8361 16.5941 9.51165 14.008 9.83177 12.5016C9.98242 11.7986 10.4783 11.0642 11.062 10.675C11.2001 10.5746 11.5014 10.4177 11.7274 10.3235C12.3802 10.0474 12.5371 9.95321 12.8447 9.68958C13.8866 8.77944 14.1126 7.07214 13.3531 5.86071C13.1334 5.50293 8.80237 1.12797 8.27512 0.719978C7.85457 0.399859 7.30221 0.148785 6.80634 0.0609093C6.33557 -0.0269665 6.02173 -0.0206887 5.53841 0.0860176Z" fill="black"/>
</svg>
