<svg width="18" height="19" viewBox="0 0 18 19" fill="none" xmlns="http://www.w3.org/2000/svg">
<path fill-rule="evenodd" clip-rule="evenodd" d="M1.23741 7.75279C6.06923 5.21257 9.29121 3.53791 10.9033 2.72879C15.5063 0.418603 16.4627 0.0172989 17.0861 0.00404754C17.2232 0.00113306 17.5298 0.0421359 17.7284 0.236574C17.8961 0.400755 17.9422 0.622538 17.9643 0.778199C17.9864 0.93386 18.0139 1.28846 17.992 1.56553C17.7426 4.72801 16.6633 12.4025 16.1142 15.9445C15.8818 17.4433 15.4244 17.9458 14.9815 17.995C14.0189 18.1019 13.288 17.2274 12.3558 16.49C10.897 15.3362 10.0729 14.6179 8.65691 13.4919C7.02048 12.1907 8.08131 11.4755 9.0139 10.3066C9.25797 10.0008 13.4988 5.34617 13.5809 4.92392C13.5912 4.87111 13.6007 4.67427 13.5038 4.57032C13.4069 4.46638 13.2639 4.50193 13.1606 4.53019C13.0143 4.57026 10.6839 6.42892 6.16938 10.1062C5.5079 10.6543 4.90875 10.9213 4.37193 10.9073C3.78013 10.8919 2.64175 10.5035 1.79548 10.1716C0.757494 9.76446 -0.0674757 9.54921 0.00436067 8.85776C0.0417775 8.49761 0.452793 8.12929 1.23741 7.75279Z" fill="#EEC13B"/>
</svg>
