<svg width="20" height="20" viewBox="0 0 20 20" fill="none" xmlns="http://www.w3.org/2000/svg">
<g clip-path="url(#clip0_233_1995)">
<path d="M3.63281 4.24999C3.42578 4.35546 3.34766 4.52733 3.32812 4.92577L3.3125 5.26952L1.99609 5.28124C0.792969 5.29296 0.671875 5.30077 0.53125 5.36718C0.222656 5.52343 0 5.86718 0 6.19139C0 6.51561 0.222656 6.85936 0.53125 7.01561C0.671875 7.08202 0.796875 7.08983 2.00391 7.10155L3.32031 7.11327V7.54296V7.96874H2.45312C1.61719 7.96874 1.57422 7.97264 1.38672 8.06249C1.03516 8.22655 0.855469 8.5078 0.855469 8.88671C0.855469 9.24608 1.03516 9.53514 1.35938 9.6953C1.53125 9.78124 1.59375 9.78514 2.43359 9.79686L3.32031 9.81249V10.2383V10.6641H2.86328C2.21094 10.668 1.96484 10.7851 1.77344 11.1914C1.61719 11.5234 1.66406 11.8711 1.91016 12.1523C2.125 12.4062 2.28125 12.4609 2.83984 12.4609H3.3125L3.32812 12.9961C3.33984 13.6055 3.39062 13.7422 3.63281 13.8867C3.75 13.9531 3.85156 13.9648 4.34375 13.9766L4.91406 13.9922L4.94141 14.1328C5.07812 14.8711 5.76172 15.5703 6.52734 15.7578C7.28516 15.9453 8.02734 15.7344 8.57422 15.1797C8.875 14.875 9.04297 14.5937 9.14453 14.2383L9.20703 14.0039L11.2422 13.9922L13.2734 13.9844L13.3164 14.1758C13.3398 14.2812 13.4023 14.4609 13.457 14.5781C13.9844 15.6875 15.3125 16.1367 16.4219 15.5781C16.9102 15.332 17.4023 14.7109 17.5156 14.1992L17.5586 14.0039L18.3789 13.9844C19.1797 13.9648 19.2031 13.9609 19.4219 13.8555C19.5469 13.793 19.6992 13.6797 19.7656 13.6016C19.9805 13.3398 20 13.2148 20 12.0937C20 11.5312 19.9805 10.9531 19.9609 10.8086C19.8906 10.332 19.6133 9.92577 19.2617 9.77343C19.1836 9.74218 18.9023 9.66014 18.6328 9.58983C17.6602 9.33593 17.6992 9.37108 17.0898 8.16796C16.543 7.08202 16.4297 6.93749 15.957 6.71483C15.6211 6.55468 15.3906 6.52343 14.625 6.52343H13.9453V5.59374C13.9453 4.70702 13.9414 4.65624 13.8594 4.49218C13.6875 4.15233 14.1328 4.17968 8.63281 4.17968C4.08203 4.17968 3.76172 4.18358 3.63281 4.24999ZM15.4375 7.48827C15.8086 7.65624 15.9531 7.83983 16.3711 8.67968C16.582 9.10546 16.7578 9.46093 16.7578 9.47264C16.7578 9.48436 16.125 9.49218 15.3516 9.49218H13.9453V8.43358V7.37499L14.6016 7.39061C15.168 7.40233 15.2773 7.41405 15.4375 7.48827ZM7.28906 12.9101C7.50781 12.9726 7.69922 13.1484 7.78906 13.3672C8.02734 13.9336 7.49609 14.5547 6.89844 14.418C6.51562 14.3281 6.27734 14.0312 6.28125 13.6445C6.28516 13.2969 6.47656 13.0312 6.82031 12.9101C7.01562 12.8398 7.05469 12.8398 7.28906 12.9101ZM15.6484 12.9101C15.9688 13.0039 16.2109 13.3281 16.2109 13.6601C16.207 14.1094 15.7422 14.5117 15.3164 14.4336C14.8906 14.3555 14.6445 14.0625 14.6445 13.6445C14.6445 13.2812 14.8867 12.9726 15.2461 12.8906C15.4297 12.8476 15.4375 12.8476 15.6484 12.9101Z" fill="#004BDD"/>
</g>
<defs>
<clipPath id="clip0_233_1995">
<rect width="20" height="20" fill="white"/>
</clipPath>
</defs>
</svg>
