<svg width="18" height="16" viewBox="0 0 18 16" fill="none" xmlns="http://www.w3.org/2000/svg">
<path d="M5.66262 15.3165C12.4534 15.3165 16.1687 9.689 16.1687 4.81036C16.1687 4.65216 16.1652 4.49044 16.1582 4.33224C16.8809 3.80956 17.5046 3.16216 18 2.42044C17.3269 2.71992 16.6122 2.9155 15.8804 3.00052C16.651 2.53865 17.2279 1.81307 17.5043 0.958292C16.7794 1.38789 15.9867 1.69093 15.1601 1.85443C14.6031 1.26264 13.8667 0.870805 13.0648 0.739506C12.2628 0.608207 11.4399 0.744755 10.7233 1.12804C10.0067 1.51132 9.43635 2.12 9.10039 2.85995C8.76442 3.59991 8.68157 4.42993 8.86465 5.22169C7.39687 5.14804 5.96095 4.76675 4.64999 4.10254C3.33902 3.43834 2.18227 2.50604 1.25473 1.3661C0.7833 2.1789 0.639042 3.1407 0.851273 4.05604C1.0635 4.97137 1.6163 5.77155 2.3973 6.29396C1.81097 6.27534 1.23748 6.11748 0.724219 5.83341V5.87911C0.723693 6.73208 1.01857 7.55891 1.55873 8.21904C2.09889 8.87918 2.85099 9.33189 3.68719 9.50021C3.14404 9.64881 2.57399 9.67047 2.02113 9.56349C2.25709 10.297 2.71618 10.9386 3.33433 11.3987C3.95248 11.8588 4.69884 12.1144 5.46926 12.1299C4.16132 13.1573 2.54563 13.7146 0.882422 13.7119C0.587465 13.7115 0.292799 13.6934 0 13.6578C1.68964 14.7418 3.65515 15.3175 5.66262 15.3165Z" fill="#F5C946"/>
</svg>
