<svg width="16" height="17" viewBox="0 0 16 17" fill="none" xmlns="http://www.w3.org/2000/svg">
<path d="M13.6498 3.34999C12.0198 1.71999 9.70978 0.779992 7.16978 1.03999C3.49978 1.40999 0.479777 4.38999 0.0697772 8.05999C-0.480223 12.91 3.26978 17 7.99978 17C11.1898 17 13.9298 15.13 15.2098 12.44C15.5298 11.77 15.0498 11 14.3098 11C13.9398 11 13.5898 11.2 13.4298 11.53C12.2998 13.96 9.58978 15.5 6.62978 14.84C4.40978 14.35 2.61978 12.54 2.14978 10.32C1.30978 6.43999 4.25978 2.99999 7.99978 2.99999C9.65978 2.99999 11.1398 3.68999 12.2198 4.77999L10.7098 6.28999C10.0798 6.91999 10.5198 7.99999 11.4098 7.99999H14.9998C15.5498 7.99999 15.9998 7.54999 15.9998 6.99999V3.40999C15.9998 2.51999 14.9198 2.06999 14.2898 2.69999L13.6498 3.34999Z" fill="#6F7373"/>
</svg>
