<svg width="24" height="24" viewBox="0 0 24 24" fill="none" xmlns="http://www.w3.org/2000/svg">
<g clip-path="url(#clip0_86_1637)">
<path d="M11.3908 0.0281248C9.90016 0.220312 8.70485 0.782813 7.6736 1.77656C5.39078 3.975 5.14703 7.54219 7.10641 10.0594C8.9861 12.4781 12.4267 13.1625 15.0705 11.6391C17.4048 10.2937 18.6095 7.67812 18.1127 5.04844C17.6486 2.61563 15.6892 0.6375 13.2517 0.135938C12.7877 0.0421877 11.7611 -0.0187502 11.3908 0.0281248Z" fill="#96A3B0"/>
<path d="M6.98438 12.9844C4.90781 13.35 3.00469 14.6391 1.81875 16.4812C1.57031 16.8703 1.26562 17.5312 1.26562 17.6859C1.26562 17.9953 2.15625 19.2516 3 20.1281C5.05781 22.2703 7.59844 23.5453 10.5234 23.9109C11.1328 23.9906 12.8297 23.9859 13.4297 23.9109C15.8016 23.6062 17.9109 22.7203 19.7344 21.2625C20.3016 20.8125 21.4125 19.6641 21.8531 19.0781C22.3453 18.4172 22.7344 17.7891 22.7344 17.6437C22.7344 17.5031 22.4719 16.9266 22.2422 16.5703C21.4406 15.3187 20.325 14.2969 19.0734 13.6734C18.1594 13.2187 17.0203 12.9047 16.4438 12.9469C16.2469 12.9609 16.1156 13.0078 15.9281 13.125C15.2531 13.5516 15.0375 13.6687 14.6625 13.8328C13.7297 14.2406 12.7781 14.4187 11.7656 14.3766C10.4719 14.325 9.38438 13.9781 8.30156 13.2656C8.06719 13.1109 7.81875 12.975 7.74844 12.9562C7.67344 12.9422 7.58438 12.9234 7.54688 12.9141C7.50938 12.9047 7.25625 12.9375 6.98438 12.9844Z" fill="#96A3B0"/>
</g>
<defs>
<clipPath id="clip0_86_1637">
<rect width="24" height="24" fill="white"/>
</clipPath>
</defs>
</svg>
