<svg width="20" height="20" viewBox="0 0 20 20" fill="none" xmlns="http://www.w3.org/2000/svg">
<g clip-path="url(#clip0_430_1031)">
<path d="M16.5711 0.0781424C16.4539 0.187517 16.4343 0.28908 16.4539 0.722674C16.4656 1.08205 16.4734 1.10549 16.575 1.19533C16.7078 1.30861 16.7937 1.31252 16.9304 1.20705C17.032 1.12892 17.032 1.12111 17.032 0.644549C17.032 0.167986 17.032 0.160174 16.9304 0.0820487C16.7976 -0.0195138 16.6804 -0.0234201 16.5711 0.0781424Z" fill="#4BADDB"/>
<path d="M14.4769 0.949219C14.2933 1.13281 14.3324 1.23438 14.723 1.61328C14.9222 1.8125 15.1019 1.95312 15.1449 1.95312C15.2894 1.95312 15.43 1.80469 15.43 1.65234C15.43 1.53125 15.391 1.47266 15.1293 1.20703C14.7699 0.84375 14.6371 0.789062 14.4769 0.949219Z" fill="#4BADDB"/>
<path d="M18.434 1.15624C18.0786 1.49999 18.02 1.60155 18.0864 1.76171C18.1372 1.8828 18.3169 1.97265 18.4301 1.93749C18.4692 1.92187 18.6489 1.76171 18.8286 1.58202C19.1294 1.27343 19.1489 1.24218 19.1255 1.12499C19.0942 0.964835 19.0356 0.906241 18.8755 0.874991C18.7622 0.851553 18.727 0.871085 18.434 1.15624Z" fill="#4BADDB"/>
<path d="M16.222 1.71485C15.6752 1.91798 15.2923 2.36329 15.1712 2.9336C14.9486 4.00782 15.9017 5.01563 16.9837 4.84767C17.5189 4.76563 17.9837 4.41798 18.2298 3.91407C18.3314 3.71095 18.3392 3.65235 18.3392 3.26173C18.3392 2.86329 18.3314 2.81642 18.2181 2.57813C18.0384 2.20704 17.8197 1.98048 17.472 1.8086C17.1986 1.67579 17.1439 1.66017 16.8002 1.65235C16.5072 1.64454 16.3783 1.66017 16.222 1.71485ZM17.1673 2.30079C17.558 2.47657 17.7728 2.81251 17.7728 3.23829C17.7689 3.83595 17.3392 4.27345 16.7572 4.26954C16.4564 4.26954 16.2806 4.20313 16.0619 4.00392C15.8314 3.79688 15.7259 3.5547 15.7259 3.2422C15.7337 2.66017 16.1712 2.22657 16.7533 2.22657C16.9173 2.22657 17.0697 2.25392 17.1673 2.30079Z" fill="#4BADDB"/>
<path d="M6.48438 2.77736C3.57422 3.01954 1.06641 5.09376 0.273438 7.91408C0.0820312 8.59376 0.0195312 9.08205 0.0234375 9.8633C0.0273438 10.6836 0.078125 11.043 0.199219 11.1406C0.308594 11.2305 0.515625 11.2305 0.628906 11.1367C0.707031 11.0742 0.71875 11.0352 0.710938 10.836C0.695312 10.5117 0.792969 10.2227 0.988281 10.0117C1.23047 9.75001 1.40625 9.67189 1.75781 9.66798C2.01172 9.66798 2.07812 9.68361 2.26172 9.78517C2.51562 9.9258 2.71484 10.1758 2.79688 10.457C2.89062 10.7735 3.10938 10.8789 3.30078 10.6875C3.38281 10.6055 3.39453 10.5586 3.39062 10.3086C3.38672 9.97267 3.45703 9.76954 3.64453 9.57814C4.17188 9.02736 5.11328 9.15236 5.38672 9.81251C5.52734 10.1485 5.55859 10.1992 5.67188 10.2578C5.91406 10.3828 6.05469 10.2656 6.05469 9.9297C6.05469 9.63673 6.10547 9.46095 6.26172 9.23439C6.38672 9.05079 6.58203 8.87501 6.62109 8.91017C6.65234 8.94142 7.22266 12.4375 7.19922 12.4688C7.19141 12.4883 5.60156 12.5 3.67188 12.5H0.160156L0.0820312 12.6016C-0.0195312 12.7344 -0.0195312 12.8125 0.0820312 12.9453L0.160156 13.0469L3.74219 13.0547L7.32422 13.0664L7.46875 13.961C7.55078 14.4531 7.60938 14.8672 7.59766 14.875C7.58594 14.8867 7.54688 14.8672 7.51172 14.836C7.375 14.7188 6.65234 14.2969 6.32812 14.1445C5.60938 13.8086 4.99609 13.6719 4.19531 13.6719C3.58203 13.6719 3.08984 13.75 2.53906 13.9297C1.73047 14.1992 0.980469 14.6719 0.410156 15.2813C0.0546875 15.6602 -0.03125 15.8125 0.0234375 15.9688C0.0703125 16.1016 0.242188 16.1875 0.371094 16.1445C0.421875 16.1289 0.566406 15.9922 0.691406 15.8399C1.27344 15.1485 2.08594 14.6445 3.04688 14.3867C3.50781 14.2656 4.39844 14.2188 4.875 14.2969C5.76953 14.4414 6.54297 14.836 8.02734 15.9219C9.54297 17.0313 10.1406 17.3672 10.9961 17.6016C11.4375 17.7227 12.1484 17.7656 12.6211 17.6992C13.2539 17.6055 14.2383 17.3164 14.3555 17.1875C14.4453 17.086 14.4453 16.8985 14.3555 16.7969C14.2617 16.6914 14.1016 16.6953 13.7461 16.8203C12.6172 17.207 11.7148 17.2461 10.8594 16.9453C10.2422 16.7266 9.76172 16.4492 8.82812 15.7735L8.29688 15.3906L8.11328 14.2695C8.01172 13.6485 7.92969 13.1211 7.92969 13.0938C7.92969 13.0586 9.14844 13.0469 13.8867 13.0469H19.8398L19.9219 12.961C20.0234 12.8516 20.0234 12.6953 19.9219 12.586L19.8398 12.5H13.8477C10.1562 12.5 7.84766 12.4844 7.83203 12.4649C7.8125 12.4258 7.22656 8.93361 7.22656 8.83595C7.22656 8.71095 7.58203 8.83986 7.81641 9.05079C7.98047 9.19923 8.09375 9.38673 8.14062 9.58986C8.19141 9.79689 8.26953 9.88283 8.41406 9.88283C8.48828 9.88283 8.58594 9.84767 8.63672 9.80861C8.71875 9.7422 8.73047 9.70704 8.71875 9.48829C8.69141 8.78908 9.10156 8.35939 9.80078 8.35939C10.0977 8.35939 10.3828 8.47267 10.5547 8.65626C10.668 8.78126 10.8164 9.07814 10.8203 9.19142C10.8203 9.29298 10.9961 9.45314 11.1055 9.45314C11.1562 9.45314 11.2461 9.41798 11.3047 9.37111C11.3984 9.29689 11.4062 9.26954 11.4062 8.98439C11.4062 8.72658 11.4219 8.64845 11.5156 8.47267C11.7656 7.98829 12.4531 7.77736 12.9648 8.03126C13.207 8.15236 13.3711 8.35939 13.457 8.64454C13.5312 8.89845 13.6133 8.98439 13.7734 8.98439C13.9219 8.98439 14.0625 8.83595 14.0625 8.67579C14.0625 8.53908 13.8945 7.86329 13.7773 7.51954C12.8672 4.87501 10.4805 3.02345 7.65625 2.77345C7.16016 2.73048 7.02734 2.73048 6.48438 2.77736ZM6.26172 3.58986C6.72656 4.10548 7.30859 5.67579 7.76953 7.67189C7.85938 8.05079 7.92969 8.3672 7.92969 8.37892C7.92969 8.39064 7.88281 8.37501 7.82422 8.34376C7.51953 8.18751 7 8.15236 6.625 8.25783C6.50781 8.29298 6.29297 8.40236 6.14844 8.50001C6.00781 8.59767 5.88672 8.67189 5.87891 8.66408C5.875 8.65626 5.83984 8.36329 5.80469 8.00783C5.62109 6.10939 5.64844 4.51564 5.88672 3.76954C6.00781 3.37892 6.05469 3.35939 6.26172 3.58986ZM9.14844 3.67189C10.543 4.13673 11.8555 5.1797 12.6172 6.42579C12.7891 6.70314 13.1289 7.39064 13.1094 7.41017C13.1016 7.41798 12.9961 7.39845 12.8672 7.36329C12.3164 7.21876 11.7461 7.3672 11.3242 7.76173C11.1914 7.88283 11.1289 7.92189 11.1172 7.88673C11.1055 7.85548 11.0234 7.61329 10.9375 7.34376C10.418 5.77345 9.51953 4.40236 8.45703 3.57033L8.30078 3.44533L8.55469 3.50392C8.69531 3.53517 8.96094 3.60939 9.14844 3.67189ZM7.51953 3.69142C7.96484 3.91017 8.30859 4.17189 8.69531 4.58204C9.23438 5.15236 9.69922 5.87501 10.0664 6.71486C10.2305 7.08986 10.5195 7.89064 10.4922 7.89064C10.4844 7.89064 10.4062 7.86329 10.3164 7.83204C9.76562 7.64064 9.12109 7.77345 8.6875 8.17189C8.52344 8.32423 8.51953 8.32423 8.5 8.23439C8.05469 6.20704 7.63281 4.86329 7.14844 3.91017L6.92188 3.46876L7.04688 3.4922C7.11328 3.50392 7.32812 3.59376 7.51953 3.69142ZM5.21094 4.06251C5.11328 4.62892 5.07422 5.65626 5.11719 6.55079C5.15234 7.29298 5.23438 8.28126 5.29688 8.69923L5.32031 8.8672L5.09375 8.76173C4.91797 8.6797 4.78516 8.65236 4.52734 8.64064C4.09766 8.62111 3.83984 8.69142 3.49219 8.9297L3.23047 9.10939L3.25781 8.33204C3.26953 7.90626 3.29297 7.45314 3.30469 7.32033C3.32812 7.10548 3.32031 7.07423 3.23828 6.99611C3.12891 6.89454 2.96875 6.89064 2.85547 6.98048C2.73047 7.08204 2.69531 7.35548 2.66797 8.38673C2.65625 8.88673 2.64062 9.29689 2.63672 9.29689C2.63281 9.29689 2.52344 9.25001 2.39844 9.19142C2.19531 9.09376 2.12109 9.08204 1.77734 9.08204C1.41797 9.08204 1.36328 9.09376 1.125 9.20704C0.976562 9.27736 0.796875 9.37892 0.71875 9.43751L0.582031 9.54298L0.605469 9.33204C0.800781 7.61329 1.41797 6.30079 2.5625 5.18751C2.97656 4.78126 3.72266 4.21876 3.84375 4.21876C3.85547 4.21876 3.79297 4.32814 3.70703 4.46095C3.51953 4.75392 3.23828 5.32423 3.14453 5.62111C3.07812 5.82423 3.07812 5.83205 3.15234 5.93361C3.21875 6.01564 3.26172 6.03517 3.40234 6.03517C3.59766 6.03517 3.5625 6.08204 3.88281 5.38283C4.19141 4.70704 4.56641 4.21095 5.01562 3.87892C5.14062 3.78517 5.25 3.71486 5.25781 3.72267C5.26562 3.72658 5.24219 3.88283 5.21094 4.06251Z" fill="#4BADDB"/>
<path d="M13.5928 3.04688C13.4951 3.14453 13.4912 3.32422 13.5889 3.44141C13.6592 3.53125 13.6866 3.53516 14.1358 3.53516C14.5655 3.53516 14.6123 3.52734 14.6905 3.44922C14.8037 3.33594 14.7998 3.13281 14.6826 3.03906C14.6162 2.98047 14.5186 2.96875 14.1358 2.96875C13.7217 2.96875 13.6631 2.97656 13.5928 3.04688Z" fill="#4BADDB"/>
<path d="M18.7926 3.07031C18.6832 3.21094 18.691 3.30469 18.8238 3.44141C18.9371 3.55078 18.9488 3.55469 19.3356 3.55469C19.6051 3.55469 19.7652 3.53516 19.8395 3.49609C20.0191 3.40625 20.0504 3.23828 19.9176 3.07031C19.8395 2.96875 19.8316 2.96875 19.3551 2.96875C18.8785 2.96875 18.8707 2.96875 18.7926 3.07031Z" fill="#4BADDB"/>
<path d="M14.6948 4.89839C14.3393 5.26167 14.3041 5.36323 14.4721 5.5273C14.6362 5.69526 14.7377 5.66011 15.101 5.30464C15.394 5.01948 15.4291 4.97261 15.4291 4.8437C15.4291 4.66401 15.3315 4.57026 15.1479 4.57026C15.0307 4.57026 14.9721 4.60933 14.6948 4.89839Z" fill="#4BADDB"/>
<path d="M18.1289 4.67187C18.082 4.73047 18.0469 4.8125 18.0469 4.85547C18.0469 4.89844 18.1875 5.07812 18.3867 5.27734C18.7656 5.66406 18.8672 5.70312 19.043 5.52734C19.2148 5.35937 19.1758 5.25781 18.8164 4.89453C18.5273 4.60937 18.4766 4.57031 18.3516 4.57031C18.2422 4.57031 18.1875 4.59766 18.1289 4.67187Z" fill="#4BADDB"/>
<path d="M16.5391 5.31638C16.4766 5.38669 16.4648 5.46091 16.4648 5.86716C16.4648 6.31247 16.4688 6.33981 16.5586 6.41013C16.6758 6.50778 16.8555 6.50388 16.9531 6.40622C17.0234 6.33591 17.0312 6.27731 17.0312 5.86716C17.0312 5.32028 16.9961 5.23435 16.7617 5.23435C16.6602 5.23435 16.5898 5.26169 16.5391 5.31638Z" fill="#4BADDB"/>
<path d="M12.8361 13.9805C12.7384 14.0859 12.7423 14.2852 12.8478 14.3867L12.9337 14.4727H15.5626C18.0978 14.4727 18.1993 14.4688 18.2775 14.3984C18.3751 14.3086 18.3868 14.1172 18.297 13.9922L18.2384 13.9062H15.5704C13.0001 13.9062 12.8986 13.9102 12.8361 13.9805Z" fill="#4BADDB"/>
<path d="M11.1631 15.1953C11.0694 15.293 11.0498 15.3359 11.0694 15.4219C11.085 15.4805 11.1319 15.5586 11.1787 15.5938C11.249 15.6562 11.374 15.6641 12.4951 15.6641H13.7373L13.8194 15.5742C13.9326 15.4531 13.9287 15.293 13.8076 15.1758L13.7139 15.0781H12.499H11.2803L11.1631 15.1953Z" fill="#4BADDB"/>
<path d="M16.7193 15.961C16.1216 16.0469 15.8326 16.1172 15.7544 16.1993C15.6334 16.3164 15.6373 16.4844 15.7623 16.6016L15.8599 16.6954L16.3013 16.6172C17.4927 16.4141 18.4966 16.6133 19.3052 17.2188C19.4459 17.3282 19.5982 17.4258 19.6412 17.4375C19.7974 17.4883 20.0005 17.3125 20.0005 17.1289C20.0005 16.9141 19.1919 16.3829 18.5123 16.1485C18.024 15.9844 17.188 15.8946 16.7193 15.961Z" fill="#4BADDB"/>
<path d="M6.2119 16.1328C6.09471 16.25 6.10643 16.457 6.23533 16.5586C6.29393 16.6055 6.36815 16.6406 6.40721 16.6406C6.44627 16.6406 6.52049 16.6055 6.57908 16.5586C6.78221 16.3984 6.66893 16.0547 6.40721 16.0547C6.3408 16.0547 6.25486 16.0898 6.2119 16.1328Z" fill="#4BADDB"/>
<path d="M1.15553 16.7031C0.925058 16.9297 1.1399 17.2891 1.44068 17.1836C1.72584 17.082 1.64771 16.6406 1.34303 16.6406C1.27271 16.6406 1.18678 16.668 1.15553 16.7031Z" fill="#4BADDB"/>
<path d="M17.5267 17.8008C17.4329 17.8242 17.3313 18.0312 17.3665 18.1367C17.4368 18.3789 17.7024 18.4414 17.847 18.2578C17.9563 18.1211 17.9485 17.9883 17.8313 17.8711C17.7415 17.7773 17.6751 17.7617 17.5267 17.8008Z" fill="#4BADDB"/>
<path d="M5.18265 18.3516C5.09281 18.4492 5.09671 18.6836 5.18656 18.7617C5.22562 18.8008 5.32327 18.8281 5.4014 18.8281C5.56156 18.8281 5.66312 18.7227 5.66312 18.5547C5.66312 18.5 5.63577 18.4141 5.60062 18.3672C5.52249 18.2578 5.2764 18.2461 5.18265 18.3516Z" fill="#4BADDB"/>
<path d="M13.9919 19.4805C13.8005 19.6445 13.9177 20 14.1599 20C14.2888 20 14.4529 19.8359 14.4529 19.7148C14.4529 19.4727 14.1677 19.332 13.9919 19.4805Z" fill="#4BADDB"/>
</g>
<defs>
<clipPath id="clip0_430_1031">
<rect width="20" height="20" fill="white"/>
</clipPath>
</defs>
</svg>
