<svg width="36" height="36" viewBox="0 0 36 36" fill="none" xmlns="http://www.w3.org/2000/svg">
<g clip-path="url(#clip0_233_1965)">
<path d="M17.0986 0.00560462C14.2096 0.0404796 7.99851 0.51523 4.52451 3.70235C1.94039 6.26285 1.03814 10.0485 0.932389 14.7296C0.844639 19.3939 0.73889 28.1531 9.18201 30.5381V34.1707C9.18201 34.1707 9.12914 35.6242 10.0899 35.9224C11.2734 36.297 11.9473 35.1787 13.0723 33.9772L15.1704 31.6046C20.9473 32.085 25.3719 30.978 25.8815 30.8137C27.0538 30.4391 33.6564 29.5954 34.7353 20.835C35.8423 11.7877 34.1964 6.08735 31.2253 3.50885H31.2073C30.3106 2.6831 26.7073 0.0573546 18.6568 0.0281046C18.6568 0.0281046 18.0594 -0.0123954 17.0986 0.00447962V0.00560462ZM17.1976 2.54923C18.0178 2.5436 18.5161 2.57848 18.5161 2.57848C25.3303 2.59648 28.5826 4.64735 29.3499 5.3381C31.8519 7.48235 33.1411 12.6214 32.1973 20.1746C31.3006 27.4984 25.9456 27.9619 24.9545 28.278C24.5326 28.413 20.6356 29.3737 15.7261 29.0576C15.7261 29.0576 12.0699 33.4699 10.9269 34.6061C10.7458 34.8052 10.5343 34.8637 10.3993 34.8345C10.2058 34.7872 10.1473 34.5476 10.1585 34.2191L10.1934 28.1902C3.03277 26.2102 3.45464 18.7391 3.53114 14.8365C3.61889 10.9339 4.35126 7.7411 6.53151 5.57885C9.46664 2.92498 14.7406 2.56723 17.1954 2.54923H17.1976ZM17.7376 6.45073C17.6787 6.45013 17.6202 6.46121 17.5656 6.48332C17.511 6.50543 17.4612 6.53813 17.4193 6.57954C17.3774 6.62096 17.3441 6.67026 17.3213 6.72461C17.2985 6.77896 17.2867 6.83729 17.2865 6.89623C17.2865 7.14823 17.4913 7.34735 17.7376 7.34735C18.8531 7.32614 19.9617 7.52597 20.9995 7.93531C22.0374 8.34465 22.9839 8.95541 23.7845 9.73235C25.4191 11.3197 26.2156 13.4527 26.246 16.2416C26.246 16.488 26.4451 16.6927 26.6971 16.6927V16.6747C26.8159 16.675 26.93 16.6284 27.0145 16.5449C27.099 16.4615 27.1471 16.348 27.1483 16.2292C27.2029 14.9165 26.99 13.6064 26.5226 12.3785C26.0551 11.1507 25.3429 10.0307 24.4291 9.0866C22.6483 7.34623 20.3915 6.4496 17.7376 6.4496V6.45073ZM11.8078 7.48235C11.4893 7.43583 11.1646 7.49975 10.8875 7.66348H10.8639C10.2207 8.04051 9.64125 8.51704 9.14714 9.07535C8.73651 9.5501 8.51376 10.0305 8.45526 10.4929C8.42039 10.7685 8.44401 11.0441 8.52614 11.3074L8.55539 11.3254C9.01776 12.6844 9.62189 13.9916 10.3599 15.2224C11.3105 16.9514 12.4805 18.5505 13.8406 19.98L13.8811 20.0385L13.9453 20.0857L13.9858 20.133L14.033 20.1735C15.4676 21.5376 17.0706 22.713 18.803 23.6711C20.783 24.7489 21.9845 25.2585 22.7056 25.47V25.4812C22.9171 25.5454 23.1095 25.5746 23.303 25.5746C23.9176 25.5296 24.4994 25.2801 24.9556 24.8659C25.5114 24.3716 25.9826 23.7898 26.3506 23.1435V23.1322C26.696 22.482 26.579 21.8666 26.0806 21.4504C25.0825 20.5779 24.0033 19.803 22.8575 19.1362C22.0903 18.72 21.3106 18.972 20.9945 19.3939L20.3206 20.2432C19.9753 20.6651 19.3475 20.6066 19.3475 20.6066L19.3295 20.6179C14.6484 19.422 13.3996 14.6824 13.3996 14.6824C13.3996 14.6824 13.3411 14.0377 13.7743 13.7092L14.618 13.0297C15.0219 12.7012 15.3031 11.9227 14.87 11.1544C14.2078 10.007 13.4346 8.92747 12.5615 7.93123C12.3706 7.69636 12.1028 7.53657 11.8055 7.4801L11.8078 7.48235ZM18.5161 8.81885C17.9188 8.81885 17.9188 9.7211 18.5218 9.7211C19.2646 9.73315 19.9977 9.89147 20.6793 10.187C21.3609 10.4825 21.9776 10.9095 22.4941 11.4435C22.9653 11.9632 23.3274 12.5723 23.5589 13.2345C23.7904 13.8968 23.8866 14.5987 23.8419 15.2989C23.8439 15.4173 23.8923 15.5303 23.9766 15.6136C24.0609 15.6968 24.1745 15.7438 24.293 15.7444L24.311 15.768C24.4304 15.7671 24.5446 15.7193 24.629 15.6349C24.7134 15.5505 24.7613 15.4362 24.7621 15.3169C24.8026 13.5292 24.2469 12.0296 23.1568 10.8281C22.061 9.6266 20.5321 8.95273 18.5803 8.81885H18.5161V8.81885ZM19.2553 11.2444C18.6399 11.2264 18.6163 12.1466 19.226 12.1646C20.7088 12.2411 21.4288 12.9904 21.5233 14.5316C21.5253 14.6486 21.5731 14.7601 21.6564 14.8423C21.7396 14.9246 21.8518 14.9709 21.9688 14.9715H21.9868C22.0469 14.9689 22.106 14.9544 22.1604 14.9287C22.2149 14.9031 22.2637 14.8668 22.3041 14.8221C22.3444 14.7774 22.3754 14.7251 22.3953 14.6683C22.4152 14.6114 22.4235 14.5512 22.4199 14.4911C22.3141 12.4819 21.2184 11.3501 19.2733 11.2455H19.2553V11.2444Z" fill="white"/>
</g>
<defs>
<clipPath id="clip0_233_1965">
<rect width="36" height="36" fill="white"/>
</clipPath>
</defs>
</svg>
