<svg width="32" height="32" viewBox="0 0 32 32" fill="none" xmlns="http://www.w3.org/2000/svg">
<g clip-path="url(#clip0_1204_3003)">
<path d="M15.0627 0.0371323C13.5627 0.230882 12.1689 0.724632 11.0189 1.47463C8.84394 2.88713 7.4127 5.01213 6.9002 7.59338C6.74395 8.37463 6.74395 10.1246 6.9002 10.9059C7.3502 13.1684 8.61895 15.2434 10.3377 16.5496L10.7627 16.8746L10.5877 16.9371C8.3502 17.7559 6.47519 18.9496 4.75644 20.6434C1.8752 23.4871 0.243945 27.1309 0.0251953 31.2059L-0.0185547 31.9996H1.2377H2.5002V31.6934C2.5002 30.6059 2.7752 29.0746 3.19395 27.7871C4.53145 23.7059 7.71269 20.5246 11.8064 19.1871C14.6127 18.2684 17.3939 18.2684 20.2127 19.1934C23.2627 20.1934 25.7939 22.1996 27.5314 24.9996C28.5439 26.6371 29.2377 28.7184 29.4377 30.7434C29.4689 31.0996 29.5002 31.5246 29.5002 31.6934V31.9996H30.7502H32.0002V31.6371C32.0002 30.0309 31.5502 27.8309 30.8627 26.0684C29.2377 21.9121 25.5877 18.3996 21.3564 16.9121C21.2564 16.8809 21.3064 16.8184 21.6314 16.5746C23.3564 15.2809 24.6502 13.1621 25.1002 10.9059C25.2564 10.1246 25.2564 8.37463 25.1002 7.59338C24.3439 3.79963 21.5689 0.974633 17.8189 0.180883C17.2314 0.0621334 15.5814 -0.0253677 15.0627 0.0371323ZM17.6564 2.71213C19.1064 3.08713 20.4814 3.99338 21.3814 5.18088C21.8189 5.75588 22.3439 6.84963 22.5439 7.59338C22.6877 8.14963 22.7064 8.33088 22.7064 9.24963C22.7064 10.1684 22.6877 10.3496 22.5439 10.9059C22.3439 11.6496 21.8189 12.7434 21.3814 13.3184C20.4814 14.4996 19.1252 15.3996 17.6564 15.7934C17.1002 15.9371 16.9189 15.9559 16.0002 15.9559C15.0877 15.9559 14.9002 15.9371 14.3564 15.7934C13.6627 15.6059 12.7564 15.1996 12.1939 14.8121C11.6752 14.4684 11.0064 13.8246 10.6189 13.3184C10.1814 12.7434 9.65644 11.6496 9.45644 10.9059C9.31269 10.3496 9.29394 10.1684 9.29394 9.24963C9.29394 8.33088 9.31269 8.14963 9.45644 7.59338C9.65644 6.84963 10.1814 5.75588 10.6189 5.18088C11.6627 3.80588 13.2939 2.83713 15.0377 2.56213C15.6877 2.46213 16.9564 2.53713 17.6564 2.71213Z" fill="black"/>
</g>
<defs>
<clipPath id="clip0_1204_3003">
<rect width="32" height="32" fill="white"/>
</clipPath>
</defs>
</svg>
