<svg width="32" height="32" viewBox="0 0 32 32" fill="none" xmlns="http://www.w3.org/2000/svg">
<g clip-path="url(#clip0_1204_3032)">
<path d="M12.7937 0.0678082C12.0187 0.255308 11.2874 0.905308 11.0312 1.63031C10.9749 1.77406 10.8562 2.37406 10.7562 2.96781C10.5124 4.40531 10.2937 4.81781 9.57493 5.16781C9.28743 5.30531 9.14369 5.33656 8.78119 5.33656C8.39994 5.33031 8.21869 5.28031 7.31244 4.93031C6.28744 4.53656 6.28119 4.53656 5.62494 4.53031C5.01869 4.53031 4.93744 4.54281 4.56244 4.72406C4.33744 4.83031 4.03119 5.04281 3.87494 5.20531C3.54369 5.54281 0.793686 10.2491 0.606186 10.8116C0.443686 11.2866 0.487436 12.0428 0.699936 12.5116C0.931186 12.9991 1.15619 13.2491 2.04369 13.9741C2.48119 14.3366 2.90619 14.7178 2.98744 14.8116C3.52494 15.4928 3.53744 16.4866 3.00619 17.1616C2.93744 17.2491 2.50619 17.6303 2.04994 18.0116C1.14369 18.7553 0.943686 18.9803 0.706186 19.4866C0.487436 19.9553 0.443686 20.7116 0.599936 21.1866C0.668686 21.3741 1.36244 22.6491 2.15619 24.0178C3.71869 26.7303 3.87494 26.9428 4.56244 27.2741C4.93744 27.4553 5.01869 27.4678 5.62494 27.4678C6.28119 27.4616 6.28744 27.4616 7.31244 27.0678C8.21869 26.7178 8.39994 26.6678 8.78119 26.6616C9.51244 26.6553 10.0999 27.0241 10.4437 27.6991C10.5249 27.8553 10.6437 28.3741 10.7562 29.0303C10.9562 30.2366 11.0374 30.5053 11.3062 30.8991C11.5687 31.2803 11.8999 31.5491 12.3749 31.7741L12.7812 31.9678L15.8062 31.9866C17.7187 31.9991 18.9437 31.9803 19.1374 31.9428C19.8937 31.7803 20.4999 31.3053 20.8437 30.6053C21.0187 30.2366 21.0937 29.9553 21.2437 29.0553C21.4437 27.8303 21.5812 27.4678 21.9749 27.1241C22.3499 26.7991 22.7124 26.6616 23.2187 26.6678C23.6062 26.6678 23.7812 26.7178 24.6874 27.0678C25.7124 27.4616 25.7187 27.4616 26.3749 27.4678C26.9812 27.4678 27.0624 27.4553 27.4374 27.2741C28.1187 26.9428 28.2812 26.7241 29.8312 24.0491C30.6062 22.6991 31.2937 21.4803 31.3562 21.3428C31.4374 21.1616 31.4624 20.9241 31.4687 20.4678C31.4687 19.9241 31.4499 19.7991 31.3062 19.4991C31.0624 18.9928 30.8562 18.7616 29.9312 17.9991C29.0374 17.2553 28.8062 16.9741 28.6562 16.4803C28.5374 16.0866 28.5374 15.9116 28.6562 15.5178C28.8062 15.0178 29.0499 14.7241 29.9312 13.9991C30.8437 13.2491 31.0624 13.0053 31.3062 12.4991C31.4499 12.1991 31.4687 12.0741 31.4687 11.5303C31.4624 11.0741 31.4374 10.8366 31.3562 10.6553C31.2937 10.5178 30.6062 9.29906 29.8312 7.94906C28.2812 5.27406 28.1187 5.05531 27.4374 4.72406C27.0624 4.54281 26.9812 4.53031 26.3749 4.53031C25.7187 4.53656 25.7124 4.53656 24.6874 4.93031C23.7812 5.28031 23.5999 5.33031 23.2187 5.33656C22.4874 5.34281 21.8999 4.97406 21.5562 4.29906C21.4812 4.14906 21.3562 3.62406 21.2437 2.98031C21.1499 2.39281 21.0187 1.78031 20.9562 1.61156C20.7437 1.01156 20.1499 0.417808 19.5187 0.155308C19.2374 0.0365578 19.0437 0.030307 16.1249 0.017807C14.4249 0.011557 12.9249 0.0365581 12.7937 0.0678082ZM18.6249 2.51156C18.6249 2.52406 18.7062 3.01156 18.8124 3.60531C19.0812 5.15531 19.3874 5.83031 20.1812 6.59906C21.0624 7.46156 22.3437 7.93656 23.4999 7.84281C24.1062 7.79281 24.2749 7.74906 25.4249 7.33031C25.9499 7.13656 26.3874 6.99281 26.3937 7.00531C26.4062 7.01781 26.9999 8.04281 27.7124 9.27406C28.7437 11.0678 28.9874 11.5366 28.9249 11.5928C28.8812 11.6303 28.5249 11.9241 28.1437 12.2428C27.2437 12.9803 26.8812 13.3928 26.5687 14.0241C26.2187 14.7178 26.1062 15.2053 26.1062 15.9991C26.1062 16.7928 26.2187 17.2803 26.5687 17.9741C26.8812 18.6053 27.2437 19.0178 28.1437 19.7553C28.5249 20.0741 28.8812 20.3678 28.9249 20.4053C28.9874 20.4616 28.7374 20.9366 27.7124 22.7241C26.9999 23.9553 26.4062 24.9803 26.3937 24.9928C26.3874 25.0053 25.9499 24.8616 25.4249 24.6678C24.2749 24.2491 24.1062 24.2053 23.4999 24.1553C22.3437 24.0616 21.0562 24.5428 20.1749 25.3928C19.3937 26.1616 19.0749 26.8491 18.8124 28.3928C18.7062 28.9866 18.6249 29.4741 18.6249 29.4803C18.6249 29.4928 17.4437 29.4991 15.9999 29.4991C14.5562 29.4991 13.3749 29.4928 13.3749 29.4803C13.3749 29.4741 13.2937 28.9866 13.1874 28.3928C12.9249 26.8491 12.6187 26.1866 11.8312 25.4053C10.9562 24.5428 9.66244 24.0616 8.49994 24.1553C7.89369 24.2053 7.72494 24.2491 6.57494 24.6678C6.04994 24.8616 5.61244 25.0053 5.60619 24.9928C5.41244 24.7491 3.01244 20.4678 3.04369 20.4366C3.06869 20.4116 3.43119 20.1116 3.84369 19.7678C4.71869 19.0428 5.04994 18.6866 5.36244 18.1241C5.73744 17.4553 5.88744 16.8366 5.88744 15.9991C5.88744 15.1616 5.73744 14.5428 5.36244 13.8741C5.04994 13.3116 4.71869 12.9553 3.84369 12.2303C3.43119 11.8866 3.06869 11.5866 3.04369 11.5616C3.01244 11.5303 5.41244 7.24906 5.60619 7.00531C5.61244 6.99281 6.04994 7.13656 6.57494 7.33031C7.86869 7.80531 7.99369 7.83031 8.74994 7.83656C9.53119 7.83656 10.0124 7.72406 10.7187 7.37406C11.2874 7.09281 11.7187 6.76156 12.1374 6.26781C12.7062 5.59281 12.9749 4.91781 13.1874 3.62406C13.2562 3.19281 13.3312 2.76781 13.3499 2.66781L13.3874 2.49906H16.0062C17.4437 2.49906 18.6249 2.50531 18.6249 2.51156Z" fill="black"/>
<path d="M15.2191 9.88126C14.3441 9.99376 13.3191 10.3875 12.5066 10.925C12.0504 11.225 11.2191 12.0625 10.9066 12.5313C9.48164 14.6938 9.48164 17.3063 10.9066 19.4688C11.2191 19.9375 12.0504 20.775 12.5066 21.075C14.8879 22.6438 17.8066 22.5063 19.9504 20.725C21.8316 19.1688 22.6191 16.5313 21.8941 14.2188C21.2004 11.9938 19.3754 10.3563 17.1379 9.9375C16.6254 9.84375 15.7004 9.81251 15.2191 9.88126ZM17.0941 12.5063C18.1879 12.8438 19.1504 13.8125 19.5129 14.9375C19.6941 15.5063 19.6941 16.4938 19.5129 17.0625C19.1441 18.2 18.2004 19.1438 17.0629 19.5063C16.4879 19.6938 15.5629 19.6938 14.9691 19.5125C13.8129 19.1563 12.8566 18.2125 12.4879 17.0625C12.3066 16.4938 12.3066 15.5063 12.4941 14.9375C12.9254 13.5813 14.1754 12.5313 15.5629 12.3563C15.9316 12.3063 16.7004 12.3813 17.0941 12.5063Z" fill="black"/>
</g>
<defs>
<clipPath id="clip0_1204_3032">
<rect width="32" height="32" fill="white"/>
</clipPath>
</defs>
</svg>
