<svg width="32" height="32" viewBox="0 0 32 32" fill="none" xmlns="http://www.w3.org/2000/svg">
<g clip-path="url(#clip0_1204_3036)">
<path d="M2.0314 0.0878677C1.1064 0.319118 0.337655 1.08162 0.087655 2.02537C0.018905 2.28787 0.000154959 4.42537 0.000154959 14.6566C0.000154959 28.1379 -0.018595 27.3504 0.356405 28.0004C0.587655 28.3879 1.05015 28.8379 1.41265 29.0191C1.5814 29.1004 3.60015 29.8004 5.9064 30.5691L10.0939 31.9691H10.6564C11.3439 31.9691 11.7314 31.8441 12.2502 31.4629C12.6689 31.1566 13.0064 30.6941 13.1877 30.1691C13.2877 29.8816 13.3127 29.6566 13.3127 28.9066V28.0004H15.5189C18.0314 28.0004 18.2814 27.9691 19.1252 27.5566C20.1377 27.0629 20.9564 26.0316 21.2127 24.9379C21.3564 24.3316 21.3564 18.4816 21.2189 18.1379C20.8002 17.1379 19.3502 17.0754 18.8252 18.0316C18.7314 18.1941 18.7127 18.5879 18.6877 21.2816L18.6564 24.3441L18.5002 24.6254C18.4127 24.7754 18.2189 24.9879 18.0752 25.0941L17.8002 25.2816L15.5564 25.3004L13.3127 25.3191L13.3002 14.9879L13.2814 4.65662L13.0814 4.23787C12.7564 3.55037 12.3189 3.14412 11.5689 2.83162L11.2189 2.68787L14.5127 2.70662L17.8002 2.71912L18.0752 2.90662C18.2189 3.01287 18.4127 3.22537 18.5002 3.37537L18.6564 3.65662L18.6877 6.07537L18.7189 8.48787L18.9064 8.75662C19.1877 9.15662 19.5564 9.32537 20.0689 9.30037C20.5439 9.27537 20.8627 9.10037 21.1252 8.70662L21.2814 8.47537L21.3002 5.99412C21.3189 3.19412 21.3002 3.02537 20.8877 2.18787C20.5502 1.50037 19.8377 0.794118 19.1252 0.444118C18.1752 -0.0183815 18.6189 0.0003685 10.0314 0.0066185C4.13766 0.0128685 2.2689 0.0316177 2.0314 0.0878677Z" fill="#A1A1A1"/>
<path d="M24.7813 6.80625C24.4626 6.95 24.1501 7.3 24.0688 7.60625C24.0251 7.75 24.0001 8.6625 24.0001 9.91875V12H21.2001H18.4001L18.0688 12.1625C17.5063 12.4437 17.2313 13.0375 17.3813 13.65C17.4813 14.0687 17.9126 14.5125 18.3251 14.6125C18.5251 14.6625 19.4563 14.6875 21.3063 14.6875H24.0001V16.7562C24.0001 18.2187 24.0251 18.9062 24.0751 19.0875C24.2313 19.5937 24.8126 20 25.3813 20C25.8813 19.9937 26.0501 19.85 28.9251 16.9812C31.8063 14.1062 32.0001 13.875 32.0001 13.3875C32.0001 12.7937 32.0376 12.8375 29.0063 9.79375C27.1251 7.9125 26.0688 6.89375 25.9001 6.8125C25.5813 6.65625 25.1126 6.65625 24.7813 6.80625Z" fill="#A1A1A1"/>
</g>
<defs>
<clipPath id="clip0_1204_3036">
<rect width="32" height="32" fill="white"/>
</clipPath>
</defs>
</svg>
