<svg width="32" height="32" viewBox="0 0 32 32" fill="none" xmlns="http://www.w3.org/2000/svg">
<path d="M14.9697 2.74903C10.8447 3.09278 7.15721 5.28028 4.88846 8.73028C2.83846 11.8553 2.21346 15.7428 3.16346 19.4053C3.33221 20.0553 3.68221 21.049 3.88221 21.449L4.00096 21.6803L3.34471 24.9178C2.61346 28.5615 2.61971 28.474 3.05721 28.9365C3.49471 29.399 3.40096 29.4053 7.06346 28.6615L10.3072 28.0115L10.876 28.2553C13.851 29.5365 17.5197 29.6178 20.6197 28.4553C25.1885 26.749 28.4697 22.6615 29.1572 17.799C29.2885 16.8678 29.2885 15.1303 29.1572 14.199C28.3947 8.83028 24.5072 4.47403 19.2885 3.12403C18.001 2.79278 16.2572 2.64278 14.9697 2.74903ZM17.3822 5.09278C22.4697 5.76778 26.351 9.73028 26.9385 14.8428C27.251 17.599 26.351 20.6865 24.6072 22.8428C21.3635 26.8553 15.9697 28.1053 11.2697 25.9365C10.951 25.7865 10.6385 25.6865 10.501 25.6865C10.376 25.6865 9.16346 25.9115 7.80721 26.1803C6.45721 26.4553 5.33846 26.674 5.33221 26.6678C5.32596 26.6615 5.54471 25.5615 5.81971 24.224C6.08846 22.8865 6.31346 21.674 6.31346 21.5303C6.31346 21.349 6.23221 21.0803 6.05721 20.7053C5.52596 19.549 5.20096 18.3928 5.06971 17.174C4.41971 11.299 8.65721 5.89278 14.5322 5.09903C15.3635 4.98653 16.5697 4.98028 17.3822 5.09278Z" fill="black"/>
<path d="M15.4327 9.56253C14.2514 9.75003 13.1327 10.5688 12.6139 11.6313C12.3389 12.2 12.2264 12.6438 12.2264 13.225C12.2202 13.6063 12.2452 13.7 12.3952 13.925C12.8577 14.625 13.9702 14.5938 14.3452 13.8688C14.4014 13.7688 14.4639 13.4938 14.4952 13.2625C14.5577 12.775 14.6639 12.5375 14.9452 12.2563C15.2702 11.9313 15.4827 11.8438 16.0014 11.8438C16.5202 11.8438 16.7327 11.925 17.0639 12.2625C17.7389 12.9313 17.6264 13.9625 16.8264 14.5875C15.6889 15.4625 14.9952 16.65 14.8952 17.8813C14.8452 18.5063 14.9014 18.7688 15.1452 19.0438C15.4952 19.4438 16.0327 19.55 16.5014 19.3125C16.8952 19.1125 17.0639 18.8313 17.1327 18.2688C17.2327 17.4688 17.3952 17.2063 18.3389 16.2813C19.0702 15.5688 19.2014 15.4125 19.3952 15C19.5139 14.7438 19.6514 14.375 19.6952 14.1875C19.8014 13.75 19.8014 12.8813 19.6952 12.4375C19.4889 11.5625 18.8264 10.6438 18.0452 10.125C17.3452 9.66878 16.2639 9.43128 15.4327 9.56253Z" fill="black"/>
<path d="M15.563 20.2875C15.2818 20.4125 15.138 20.5438 14.9943 20.825C14.6193 21.5625 15.138 22.45 15.9568 22.4563C16.5755 22.4625 17.0443 22.0688 17.1068 21.475C17.2068 20.6 16.3568 19.9438 15.563 20.2875Z" fill="black"/>
</svg>
