<svg width="32" height="32" viewBox="0 0 32 32" fill="none" xmlns="http://www.w3.org/2000/svg">
<path d="M5.875 3.78749C4.50625 4.14374 3.45625 5.16874 3.125 6.46874C3.00625 6.94374 3 7.16249 3 14C3 20.8375 3.00625 21.0562 3.125 21.5312C3.3875 22.5562 4.08125 23.4125 5.01875 23.875C5.98125 24.3437 5.175 24.3125 15.9938 24.3125C26.8625 24.3125 26.075 24.3437 27.0188 23.8562C27.9438 23.3812 28.6188 22.5375 28.875 21.5312C28.9937 21.0562 29 20.8375 29 14C29 7.16249 28.9937 6.94374 28.875 6.46874C28.6188 5.46249 27.9438 4.61874 27.0188 4.14374C26.075 3.65624 26.8688 3.68749 15.9625 3.69374C7.69375 3.69374 6.16875 3.70624 5.875 3.78749ZM25.8875 5.81249C26.25 5.94374 26.6563 6.31874 26.85 6.68749C26.9625 6.89999 26.9688 7.20624 26.9688 14C26.9688 20.7937 26.9625 21.1 26.85 21.3125C26.6563 21.6812 26.25 22.0562 25.8875 22.1875C25.5625 22.3125 25.3875 22.3125 16 22.3125C6.6125 22.3125 6.4375 22.3125 6.1125 22.1875C5.75 22.0562 5.34375 21.6812 5.15 21.3125C5.0375 21.1062 5.03125 20.775 5.0125 14.075C5 7.09374 5 7.05624 5.125 6.75624C5.29375 6.36874 5.70625 5.96874 6.1 5.81249C6.4 5.69374 6.68125 5.69374 15.9812 5.68749C25.3938 5.68749 25.5625 5.68749 25.8875 5.81249Z" fill="black"/>
<path d="M11.5625 10.1063C10.575 10.375 9.7875 11.1313 9.48125 12.0875C9.35 12.5125 9.34375 12.6188 9.34375 14.9063V17.2813L9.49375 17.5188C9.875 18.1375 10.7 18.15 11.15 17.5375C11.2688 17.3875 11.2875 17.25 11.3125 16.3563L11.3438 15.3438L12.325 15.325L13.3 15.3125L13.325 16.2938C13.3438 17.2 13.3563 17.3 13.4938 17.5188C13.875 18.1375 14.7 18.15 15.15 17.5375C15.275 17.3813 15.2813 17.2563 15.3125 15.8563C15.3625 13.5563 15.3063 12.3688 15.1313 11.9188C14.825 11.1438 14.1125 10.4563 13.3313 10.175C12.825 10 12.075 9.96876 11.5625 10.1063ZM12.8625 12.1688C13.1563 12.3875 13.3125 12.675 13.3125 13.0063V13.3125H12.3063H11.2938L11.3313 12.9938C11.3813 12.5813 11.5438 12.3188 11.85 12.1375C12.15 11.9625 12.6063 11.975 12.8625 12.1688Z" fill="black"/>
<path d="M17.3125 10.0687C17.225 10.1062 17.0875 10.1937 17.0125 10.2687C16.6813 10.575 16.6875 10.5 16.6875 14.0187V17.2937L16.8313 17.5C17.1375 17.9562 17.1813 17.9687 18.6125 17.9875C20.1125 18.0125 20.5813 17.9375 21.1625 17.5875C21.825 17.1937 22.2438 16.675 22.5125 15.9312C22.6438 15.5562 22.6563 15.4437 22.6563 14C22.65 12.6187 22.6375 12.4312 22.525 12.0875C22.1875 11.0875 21.3563 10.3187 20.375 10.1C19.875 9.98749 17.575 9.96249 17.3125 10.0687ZM20.1188 12.125C20.2563 12.1937 20.4313 12.35 20.5063 12.4812C20.65 12.7125 20.6563 12.7625 20.6563 14C20.6563 15.2375 20.65 15.2875 20.5063 15.5187C20.2813 15.8875 19.9875 16 19.2813 16H18.6875V14V12H19.2813C19.7563 12 19.9313 12.025 20.1188 12.125Z" fill="black"/>
<path d="M2.24993 26.45C1.83743 26.6625 1.66868 26.9437 1.69993 27.3812C1.73118 27.7875 1.89993 28.0625 2.21243 28.2125C2.40618 28.3062 3.60618 28.3125 15.9999 28.3125C28.3937 28.3125 29.5937 28.3062 29.7874 28.2125C30.0999 28.0625 30.2687 27.7875 30.2999 27.3812C30.3312 26.9437 30.1624 26.6625 29.7499 26.45L29.4749 26.3125H15.9999H2.52493L2.24993 26.45Z" fill="black"/>
</svg>
