<svg width="32" height="32" viewBox="0 0 32 32" fill="none" xmlns="http://www.w3.org/2000/svg">
<g clip-path="url(#clip0_1204_3016)">
<path d="M15.5938 0.0875001C15.35 0.2 15.1563 0.3875 15.0188 0.64375C14.9188 0.825 14.9062 1.05 14.9062 2.7625V4.675L15.0938 4.94375C15.325 5.26875 15.6312 5.4375 16 5.4375C16.3688 5.4375 16.675 5.26875 16.9062 4.94375L17.0938 4.675V2.7625C17.0938 0.875 17.0938 0.8375 16.95 0.59375C16.675 0.10625 16.0438 -0.125 15.5938 0.0875001Z" fill="black"/>
<path d="M4.94918 4.50626C4.35543 4.80001 4.18043 5.48126 4.54918 6.07501C4.61793 6.18751 5.23668 6.83126 5.91793 7.50626C6.83668 8.41251 7.21793 8.75001 7.39293 8.80626C8.24293 9.08751 9.06168 8.23126 8.74918 7.39376C8.64918 7.13751 6.14918 4.63751 5.84293 4.49376C5.51793 4.34376 5.28043 4.34376 4.94918 4.50626Z" fill="black"/>
<path d="M26.1562 4.49372C25.8499 4.63747 23.3499 7.14372 23.2499 7.39372C23.0999 7.79997 23.2187 8.27497 23.5374 8.57497C23.8499 8.86872 24.1374 8.93122 24.5937 8.80622C24.7874 8.74997 25.0874 8.49372 26.0812 7.50622C26.7624 6.83122 27.3937 6.16247 27.4812 6.01872C28.0124 5.11872 27.0812 4.04372 26.1562 4.49372Z" fill="black"/>
<path d="M15.2498 8.00002C11.431 8.34377 8.36227 11.4438 7.99977 15.325C7.74352 18.1563 9.14352 21.0625 11.5435 22.6625C14.9373 24.9188 19.431 24.3188 22.0373 21.2625C23.1998 19.9 23.8373 18.4063 23.9935 16.675C24.3998 12.3063 21.106 8.41252 16.656 8.00002C16.281 7.96877 15.9248 7.94377 15.8748 7.94377C15.8248 7.95002 15.5435 7.97502 15.2498 8.00002ZM17.6435 10.4C19.6185 10.9938 20.9935 12.3625 21.606 14.3563C21.7623 14.8625 21.7748 14.9875 21.7748 16C21.7748 17.0125 21.7623 17.1375 21.606 17.6438C21.2873 18.6813 20.7685 19.5438 20.056 20.225C19.3685 20.875 18.6185 21.3063 17.6435 21.6063C17.1373 21.7625 17.0123 21.775 15.9998 21.775C14.9873 21.775 14.8623 21.7625 14.356 21.6063C12.3623 20.9938 11.006 19.6375 10.3935 17.6438C10.2373 17.1375 10.2248 17.0125 10.2248 16C10.2248 14.9875 10.2373 14.8625 10.3935 14.3563C11.056 12.2 12.5998 10.7813 14.8185 10.2813C15.0998 10.2188 15.4935 10.1938 16.156 10.2125C16.9498 10.2313 17.181 10.2625 17.6435 10.4Z" fill="black"/>
<path d="M0.899565 14.9312C0.793315 14.9562 0.624565 15.0312 0.524565 15.0875C-0.175435 15.5 -0.125435 16.6125 0.605815 16.975C0.824565 17.0812 0.999565 17.0938 2.76207 17.0938H4.67457L4.94332 16.9062C5.26832 16.675 5.43707 16.3687 5.43707 16C5.43707 15.6312 5.26832 15.325 4.94332 15.0937L4.67457 14.9062L2.88707 14.8937C1.89957 14.8875 1.00582 14.9062 0.899565 14.9312Z" fill="black"/>
<path d="M27.3938 14.9312C26.9125 15.05 26.5625 15.5062 26.5625 16.0125C26.5625 16.3687 26.7312 16.675 27.0563 16.9062L27.325 17.0938H29.2375C31.125 17.0938 31.1625 17.0938 31.4062 16.95C31.7875 16.7312 31.9688 16.425 31.9688 16C31.9688 15.575 31.7875 15.2687 31.4062 15.05C31.1625 14.9125 31.1125 14.9062 29.375 14.8937C28.3938 14.8875 27.5 14.9062 27.3938 14.9312Z" fill="black"/>
<path d="M7.38124 23.2C7.11874 23.275 4.76249 25.5687 4.51874 25.9812C4.13124 26.6437 4.51249 27.4812 5.26874 27.6062C5.72499 27.6812 5.88749 27.5625 7.30624 26.1625C8.03749 25.4375 8.67499 24.7562 8.72499 24.6437C8.89374 24.25 8.81249 23.8 8.51249 23.475C8.20624 23.15 7.84374 23.0625 7.38124 23.2Z" fill="black"/>
<path d="M23.7494 23.2625C23.2682 23.5062 23.0369 24.0187 23.1869 24.5187C23.2494 24.7312 23.4994 25.025 24.5494 26.0875C26.1369 27.6875 26.3557 27.8125 26.9994 27.4875C27.4807 27.2437 27.7119 26.7312 27.5619 26.2312C27.4994 26.0187 27.2494 25.725 26.1994 24.6625C24.6119 23.0625 24.3932 22.9375 23.7494 23.2625Z" fill="black"/>
<path d="M15.5 26.6813C15.3813 26.7438 15.2 26.9125 15.0938 27.0563L14.9062 27.325V29.2375C14.9062 31.125 14.9062 31.1625 15.05 31.4062C15.2687 31.7875 15.575 31.9688 16 31.9688C16.425 31.9688 16.7313 31.7875 16.95 31.4062C17.0938 31.1625 17.0938 31.125 17.0938 29.2375V27.325L16.9062 27.0563C16.675 26.7313 16.3688 26.5625 16 26.5625C15.8438 26.5625 15.6187 26.6125 15.5 26.6813Z" fill="black"/>
</g>
<defs>
<clipPath id="clip0_1204_3016">
<rect width="32" height="32" fill="white"/>
</clipPath>
</defs>
</svg>
