<svg width="32" height="32" viewBox="0 0 32 32" fill="none" xmlns="http://www.w3.org/2000/svg">
<g clip-path="url(#clip0_1204_3012)">
<path d="M14.9381 0.175386C13.7818 0.569137 4.01935 4.15039 3.79435 4.26289C3.01935 4.65039 2.53185 5.64414 2.6881 6.49414C2.7256 6.68789 2.8506 7.10664 2.96935 7.43164C3.0881 7.75039 3.1881 8.03789 3.1881 8.06289C3.1881 8.08789 3.0006 8.14414 2.7756 8.18789C1.9381 8.34414 1.0256 8.96914 0.556847 9.69414C0.450597 9.86914 0.281847 10.1941 0.194347 10.4254L0.0318473 10.8441L0.0130973 19.8754C0.000597307 28.7129 0.000597306 28.9129 0.125597 29.3941C0.288097 30.0379 0.556847 30.5004 1.05685 31.0004C1.53185 31.4691 2.09435 31.7754 2.73185 31.9066C3.36935 32.0441 26.7569 32.0441 27.3944 31.9066C28.3131 31.7129 29.2194 31.0504 29.6756 30.2441C30.0819 29.5316 30.1256 29.1754 30.1256 26.7691V24.6254H30.2694C30.5131 24.6254 31.0506 24.3316 31.3444 24.0316C31.5069 23.8754 31.7131 23.5816 31.8006 23.3879L31.9694 23.0316V20.0004V16.9691L31.8069 16.6254C31.5194 16.0066 31.0444 15.5941 30.4194 15.4066L30.1569 15.3316L30.1256 13.0879C30.0881 10.8691 30.0881 10.8379 29.9319 10.4254C29.4694 9.23789 28.4631 8.38164 27.2694 8.17539L26.8194 8.10039L26.8006 6.68789L26.7819 5.27539L26.5756 4.86289C26.3506 4.40039 25.9818 4.03789 25.5131 3.80039L25.2193 3.65664L21.9068 3.62539L18.5943 3.59414L18.1818 2.45039C17.6881 1.09414 17.6131 0.937887 17.2631 0.612887C16.8881 0.269136 16.4068 0.0628868 15.8943 0.0253868C15.5381 0.000386809 15.3818 0.0253864 14.9381 0.175386ZM15.9193 1.92539C16.0068 1.98164 16.1131 2.21914 16.4006 3.02539L16.6068 3.60664L16.0943 3.64414C15.6693 3.66914 15.5068 3.70664 15.1943 3.87539C14.7381 4.11914 14.4193 4.45664 14.1943 4.93164C14.0381 5.27539 14.0318 5.31914 14.0131 6.70039L13.9943 8.12539H9.60685H5.21935L4.85685 7.14414C4.5381 6.27539 4.50685 6.15039 4.5881 6.03789C4.6506 5.93789 6.1131 5.38164 10.1631 3.90039C13.1818 2.79414 15.7006 1.88789 15.7506 1.88164C15.8006 1.88164 15.8756 1.90039 15.9193 1.92539ZM24.8381 5.60039C24.9193 5.68164 24.9381 5.88789 24.9381 6.91289V8.12539H20.4068H15.8756V6.91289C15.8756 5.88789 15.8943 5.68164 15.9756 5.60039C16.0631 5.51289 16.5506 5.50039 20.4068 5.50039C24.2631 5.50039 24.7506 5.51289 24.8381 5.60039ZM27.2069 10.0879C27.5506 10.2129 27.8506 10.4691 28.0444 10.8004L28.2194 11.0941L28.2381 13.2004L28.2569 15.3066L26.0819 15.3254L23.9068 15.3441L23.4068 15.5191C21.8193 16.0754 20.7006 17.2504 20.2756 18.8129C20.1318 19.3191 20.1193 20.5629 20.2443 21.0566C20.5881 22.4129 21.5068 23.5691 22.7131 24.1566C23.6818 24.6316 23.7568 24.6441 26.1444 24.6754L28.2506 24.6941V26.7441C28.2506 29.0504 28.2319 29.1879 27.8194 29.6129C27.6944 29.7441 27.4756 29.9066 27.3444 29.9691C27.1006 30.0941 26.8943 30.0941 15.0631 30.0941C3.23185 30.0941 3.0256 30.0941 2.78185 29.9691C2.6506 29.9066 2.43185 29.7379 2.30685 29.6066C1.84435 29.1316 1.86935 29.7879 1.8881 19.9379L1.90685 11.0941L2.08185 10.8004C2.2756 10.4691 2.5756 10.2129 2.91935 10.0879C3.26935 9.96289 26.8569 9.96289 27.2069 10.0879ZM30.0256 17.2879C30.1131 17.3691 30.1256 17.7066 30.1256 19.9816C30.1256 22.3129 30.1131 22.5941 30.0194 22.7004C29.9256 22.8066 29.7569 22.8129 27.2256 22.8129C24.3069 22.8129 24.1506 22.8004 23.4881 22.4629C22.8256 22.1254 22.2318 21.3379 22.0693 20.5754C21.8256 19.4066 22.3506 18.2004 23.3818 17.5816C24.0068 17.2066 24.1256 17.1941 27.1693 17.1941C29.6006 17.1879 29.9381 17.2004 30.0256 17.2879Z" fill="black"/>
<path d="M24.3889 19.1687C23.7139 19.5 23.7264 20.4812 24.4077 20.8125C24.5514 20.8813 24.7327 20.9375 24.8139 20.9375C25.0952 20.9375 25.4702 20.7 25.6202 20.4312C26.0639 19.6437 25.2077 18.7625 24.3889 19.1687Z" fill="black"/>
</g>
<defs>
<clipPath id="clip0_1204_3012">
<rect width="32" height="32" fill="white"/>
</clipPath>
</defs>
</svg>
