<svg width="32" height="32" viewBox="0 0 32 32" fill="none" xmlns="http://www.w3.org/2000/svg">
<g clip-path="url(#clip0_233_1952)">
<path d="M27.4565 4.54286C24.5252 1.61219 20.6252 0 16.4815 0C14.4315 0 12.4315 0.399922 10.544 1.18102C8.65645 1.96212 6.9627 3.09315 5.5127 4.54286C2.5752 7.47354 0.962702 11.3728 0.962702 15.5157C0.962702 17.9902 1.55645 20.446 2.6877 22.6331L0.081452 30.0816C-0.0997981 30.6065 0.0252019 31.1814 0.418952 31.5751C0.693952 31.85 1.05645 32 1.43145 32C1.59395 32 1.7502 31.975 1.9127 31.9188L9.3627 29.3068C11.5502 30.4378 14.0065 31.0314 16.4815 31.0314C20.6252 31.0314 24.5252 29.4193 27.4565 26.4886C30.3877 23.5579 32.0002 19.6587 32.0002 15.5157C32.0002 11.3728 30.3877 7.47354 27.4565 4.54286ZM26.1252 25.1576C23.5502 27.7321 20.1252 29.1506 16.4815 29.1506C14.2502 29.1506 12.0377 28.6007 10.0752 27.5571C9.71895 27.3697 9.3002 27.3384 8.9252 27.4696L2.15645 29.8379L4.5252 23.0705C4.65645 22.6956 4.6252 22.2707 4.4377 21.9207C3.39395 19.9586 2.8377 17.7465 2.8377 15.5157C2.8377 11.8727 4.25645 8.44835 6.83145 5.87385C9.40645 3.29936 12.8315 1.88088 16.4752 1.88088C20.1252 1.87463 23.5502 3.29311 26.1252 5.87385C28.7002 8.44835 30.119 11.8727 30.119 15.5157C30.119 19.1588 28.7065 22.5831 26.1252 25.1576Z" fill="white"/>
<path d="M22.2495 16.9046C21.537 16.1922 20.3745 16.1922 19.662 16.9046L18.8807 17.6857C16.9432 16.6296 15.3745 15.0612 14.3182 13.124L15.0995 12.3429C15.812 11.6306 15.812 10.4683 15.0995 9.75595L12.9932 7.65012C12.2807 6.93775 11.1182 6.93775 10.4057 7.65012L8.72445 9.33104C7.76195 10.2933 7.71195 11.9493 8.58695 13.9989C9.34945 15.7735 10.7432 17.7294 12.512 19.4916C14.2807 21.2537 16.2307 22.6534 18.0057 23.4158C18.9807 23.8345 19.862 24.0407 20.6245 24.0407C21.4682 24.0407 22.1682 23.7845 22.6745 23.2783L24.3557 21.5974C24.6995 21.2537 24.8932 20.7913 24.8932 20.3039C24.8932 19.8165 24.7057 19.3541 24.3557 19.0104L22.2495 16.9046ZM21.3432 21.9536C21.0682 22.2285 20.2245 22.3222 18.7432 21.6911C17.1807 21.0225 15.437 19.7727 13.837 18.1668C12.237 16.5609 10.9807 14.8237 10.312 13.2615C9.6807 11.7806 9.77445 10.937 10.0495 10.662L11.6995 9.01235L13.737 11.0495L12.762 12.0243C12.3182 12.4679 12.212 13.1365 12.4995 13.6927C13.787 16.2109 15.7932 18.2231 18.312 19.5041C18.8682 19.7852 19.537 19.679 19.9807 19.2416L20.9557 18.2668L22.9932 20.3039L21.3432 21.9536Z" fill="white"/>
</g>
<defs>
<clipPath id="clip0_233_1952">
<rect width="32" height="32" fill="white"/>
</clipPath>
</defs>
</svg>
