<svg width="18" height="14" viewBox="0 0 18 14" fill="none" xmlns="http://www.w3.org/2000/svg">
<path d="M17.8207 3.404C17.8207 3.404 17.6449 2.16299 17.1035 1.61807C16.418 0.900879 15.6516 0.897363 15.3 0.855176C12.7828 0.672363 9.00352 0.672363 9.00352 0.672363H8.99648C8.99648 0.672363 5.21719 0.672363 2.7 0.855176C2.34844 0.897363 1.58203 0.900879 0.896484 1.61807C0.355078 2.16299 0.182812 3.404 0.182812 3.404C0.182812 3.404 0 4.86299 0 6.31846V7.68252C0 9.13799 0.179297 10.597 0.179297 10.597C0.179297 10.597 0.355078 11.838 0.892969 12.3829C1.57852 13.1001 2.47852 13.0755 2.8793 13.1528C4.3207 13.2899 9 13.3321 9 13.3321C9 13.3321 12.7828 13.3251 15.3 13.1458C15.6516 13.1036 16.418 13.1001 17.1035 12.3829C17.6449 11.838 17.8207 10.597 17.8207 10.597C17.8207 10.597 18 9.1415 18 7.68252V6.31846C18 4.86299 17.8207 3.404 17.8207 3.404ZM7.14023 9.33838V4.27939L12.0023 6.81768L7.14023 9.33838Z" fill="#F5C946"/>
</svg>
