<svg width="25" height="25" viewBox="0 0 25 25" fill="none" xmlns="http://www.w3.org/2000/svg">
<circle cx="12.5" cy="12.5" r="12.5" fill="white"/>
<path d="M25 12.5014C25 5.59705 19.4036 0 12.5 0C5.59643 0 0 5.59705 0 12.5014C0 18.7412 4.57107 23.9131 10.5468 24.8509V16.115H7.37304V12.5014H10.5468V9.74717C10.5468 6.61401 12.413 4.88335 15.2683 4.88335C16.6359 4.88335 18.0664 5.12752 18.0664 5.12752V8.20403H16.4902C14.9374 8.20403 14.4532 9.16768 14.4532 10.1563V12.5014H17.9199L17.3658 16.115H14.4532V24.8509C20.4289 23.9131 25 18.7412 25 12.5014Z" fill="#3187F7"/>
</svg>
