<svg width="30" height="20" viewBox="0 0 30 20" fill="none" xmlns="http://www.w3.org/2000/svg">
<g clip-path="url(#clip0_233_1874)">
<path d="M0 0V20H30V0H0Z" fill="#012169"/>
<path d="M0 0L30 20L0 0ZM30 0L0 20Z" fill="black"/>
<path fill-rule="evenodd" clip-rule="evenodd" d="M11.5017 10L-0.925781 1.71501L0.926404 -1.71497L15.0003 7.66764L29.0742 -1.71497L30.9264 1.71501L18.4989 10L30.9264 18.285L29.0742 21.715L15.0003 12.3324L0.926404 21.715L-0.925781 18.285L11.5017 10Z" fill="white"/>
<path d="M0 0L30 20L0 0ZM30 0L0 20Z" fill="black"/>
<path fill-rule="evenodd" clip-rule="evenodd" d="M12.6678 10L-0.617188 1.14334L0.617602 -1.14331L15.0002 8.44509L29.3828 -1.14331L30.6176 1.14334L17.3326 10L30.6176 18.8567L29.3828 21.1433L15.0002 11.5549L0.617602 21.1433L-0.617188 18.8567L12.6678 10Z" fill="#C8102E"/>
<path d="M-0.599609 7.33337H12.6004V-0.666626H17.4004V7.33337H30.6004V12.6667H17.4004V20.6667H12.6004V12.6667H-0.599609V7.33337Z" fill="#C8102E"/>
<path fill-rule="evenodd" clip-rule="evenodd" d="M12.0008 -1.33337H18.0008V6.66663H31.2008V13.3333H18.0008V21.3333H12.0008V13.3333H-1.19922V6.66663H12.0008V-1.33337ZM13.2008 -4.07696e-05V7.99996H0.000781298V12H13.2008V20H16.8008V12H30.0008V7.99996H16.8008V-4.07696e-05H13.2008Z" fill="white"/>
</g>
<defs>
<clipPath id="clip0_233_1874">
<rect width="30" height="20" fill="white"/>
</clipPath>
</defs>
</svg>
