<svg width="25" height="25" viewBox="0 0 25 25" fill="none" xmlns="http://www.w3.org/2000/svg">
<circle cx="12.5" cy="12.5" r="12.5" fill="url(#paint0_radial_233_1919)"/>
<circle cx="12.5" cy="12.5" r="12.5" fill="url(#paint1_radial_233_1919)"/>
<path d="M12.5005 5C10.4637 5 10.208 5.00891 9.40801 5.04531C8.60957 5.08188 8.06456 5.20828 7.58768 5.39375C7.0944 5.58531 6.67596 5.84156 6.25908 6.25859C5.84188 6.67547 5.58563 7.09391 5.39344 7.58703C5.2075 8.06406 5.08094 8.60922 5.045 9.40734C5.00938 10.2073 5 10.4631 5 12.5C5 14.5369 5.00906 14.7917 5.04531 15.5917C5.08203 16.3902 5.20844 16.9352 5.39375 17.412C5.58547 17.9053 5.84173 18.3238 6.25876 18.7406C6.67549 19.1578 7.09393 19.4147 7.5869 19.6063C8.06409 19.7917 8.60926 19.9181 9.40755 19.9547C10.2076 19.9911 10.463 20 12.4998 20C14.5368 20 14.7917 19.9911 15.5917 19.9547C16.3901 19.9181 16.9357 19.7917 17.4129 19.6063C17.9061 19.4147 18.3239 19.1578 18.7406 18.7406C19.1578 18.3238 19.4141 17.9053 19.6062 17.4122C19.7906 16.9352 19.9172 16.39 19.9547 15.5919C19.9906 14.7919 20 14.5369 20 12.5C20 10.4631 19.9906 10.2075 19.9547 9.4075C19.9172 8.60906 19.7906 8.06406 19.6062 7.58719C19.4141 7.09391 19.1578 6.67547 18.7406 6.25859C18.3234 5.84141 17.9062 5.58516 17.4125 5.39375C16.9343 5.20828 16.389 5.08188 15.5906 5.04531C14.7906 5.00891 14.5359 5 12.4984 5H12.5005ZM11.8277 6.35156C12.0274 6.35125 12.2502 6.35156 12.5005 6.35156C14.5031 6.35156 14.7404 6.35875 15.5312 6.39469C16.2625 6.42813 16.6593 6.55031 16.9237 6.65297C17.2737 6.78891 17.5233 6.95141 17.7856 7.21391C18.0481 7.47641 18.2106 7.72641 18.3469 8.07641C18.4495 8.34047 18.5719 8.73734 18.6051 9.46859C18.6411 10.2592 18.6489 10.4967 18.6489 12.4983C18.6489 14.4998 18.6411 14.7373 18.6051 15.528C18.5717 16.2592 18.4495 16.6561 18.3469 16.9202C18.2109 17.2702 18.0481 17.5194 17.7856 17.7817C17.5231 18.0442 17.2739 18.2067 16.9237 18.3427C16.6597 18.4458 16.2625 18.5677 15.5312 18.6011C14.7406 18.637 14.5031 18.6448 12.5005 18.6448C10.4979 18.6448 10.2605 18.637 9.46989 18.6011C8.73863 18.5673 8.34175 18.4452 8.07722 18.3425C7.72722 18.2066 7.47721 18.0441 7.21471 17.7816C6.95221 17.5191 6.78971 17.2697 6.65345 16.9195C6.5508 16.6555 6.42845 16.2586 6.39517 15.5273C6.35923 14.7367 6.35205 14.4992 6.35205 12.4964C6.35205 10.4936 6.35923 10.2573 6.39517 9.46672C6.42861 8.73547 6.5508 8.33859 6.65345 8.07422C6.78939 7.72422 6.95221 7.47422 7.21471 7.21172C7.47721 6.94922 7.72722 6.78672 8.07722 6.65047C8.3416 6.54734 8.73863 6.42547 9.46989 6.39188C10.1618 6.36063 10.4299 6.35125 11.8277 6.34969V6.35156ZM16.504 7.59687C16.326 7.59687 16.152 7.64967 16.004 7.74857C15.856 7.84748 15.7406 7.98806 15.6725 8.15253C15.6044 8.317 15.5866 8.49798 15.6213 8.67257C15.6561 8.84716 15.7418 9.00753 15.8677 9.13338C15.9936 9.25924 16.154 9.34493 16.3286 9.37962C16.5032 9.41431 16.6842 9.39644 16.8487 9.32828C17.0131 9.26011 17.1537 9.14471 17.2525 8.99666C17.3514 8.84862 17.4041 8.67458 17.404 8.49656C17.404 7.99969 17.0009 7.59656 16.504 7.59656V7.59687ZM12.5005 8.64844C10.3735 8.64844 8.64894 10.373 8.64894 12.5C8.64894 14.627 10.3735 16.3508 12.5005 16.3508C14.6276 16.3508 16.3517 14.627 16.3517 12.5C16.3517 10.373 14.6274 8.64844 12.5004 8.64844H12.5005ZM12.5005 10C13.8812 10 15.0006 11.1192 15.0006 12.5C15.0006 13.8806 13.8812 15 12.5005 15C11.1198 15 10.0005 13.8806 10.0005 12.5C10.0005 11.1192 11.1198 10 12.5005 10V10Z" fill="white"/>
<defs>
<radialGradient id="paint0_radial_233_1919" cx="0" cy="0" r="1" gradientUnits="userSpaceOnUse" gradientTransform="translate(6.64066 26.9255) rotate(-90) scale(24.7768 23.0444)">
<stop stop-color="#FFDD55"/>
<stop offset="0.1" stop-color="#FFDD55"/>
<stop offset="0.5" stop-color="#FF543E"/>
<stop offset="1" stop-color="#C837AB"/>
</radialGradient>
<radialGradient id="paint1_radial_233_1919" cx="0" cy="0" r="1" gradientUnits="userSpaceOnUse" gradientTransform="translate(-4.18763 1.80096) rotate(78.6806) scale(11.0754 45.6531)">
<stop stop-color="#3771C8"/>
<stop offset="0.128" stop-color="#3771C8"/>
<stop offset="1" stop-color="#6600FF" stop-opacity="0"/>
</radialGradient>
</defs>
</svg>
