<svg width="25" height="25" viewBox="0 0 25 25" fill="none" xmlns="http://www.w3.org/2000/svg">
<path d="M25 12.5C25 19.4036 19.4036 25 12.5 25C5.59644 25 0 19.4036 0 12.5C0 5.59644 5.59644 0 12.5 0C19.4036 0 25 5.59644 25 12.5Z" fill="#0096DB"/>
<path fill-rule="evenodd" clip-rule="evenodd" d="M12.7363 5.625C13.2057 5.625 13.5897 6.00916 13.5897 6.47845V9.65113C13.5897 10.1206 13.2057 10.5047 12.7363 10.5047C12.2668 10.5047 11.8828 10.1206 11.8828 9.65113V6.47845C11.8828 6.00916 12.2668 5.625 12.7363 5.625Z" fill="#FEFEFE"/>
<path fill-rule="evenodd" clip-rule="evenodd" d="M6.29164 10.3074C6.43668 9.86095 6.92053 9.61439 7.36699 9.75943L10.3843 10.7399C10.8309 10.8849 11.0774 11.3688 10.9323 11.8153C10.7873 12.2617 10.3033 12.5083 9.85691 12.3632L6.83951 11.3829C6.3931 11.2377 6.1465 10.7539 6.29164 10.3074V10.3074Z" fill="#FEFEFE"/>
<path fill-rule="evenodd" clip-rule="evenodd" d="M8.75323 17.8834C8.37349 17.6075 8.28857 17.0711 8.56445 16.6913L10.4293 14.1246C10.7051 13.7448 11.2416 13.6598 11.6214 13.9358C12.0012 14.2117 12.0861 14.7481 11.8102 15.1278L9.94533 17.6946C9.66944 18.0744 9.13302 18.1594 8.75323 17.8834Z" fill="#FEFEFE"/>
<path fill-rule="evenodd" clip-rule="evenodd" d="M16.7191 17.8832C16.3393 18.1591 15.8029 18.0741 15.5269 17.6944L13.6622 15.1276C13.3862 14.7478 13.4712 14.2114 13.8509 13.9355C14.2307 13.6596 14.7672 13.7446 15.043 14.1242L16.9079 16.691C17.1838 17.0708 17.0988 17.6072 16.7191 17.8832V17.8832Z" fill="#FEFEFE"/>
<path fill-rule="evenodd" clip-rule="evenodd" d="M19.1804 10.3072C19.3255 10.7536 19.079 11.2376 18.6324 11.3826L15.6151 12.3629C15.1686 12.508 14.6848 12.2615 14.5397 11.815C14.3946 11.3686 14.6411 10.8847 15.0876 10.7396L18.105 9.75918C18.5513 9.61414 19.0353 9.86075 19.1804 10.3072V10.3072Z" fill="#FEFEFE"/>
</svg>
