<svg width="25" height="25" viewBox="0 0 25 25" fill="none" xmlns="http://www.w3.org/2000/svg">
<path d="M25 12.5C25 19.4036 19.4036 25 12.5 25C5.59644 25 0 19.4036 0 12.5C0 5.59644 5.59644 0 12.5 0C19.4036 0 25 5.59644 25 12.5Z" fill="#0088CC"/>
<path fill-rule="evenodd" clip-rule="evenodd" d="M6.75619 12.7354C9.70897 11.1831 11.678 10.1597 12.6631 9.6652C15.4761 8.25343 16.0605 8.00818 16.4415 8.00009C16.5253 7.99831 16.7126 8.02336 16.834 8.14219C16.9365 8.24252 16.9647 8.37805 16.9782 8.47318C16.9917 8.5683 17.0085 8.785 16.9951 8.95432C16.8427 10.8869 16.1831 15.5769 15.8476 17.7415C15.7055 18.6574 15.426 18.9645 15.1553 18.9945C14.5671 19.0599 14.1204 18.5255 13.5508 18.0748C12.6593 17.3697 12.1557 16.9308 11.2903 16.2427C10.2903 15.4475 10.9386 15.0104 11.5085 14.2961C11.6576 14.1092 14.2493 11.2647 14.2994 11.0067C14.3057 10.9744 14.3115 10.8541 14.2523 10.7906C14.1931 10.7271 14.1057 10.7488 14.0426 10.7661C13.9532 10.7905 12.529 11.9264 9.77017 14.1736C9.36593 14.5086 8.99979 14.6717 8.67173 14.6632C8.31008 14.6538 7.6144 14.4164 7.09724 14.2136C6.46291 13.9648 5.95876 13.8332 6.00266 13.4107C6.02553 13.1906 6.27671 12.9655 6.75619 12.7354Z" fill="white"/>
</svg>
