<svg width="25" height="25" viewBox="0 0 25 25" fill="none" xmlns="http://www.w3.org/2000/svg">
<circle cx="12.5" cy="12.5" r="12.5" fill="#00ACEE"/>
<path d="M15.3833 6.57033C15.0747 6.64064 14.8872 6.70705 14.6216 6.83986C13.7505 7.27345 13.1294 8.04298 12.8794 8.99611C12.7935 9.33595 12.7622 9.98048 12.8169 10.3203L12.8521 10.5117L12.4849 10.4883C11.188 10.4024 9.7583 9.93751 8.54736 9.20314C7.8794 8.8008 7.39111 8.41017 6.73486 7.75783C6.03565 7.05861 6.09815 7.07423 5.91455 7.53908C5.60986 8.33205 5.58252 9.0508 5.84033 9.77345C6.03955 10.336 6.46143 10.9492 6.88721 11.2969L7.10986 11.4766H6.98486C6.7583 11.4766 6.26221 11.3555 5.96143 11.2227L5.65674 11.0938V11.2891C5.65674 11.9766 6.02002 12.8086 6.5708 13.3828C6.97705 13.8086 7.37549 14.0625 7.9419 14.25L8.2544 14.3555L7.91846 14.4063C7.72315 14.4336 7.41455 14.4492 7.18408 14.4375C6.71924 14.4141 6.73096 14.3789 7.01221 14.918C7.3169 15.5 7.8169 16.0039 8.39111 16.2969C8.80908 16.5117 9.02783 16.582 9.46143 16.6445L9.80908 16.6953L9.65674 16.8164C9.57471 16.8828 9.38721 17.0078 9.24268 17.0977C8.10987 17.7852 6.84815 18.1172 5.52393 18.0703C4.9458 18.0469 4.9458 18.0508 5.52002 18.3594C7.48486 19.4141 9.60596 19.7539 11.8091 19.3633C15.1411 18.7735 17.7896 16.3985 18.8794 13.0352C19.1724 12.1289 19.3286 11.1719 19.3286 10.2852V9.76564L19.5552 9.59767C19.9731 9.28126 20.6255 8.58595 20.9106 8.14455L20.981 8.03908L20.7974 8.1172C20.3989 8.28517 19.2427 8.58986 19.1919 8.53908C19.1841 8.53126 19.3013 8.4297 19.4536 8.31251C19.8872 7.98048 20.3013 7.41408 20.481 6.90236L20.5317 6.75783L20.0591 6.98439C19.6138 7.19923 19.0786 7.39064 18.6567 7.49611L18.4692 7.53908L18.2661 7.35548C17.856 6.98439 17.3599 6.72267 16.8169 6.59376C16.4458 6.50392 15.7349 6.4922 15.3833 6.57033Z" fill="white"/>
</svg>
