<svg width="25" height="25" viewBox="0 0 25 25" fill="none" xmlns="http://www.w3.org/2000/svg">
<circle cx="12.5" cy="12.5" r="12.5" fill="#7360F2"/>
<path d="M10.5583 5.64333C10.2031 5.67629 9.69409 5.78615 9.35352 5.89968C8.54785 6.16701 7.95093 6.54055 7.31372 7.17409C6.67651 7.8113 6.28833 8.42654 6.021 9.2322C5.78296 9.93899 5.7793 9.99392 5.7793 12.0081C5.7793 13.6377 5.78662 13.8721 5.84521 14.1394C6.18579 15.6812 7.1416 16.9959 8.45264 17.71L8.74561 17.8711L8.75293 19.1858C8.76392 20.4785 8.76392 20.5042 8.84082 20.5664C9.02026 20.7166 9.04224 20.7019 10.2471 19.5008L11.3823 18.3655L13.0852 18.3509C14.6489 18.3362 14.8137 18.3289 15.0994 18.263C16.978 17.8052 18.4026 16.5125 18.9922 14.7364C19.2156 14.0625 19.2192 14.0003 19.2192 12.0081C19.2192 10.3784 19.2119 10.1441 19.1533 9.86574C18.9373 8.85134 18.4832 7.99074 17.7764 7.25832C16.8901 6.33181 15.8062 5.79714 14.5427 5.65798C14.2205 5.62136 10.8953 5.61037 10.5583 5.64333ZM13.8835 7.76369C15.4875 8.09328 16.6741 9.53982 16.6741 11.1658C16.6741 11.4624 16.6301 11.8689 16.5789 12.0374C16.5496 12.1363 16.3665 12.2168 16.2566 12.1729C16.1064 12.1179 16.0771 12.0191 16.1284 11.7334C16.1541 11.5833 16.165 11.3159 16.1541 11.0523C16.1211 10.3125 15.8611 9.69363 15.363 9.16262C14.7771 8.54372 14.1252 8.25075 13.2207 8.19582C12.8984 8.17385 12.8032 8.15554 12.7483 8.10061C12.6604 8.01272 12.6641 7.92116 12.7593 7.80031C12.8325 7.70876 12.8472 7.7051 13.217 7.7051C13.4294 7.7051 13.7297 7.73073 13.8835 7.76369ZM10.2068 8.60232C10.3533 8.6719 11.5471 9.87307 11.6313 10.0379C11.8401 10.4407 11.6753 10.8765 11.2395 11.0742C10.8696 11.239 10.6719 11.5357 10.7195 11.8543C10.833 12.5794 11.7961 13.667 12.5908 13.9636C13.0413 14.1321 13.4185 13.9929 13.6309 13.5718C13.748 13.3411 13.8945 13.1873 14.0483 13.1287C14.1912 13.0738 14.4915 13.0774 14.6343 13.1397C14.7625 13.1909 15.9746 14.4104 16.0918 14.6009C16.1833 14.7547 16.1833 15.0696 16.0918 15.2674C16.0039 15.4578 15.1726 16.2744 14.9529 16.3843C14.5134 16.6114 13.7188 16.4832 12.8545 16.051C12.5652 15.9046 11.7888 15.3919 11.4556 15.1209C9.9541 13.916 8.70166 12.1912 8.39404 10.9058C8.28418 10.4334 8.30249 9.96096 8.44897 9.69363C8.58813 9.43728 9.43774 8.60232 9.60986 8.55105C9.76733 8.50344 10.0457 8.52541 10.2068 8.60232ZM13.7957 8.76711C14.2388 8.88064 14.5574 9.0674 14.9199 9.42629C15.4143 9.91701 15.6487 10.4627 15.6523 11.1328C15.656 11.3233 15.6377 11.5027 15.6121 11.5467C15.5498 11.6675 15.4106 11.7078 15.2825 11.6419C15.1506 11.5759 15.125 11.4917 15.1543 11.2464C15.1836 10.9973 15.0957 10.5762 14.9529 10.2832C14.8137 9.99758 14.4841 9.64602 14.2021 9.48122C13.8726 9.28347 13.5649 9.2029 13.1658 9.2029C12.7776 9.19924 12.6824 9.15163 12.6824 8.95022C12.6824 8.75246 12.7959 8.69387 13.1768 8.69387C13.3928 8.69387 13.6162 8.7195 13.7957 8.76711ZM13.8286 9.86208C14.29 10.0855 14.616 10.5579 14.6526 11.0376C14.6672 11.2537 14.6599 11.294 14.5903 11.3635C14.4182 11.5357 14.2095 11.3965 14.1729 11.0852C14.1436 10.8362 14.0447 10.6458 13.8433 10.4627C13.6785 10.3089 13.4001 10.1953 13.1914 10.1953C13.1255 10.1953 13.0632 10.1624 13.0156 10.1001C12.9204 9.97561 12.9204 9.93532 13.0193 9.81081C13.0925 9.7156 13.1072 9.71194 13.3489 9.72658C13.5283 9.74123 13.6638 9.77785 13.8286 9.86208Z" fill="white"/>
</svg>
