<svg width="25" height="25" viewBox="0 0 25 25" fill="none" xmlns="http://www.w3.org/2000/svg">
<circle cx="12.5" cy="12.5" r="12.5" fill="white"/>
<path d="M7.89242 0.873433C11.0361 -0.375859 14.6981 -0.289482 17.758 1.16155C16.8861 1.02948 15.9992 1.12906 15.1361 1.27454C12.7921 1.71594 10.5645 2.81559 8.82332 4.44928C7.1538 6.08549 5.98386 8.25646 5.65343 10.5791C5.43486 12.2249 5.63747 13.9511 6.37815 15.4491C7.14141 17.0208 8.48494 18.3098 10.1043 18.9751C11.6646 19.6335 13.4746 19.6262 15.0551 19.0386C17.4266 18.1708 19.1305 15.8278 19.3253 13.3246C19.4479 11.6839 19.0477 9.93863 17.9422 8.68029C16.8869 7.44856 15.3434 6.7701 13.7988 6.38391C13.716 4.86505 14.4337 3.36456 15.5718 2.37677C16.2039 1.80852 16.9883 1.44631 17.7994 1.21452L17.861 1.19332C20.183 2.30354 22.156 4.13455 23.4131 6.38239C24.4901 8.29615 25.0519 10.5015 24.9962 12.6982C24.9856 15.5389 23.9207 18.3514 22.0952 20.5234C20.369 22.5948 17.9546 24.0848 15.3232 24.6814C12.6847 25.2884 9.84608 25.0266 7.3768 23.9085C4.96064 22.8326 2.91366 20.9622 1.61146 18.6614C0.528228 16.7494 -0.0448157 14.5449 0.00273925 12.3456C0.00790539 9.60534 0.983841 6.88619 2.6878 4.74335C4.04888 3.03232 5.85451 1.67182 7.89242 0.873433V0.873433Z" fill="#E60000"/>
</svg>
