<svg width="25" height="25" viewBox="0 0 25 25" fill="none" xmlns="http://www.w3.org/2000/svg">
<path d="M25 12.5C25 19.4036 19.4036 25 12.5 25C5.59644 25 0 19.4036 0 12.5C0 5.59644 5.59644 0 12.5 0C19.4036 0 25 5.59644 25 12.5Z" fill="#4FC53D"/>
<path d="M12.1888 7.00636C9.28374 7.14469 6.99121 9.56407 7.00003 12.4725C7.00271 13.3583 7.21656 14.1944 7.59381 14.9331L7.0146 17.7447C6.98327 17.8967 7.12043 18.0299 7.27152 17.9941L10.0265 17.3414C10.7343 17.694 11.5293 17.8976 12.3707 17.9105C15.34 17.9559 17.8159 15.5982 17.9084 12.63C18.0076 9.44829 15.3816 6.8543 12.1888 7.00636ZM15.4761 15.4762C14.6693 16.283 13.5966 16.7273 12.4556 16.7273C11.7875 16.7273 11.1478 16.5774 10.5544 16.2818L10.1707 16.0907L8.4816 16.4909L8.83714 14.7649L8.64813 14.3948C8.34004 13.7914 8.18383 13.139 8.18383 12.4556C8.18383 11.3145 8.62816 10.2418 9.43498 9.43498C10.2346 8.63537 11.3248 8.1838 12.4556 8.1838C13.5966 8.18383 14.6693 8.62816 15.4762 9.43495C16.283 10.2418 16.7273 11.3145 16.7273 12.4555C16.7273 13.5863 16.2757 14.6766 15.4761 15.4762Z" fill="white"/>
<path d="M15.1035 13.6385L14.0468 13.3351C13.9078 13.2952 13.7582 13.3346 13.657 13.4378L13.3986 13.701C13.2896 13.8121 13.1243 13.8477 12.9801 13.7894C12.4802 13.5871 11.4286 12.6521 11.1601 12.1845C11.0826 12.0495 11.0954 11.8809 11.1905 11.7578L11.4161 11.4659C11.5045 11.3516 11.5232 11.198 11.4647 11.0658L11.0201 10.0602C10.9136 9.81939 10.6059 9.74928 10.4048 9.91933C10.1099 10.1688 9.75992 10.5478 9.71739 10.9678C9.64238 11.7082 9.95992 12.6415 11.1607 13.7622C12.5478 15.0569 13.6587 15.228 14.382 15.0528C14.7922 14.9534 15.1201 14.5551 15.3269 14.2289C15.468 14.0065 15.3566 13.7112 15.1035 13.6385Z" fill="white"/>
</svg>
