<svg width="159" height="50" viewBox="0 0 159 50" fill="none" xmlns="http://www.w3.org/2000/svg">
<path d="M28.328 0L28.5714 11.0041L28.4335 10.9087L7.44107 26.2253V42.5127L28.3523 34.8504L28.5714 34.9379V50H0V23.8463L28.328 0Z" fill="#30BCEC"/>
<path d="M55.7151 21.4036V29.1057L50.1892 30.3708L55.7151 33.633V50H28.5723L28.5955 34.8504L47.8551 42.5127V38.0092L28.5723 29.5194L28.58 17.6082L48.4425 29.3364L54.0535 27.9758L28.6727 10.9087L28.5723 0L55.7151 21.4036Z" fill="#073B52"/>
<path d="M28.0123 27.8176V29.6004L47.6233 37.9895V42.4944L28.0123 34.9809V36.8195L48.8803 44.532V37.0901L28.0123 27.8176ZM28.0123 27.8176V29.6004L47.6233 37.9895V42.4944L28.0123 34.9809V36.8195L48.8803 44.532V37.0901L28.0123 27.8176ZM55.7143 21.4502L27.7736 0L0 23.838V50H55.6904V33.6437L50.002 30.3725L55.6904 29.1149L55.7143 21.4502ZM48.2279 29.4094L28.0123 17.7491L27.7816 17.6138L12.0053 27.73V36.1032L27.6463 29.4731L28.0123 29.6323L47.6233 38.0213V42.5263L28.0123 34.9809L27.7975 34.8933L7.29545 42.5581V26.2257L27.877 10.9042L28.0123 10.9997L54.0038 27.9768L48.2279 29.4094ZM54.4573 26.9659L28.0123 9.14518L27.8532 9.03375L6.00661 25.7482V44.4524L27.7657 36.7001L28.0123 36.7956L48.8803 44.532V37.0901L28.0123 27.8176L27.7657 27.7061L13.5407 33.7472V28.2315L27.7657 19.3808L28.0123 19.5161L54.4573 34.384V48.8937H1.0979V24.3951L27.8532 1.8943L28.0123 2.01369L54.4573 21.9118V26.9659ZM28.0123 27.8176V29.6004L47.6233 37.9895V42.4944L28.0123 34.9809V36.8195L48.8803 44.532V37.0901L28.0123 27.8176ZM28.0123 27.8176V29.6004L47.6233 37.9895V42.4944L28.0123 34.9809V36.8195L48.8803 44.532V37.0901L28.0123 27.8176Z" fill="url(#paint0_linear_233_1897)"/>
<path d="M55.7143 48.5714H0V50H55.7143V48.5714Z" fill="#007DB4"/>
<path d="M77.1429 48.5714H60V50H77.1429V48.5714Z" fill="#007DB4"/>
<path d="M28.5709 18.5714L14.2852 28.2658V34.2857L28.5709 27.6925V18.5714Z" fill="#2EBDEE"/>
<path d="M68.4153 11.7906C67.6395 12.1105 66.9394 12.5783 66.3574 13.1656C65.7636 13.7665 65.3017 14.4759 64.999 15.2516C64.3372 16.9386 64.3372 18.7992 64.999 20.4862C65.3078 21.2543 65.7692 21.9575 66.3574 22.5565C66.9394 23.1439 67.6395 23.6117 68.4153 23.9316C69.2335 24.2635 70.1137 24.431 71.0019 24.4238C72.3698 24.4785 73.7098 24.0412 74.7598 23.1972C75.75 22.3596 76.4296 21.2353 76.6957 19.9939H70.3024V17.2751H79.998C80.0174 18.6546 79.7862 20.0267 79.3148 21.3299C78.8993 22.4795 78.2557 23.5408 77.4196 24.455C76.632 25.3059 75.6641 25.9852 74.5808 26.4473C73.4701 26.9122 72.2704 27.1491 71.0588 27.1426C69.7549 27.1513 68.4617 26.9151 67.2521 26.4473C66.1063 26.0005 65.066 25.3361 64.1938 24.4941C62.3965 22.7204 61.4024 20.336 61.4282 17.8611C61.4155 16.5974 61.6644 15.344 62.1603 14.1735C62.6226 13.0729 63.3083 12.0716 64.1775 11.2281C65.0453 10.3881 66.0797 9.7239 67.2196 9.27487C68.4217 8.80045 69.7104 8.56139 71.01 8.57173C71.9348 8.56605 72.8554 8.68975 73.743 8.93893C74.5668 9.17165 75.3505 9.51911 76.0693 9.97022C76.7733 10.4166 77.4085 10.9558 77.9564 11.5718C78.5023 12.2001 78.9616 12.8933 79.3229 13.6344H75.9067C75.3557 12.9276 74.647 12.3483 73.8325 11.939C72.9485 11.499 71.9648 11.2763 70.9694 11.2906C70.0911 11.2854 69.2214 11.4557 68.4153 11.7906V11.7906Z" fill="#1D1D1B"/>
<path d="M97.6116 16.1002C97.4239 16.7079 97.1223 17.2731 96.7234 17.7647C96.2944 18.278 95.7696 18.7002 95.1792 19.007C94.488 19.362 93.7404 19.5902 92.9709 19.6809L98.5717 27.1428H94.8032L89.2584 19.7621H85.8739V27.1428H82.8574V8.57329H91.6587C92.6056 8.55254 93.5486 8.70378 94.4431 9.01987C95.17 9.27912 95.8332 9.69456 96.3874 10.2378C96.888 10.7453 97.273 11.3577 97.5156 12.0323C97.7663 12.7154 97.8937 13.4387 97.8916 14.1677C97.9006 14.8229 97.8061 15.4753 97.6116 16.1002V16.1002ZM94.003 12.1134C93.307 11.6037 92.4598 11.3515 91.6027 11.3989H85.9299V16.9121H91.6027C92.4598 16.9596 93.307 16.7074 94.003 16.1976C94.2828 15.936 94.5062 15.6184 94.6589 15.2649C94.8117 14.9113 94.8905 14.5294 94.8905 14.1433C94.8905 13.7573 94.8117 13.3754 94.6589 13.0218C94.5062 12.6683 94.2828 12.3507 94.003 12.0891V12.1134Z" fill="#1D1D1B"/>
<path d="M100 27.1428L107.77 8.57141H110.801L118.571 27.1428H115.463L113.692 22.9527H104.833L103.069 27.1428H100ZM105.968 20.1268H112.472L109.231 12.3799L105.968 20.1268Z" fill="#1D1D1B"/>
<path d="M137.142 27.1428H133.975L124.313 13.1351V27.1428H121.428V8.57141H124.603L134.256 22.5954V8.57141H137.142V27.1428Z" fill="#1D1D1B"/>
<path d="M153.003 9.31181C154.136 9.75847 155.172 10.4406 156.047 11.3172C156.87 12.1452 157.512 13.1507 157.929 14.2643C158.786 16.5751 158.786 19.1386 157.929 21.4494C157.511 22.5645 156.869 23.5723 156.047 24.4047C155.169 25.2759 154.134 25.9549 153.003 26.4019C151.686 26.9182 150.288 27.1689 148.883 27.1407H142.857V8.573H148.883C150.288 8.54889 151.685 8.79944 153.003 9.31181V9.31181ZM155.172 15.2467C154.87 14.4718 154.413 13.774 153.832 13.2007C153.219 12.6106 152.497 12.16 151.71 11.8774C150.812 11.5482 149.865 11.3861 148.914 11.3984H145.816V24.3154H148.914C149.865 24.33 150.811 24.1706 151.71 23.8445C152.497 23.559 153.22 23.1057 153.832 22.513C154.412 21.9412 154.868 21.2465 155.172 20.4752C155.791 18.7928 155.791 16.929 155.172 15.2467Z" fill="#1D1D1B"/>
<path d="M157.143 30H60V31.4286H157.143V30Z" fill="#007DB4"/>
<path d="M67.8635 44.2857L65.1311 36.7302H65.0865C65.1014 36.8898 65.1144 37.0844 65.1255 37.3141C65.1366 37.5437 65.1459 37.7948 65.1533 38.0673C65.1607 38.3359 65.1644 38.6103 65.1644 38.8906V44.2857H64.2852V35.7493H65.6876L68.2642 42.8493H68.3032L70.9188 35.7493H72.3101V44.2857H71.3751V38.8205C71.3751 38.5675 71.3789 38.3145 71.3863 38.0615C71.3937 37.8045 71.403 37.5632 71.4141 37.3374C71.4252 37.1078 71.4364 36.9093 71.4475 36.7419H71.403L68.6371 44.2857H67.8635Z" fill="black"/>
<path d="M79.6394 44.2857L78.6377 41.5764H75.3765L74.3803 44.2857H73.4231L76.6064 35.7142H77.4578L80.6188 44.2857H79.6394ZM78.3538 40.6948L77.4022 38.0031C77.3799 37.933 77.3428 37.8182 77.2909 37.6586C77.2427 37.499 77.1926 37.3335 77.1406 37.1623C77.0887 36.991 77.046 36.8528 77.0126 36.7477C76.9755 36.9073 76.9347 37.0669 76.8902 37.2265C76.8494 37.3822 76.8086 37.5282 76.7678 37.6644C76.727 37.7968 76.6917 37.9096 76.662 38.0031L75.6937 40.6948H78.3538Z" fill="black"/>
<path d="M83.9468 35.7493C84.6146 35.7493 85.1656 35.8368 85.5996 36.012C86.0374 36.1833 86.3639 36.446 86.5791 36.8003C86.7943 37.1545 86.9019 37.606 86.9019 38.1549C86.9019 38.6064 86.824 38.984 86.6682 39.2876C86.5123 39.5873 86.3083 39.8306 86.056 40.0175C85.8037 40.2043 85.5347 40.3483 85.249 40.4495L87.4807 44.2857H86.3788L84.3864 40.724H82.6946V44.2857H81.7486V35.7493H83.9468ZM83.8911 36.6076H82.6946V39.8832H83.9858C84.6499 39.8832 85.1377 39.7411 85.4494 39.4569C85.7647 39.1728 85.9224 38.7543 85.9224 38.2016C85.9224 37.6216 85.7555 37.2109 85.4216 36.9696C85.0914 36.7282 84.5812 36.6076 83.8911 36.6076Z" fill="black"/>
<path d="M94.6486 44.2857H93.53L90.5971 40.1342L89.729 40.9517V44.2857H88.7829V35.7493H89.729V40.0058C89.9405 39.7528 90.1575 39.5017 90.3801 39.2526C90.6027 38.9996 90.8235 38.7446 91.0424 38.4877L93.4187 35.7493H94.5261L91.2872 39.4511L94.6486 44.2857Z" fill="black"/>
<path d="M100.292 44.2857H95.7616V35.7493H100.292V36.6251H96.7077V39.3869H100.086V40.251H96.7077V43.4098H100.292V44.2857Z" fill="black"/>
<path d="M104.593 44.2857H103.642V36.6251H101.082V35.7493H107.142V36.6251H104.593V44.2857Z" fill="black"/>
<defs>
<linearGradient id="paint0_linear_233_1897" x1="17.5107" y1="58.1105" x2="33.322" y2="25.7855" gradientUnits="userSpaceOnUse">
<stop stop-color="#098FCF"/>
<stop offset="0.58" stop-color="#007BBF"/>
<stop offset="0.81" stop-color="#006AA4"/>
<stop offset="1" stop-color="#025888"/>
</linearGradient>
</defs>
</svg>
